%TF.GenerationSoftware,KiCad,Pcbnew,9.0.2*%
%TF.CreationDate,2026-05-01T13:21:09-04:00*%
%TF.ProjectId,Load-UI_MCU,4c6f6164-2d55-4495-9f4d-43552e6b6963,rev?*%
%TF.SameCoordinates,Original*%
%TF.FileFunction,Soldermask,Bot*%
%TF.FilePolarity,Negative*%
%FSLAX46Y46*%
G04 Gerber Fmt 4.6, Leading zero omitted, Abs format (unit mm)*
G04 Created by KiCad (PCBNEW 9.0.2) date 2026-05-01 13:21:09*
%MOMM*%
%LPD*%
G01*
G04 APERTURE LIST*
G04 APERTURE END LIST*
G36*
X134304850Y-135900964D02*
G01*
X134355040Y-135906787D01*
X134372189Y-135914359D01*
X134395671Y-135919030D01*
X134420810Y-135935827D01*
X134440696Y-135944608D01*
X134454277Y-135958189D01*
X134476777Y-135973223D01*
X134491810Y-135995722D01*
X134505391Y-136009303D01*
X134514170Y-136029186D01*
X134530970Y-136054329D01*
X134535641Y-136077812D01*
X134543212Y-136094959D01*
X134549033Y-136145139D01*
X134550000Y-136150000D01*
X134550000Y-137650000D01*
X134549032Y-137654863D01*
X134543212Y-137705040D01*
X134535641Y-137722185D01*
X134530970Y-137745671D01*
X134514169Y-137770815D01*
X134505391Y-137790696D01*
X134491812Y-137804274D01*
X134476777Y-137826777D01*
X134454274Y-137841812D01*
X134440696Y-137855391D01*
X134420815Y-137864169D01*
X134395671Y-137880970D01*
X134372185Y-137885641D01*
X134355040Y-137893212D01*
X134304861Y-137899032D01*
X134300000Y-137900000D01*
X133100000Y-137900000D01*
X133095138Y-137899032D01*
X133044959Y-137893212D01*
X133027812Y-137885641D01*
X133004329Y-137880970D01*
X132979186Y-137864170D01*
X132959303Y-137855391D01*
X132945722Y-137841810D01*
X132923223Y-137826777D01*
X132908189Y-137804277D01*
X132894608Y-137790696D01*
X132885827Y-137770810D01*
X132869030Y-137745671D01*
X132864359Y-137722189D01*
X132856787Y-137705040D01*
X132850964Y-137654849D01*
X132850000Y-137650000D01*
X132850000Y-136150000D01*
X132850964Y-136145150D01*
X132856787Y-136094959D01*
X132864359Y-136077808D01*
X132869030Y-136054329D01*
X132885826Y-136029191D01*
X132894608Y-136009303D01*
X132908191Y-135995719D01*
X132923223Y-135973223D01*
X132945719Y-135958191D01*
X132959303Y-135944608D01*
X132979191Y-135935826D01*
X133004329Y-135919030D01*
X133027808Y-135914359D01*
X133044959Y-135906787D01*
X133095151Y-135900964D01*
X133100000Y-135900000D01*
X134300000Y-135900000D01*
X134304850Y-135900964D01*
G37*
G36*
X143204850Y-135900964D02*
G01*
X143255040Y-135906787D01*
X143272189Y-135914359D01*
X143295671Y-135919030D01*
X143320810Y-135935827D01*
X143340696Y-135944608D01*
X143354277Y-135958189D01*
X143376777Y-135973223D01*
X143391810Y-135995722D01*
X143405391Y-136009303D01*
X143414170Y-136029186D01*
X143430970Y-136054329D01*
X143435641Y-136077812D01*
X143443212Y-136094959D01*
X143449033Y-136145139D01*
X143450000Y-136150000D01*
X143450000Y-137650000D01*
X143449032Y-137654863D01*
X143443212Y-137705040D01*
X143435641Y-137722185D01*
X143430970Y-137745671D01*
X143414169Y-137770815D01*
X143405391Y-137790696D01*
X143391812Y-137804274D01*
X143376777Y-137826777D01*
X143354274Y-137841812D01*
X143340696Y-137855391D01*
X143320815Y-137864169D01*
X143295671Y-137880970D01*
X143272185Y-137885641D01*
X143255040Y-137893212D01*
X143204861Y-137899032D01*
X143200000Y-137900000D01*
X142000000Y-137900000D01*
X141995138Y-137899032D01*
X141944959Y-137893212D01*
X141927812Y-137885641D01*
X141904329Y-137880970D01*
X141879186Y-137864170D01*
X141859303Y-137855391D01*
X141845722Y-137841810D01*
X141823223Y-137826777D01*
X141808189Y-137804277D01*
X141794608Y-137790696D01*
X141785827Y-137770810D01*
X141769030Y-137745671D01*
X141764359Y-137722189D01*
X141756787Y-137705040D01*
X141750964Y-137654849D01*
X141750000Y-137650000D01*
X141750000Y-136150000D01*
X141750964Y-136145150D01*
X141756787Y-136094959D01*
X141764359Y-136077808D01*
X141769030Y-136054329D01*
X141785826Y-136029191D01*
X141794608Y-136009303D01*
X141808191Y-135995719D01*
X141823223Y-135973223D01*
X141845719Y-135958191D01*
X141859303Y-135944608D01*
X141879191Y-135935826D01*
X141904329Y-135919030D01*
X141927808Y-135914359D01*
X141944959Y-135906787D01*
X141995151Y-135900964D01*
X142000000Y-135900000D01*
X143200000Y-135900000D01*
X143204850Y-135900964D01*
G37*
G36*
X152004850Y-135900964D02*
G01*
X152055040Y-135906787D01*
X152072189Y-135914359D01*
X152095671Y-135919030D01*
X152120810Y-135935827D01*
X152140696Y-135944608D01*
X152154277Y-135958189D01*
X152176777Y-135973223D01*
X152191810Y-135995722D01*
X152205391Y-136009303D01*
X152214170Y-136029186D01*
X152230970Y-136054329D01*
X152235641Y-136077812D01*
X152243212Y-136094959D01*
X152249033Y-136145139D01*
X152250000Y-136150000D01*
X152250000Y-137650000D01*
X152249032Y-137654863D01*
X152243212Y-137705040D01*
X152235641Y-137722185D01*
X152230970Y-137745671D01*
X152214169Y-137770815D01*
X152205391Y-137790696D01*
X152191812Y-137804274D01*
X152176777Y-137826777D01*
X152154274Y-137841812D01*
X152140696Y-137855391D01*
X152120815Y-137864169D01*
X152095671Y-137880970D01*
X152072185Y-137885641D01*
X152055040Y-137893212D01*
X152004861Y-137899032D01*
X152000000Y-137900000D01*
X150800000Y-137900000D01*
X150795138Y-137899032D01*
X150744959Y-137893212D01*
X150727812Y-137885641D01*
X150704329Y-137880970D01*
X150679186Y-137864170D01*
X150659303Y-137855391D01*
X150645722Y-137841810D01*
X150623223Y-137826777D01*
X150608189Y-137804277D01*
X150594608Y-137790696D01*
X150585827Y-137770810D01*
X150569030Y-137745671D01*
X150564359Y-137722189D01*
X150556787Y-137705040D01*
X150550964Y-137654849D01*
X150550000Y-137650000D01*
X150550000Y-136150000D01*
X150550964Y-136145150D01*
X150556787Y-136094959D01*
X150564359Y-136077808D01*
X150569030Y-136054329D01*
X150585826Y-136029191D01*
X150594608Y-136009303D01*
X150608191Y-135995719D01*
X150623223Y-135973223D01*
X150645719Y-135958191D01*
X150659303Y-135944608D01*
X150679191Y-135935826D01*
X150704329Y-135919030D01*
X150727808Y-135914359D01*
X150744959Y-135906787D01*
X150795151Y-135900964D01*
X150800000Y-135900000D01*
X152000000Y-135900000D01*
X152004850Y-135900964D01*
G37*
G36*
X171804850Y-135900964D02*
G01*
X171855040Y-135906787D01*
X171872189Y-135914359D01*
X171895671Y-135919030D01*
X171920810Y-135935827D01*
X171940696Y-135944608D01*
X171954277Y-135958189D01*
X171976777Y-135973223D01*
X171991810Y-135995722D01*
X172005391Y-136009303D01*
X172014170Y-136029186D01*
X172030970Y-136054329D01*
X172035641Y-136077812D01*
X172043212Y-136094959D01*
X172049033Y-136145139D01*
X172050000Y-136150000D01*
X172050000Y-137650000D01*
X172049032Y-137654863D01*
X172043212Y-137705040D01*
X172035641Y-137722185D01*
X172030970Y-137745671D01*
X172014169Y-137770815D01*
X172005391Y-137790696D01*
X171991812Y-137804274D01*
X171976777Y-137826777D01*
X171954274Y-137841812D01*
X171940696Y-137855391D01*
X171920815Y-137864169D01*
X171895671Y-137880970D01*
X171872185Y-137885641D01*
X171855040Y-137893212D01*
X171804861Y-137899032D01*
X171800000Y-137900000D01*
X170600000Y-137900000D01*
X170595138Y-137899032D01*
X170544959Y-137893212D01*
X170527812Y-137885641D01*
X170504329Y-137880970D01*
X170479186Y-137864170D01*
X170459303Y-137855391D01*
X170445722Y-137841810D01*
X170423223Y-137826777D01*
X170408189Y-137804277D01*
X170394608Y-137790696D01*
X170385827Y-137770810D01*
X170369030Y-137745671D01*
X170364359Y-137722189D01*
X170356787Y-137705040D01*
X170350964Y-137654849D01*
X170350000Y-137650000D01*
X170350000Y-136150000D01*
X170350964Y-136145150D01*
X170356787Y-136094959D01*
X170364359Y-136077808D01*
X170369030Y-136054329D01*
X170385826Y-136029191D01*
X170394608Y-136009303D01*
X170408191Y-135995719D01*
X170423223Y-135973223D01*
X170445719Y-135958191D01*
X170459303Y-135944608D01*
X170479191Y-135935826D01*
X170504329Y-135919030D01*
X170527808Y-135914359D01*
X170544959Y-135906787D01*
X170595151Y-135900964D01*
X170600000Y-135900000D01*
X171800000Y-135900000D01*
X171804850Y-135900964D01*
G37*
G36*
X131446742Y-135936601D02*
G01*
X131600687Y-136000367D01*
X131739234Y-136092941D01*
X131857059Y-136210766D01*
X131949633Y-136349313D01*
X132013399Y-136503258D01*
X132045907Y-136666685D01*
X132050000Y-136750000D01*
X132050000Y-137050000D01*
X132045907Y-137133315D01*
X132013399Y-137296742D01*
X131949633Y-137450687D01*
X131857059Y-137589234D01*
X131739234Y-137707059D01*
X131600687Y-137799633D01*
X131446742Y-137863399D01*
X131283315Y-137895907D01*
X131116685Y-137895907D01*
X130953258Y-137863399D01*
X130799313Y-137799633D01*
X130660766Y-137707059D01*
X130542941Y-137589234D01*
X130450367Y-137450687D01*
X130386601Y-137296742D01*
X130354093Y-137133315D01*
X130350000Y-137050000D01*
X130350000Y-136750000D01*
X130354093Y-136666685D01*
X130386601Y-136503258D01*
X130450367Y-136349313D01*
X130542941Y-136210766D01*
X130660766Y-136092941D01*
X130799313Y-136000367D01*
X130953258Y-135936601D01*
X131116685Y-135904093D01*
X131283315Y-135904093D01*
X131446742Y-135936601D01*
G37*
G36*
X140346742Y-135936601D02*
G01*
X140500687Y-136000367D01*
X140639234Y-136092941D01*
X140757059Y-136210766D01*
X140849633Y-136349313D01*
X140913399Y-136503258D01*
X140945907Y-136666685D01*
X140950000Y-136750000D01*
X140950000Y-137050000D01*
X140945907Y-137133315D01*
X140913399Y-137296742D01*
X140849633Y-137450687D01*
X140757059Y-137589234D01*
X140639234Y-137707059D01*
X140500687Y-137799633D01*
X140346742Y-137863399D01*
X140183315Y-137895907D01*
X140016685Y-137895907D01*
X139853258Y-137863399D01*
X139699313Y-137799633D01*
X139560766Y-137707059D01*
X139442941Y-137589234D01*
X139350367Y-137450687D01*
X139286601Y-137296742D01*
X139254093Y-137133315D01*
X139250000Y-137050000D01*
X139250000Y-136750000D01*
X139254093Y-136666685D01*
X139286601Y-136503258D01*
X139350367Y-136349313D01*
X139442941Y-136210766D01*
X139560766Y-136092941D01*
X139699313Y-136000367D01*
X139853258Y-135936601D01*
X140016685Y-135904093D01*
X140183315Y-135904093D01*
X140346742Y-135936601D01*
G37*
G36*
X149146742Y-135936601D02*
G01*
X149300687Y-136000367D01*
X149439234Y-136092941D01*
X149557059Y-136210766D01*
X149649633Y-136349313D01*
X149713399Y-136503258D01*
X149745907Y-136666685D01*
X149750000Y-136750000D01*
X149750000Y-137050000D01*
X149745907Y-137133315D01*
X149713399Y-137296742D01*
X149649633Y-137450687D01*
X149557059Y-137589234D01*
X149439234Y-137707059D01*
X149300687Y-137799633D01*
X149146742Y-137863399D01*
X148983315Y-137895907D01*
X148816685Y-137895907D01*
X148653258Y-137863399D01*
X148499313Y-137799633D01*
X148360766Y-137707059D01*
X148242941Y-137589234D01*
X148150367Y-137450687D01*
X148086601Y-137296742D01*
X148054093Y-137133315D01*
X148050000Y-137050000D01*
X148050000Y-136750000D01*
X148054093Y-136666685D01*
X148086601Y-136503258D01*
X148150367Y-136349313D01*
X148242941Y-136210766D01*
X148360766Y-136092941D01*
X148499313Y-136000367D01*
X148653258Y-135936601D01*
X148816685Y-135904093D01*
X148983315Y-135904093D01*
X149146742Y-135936601D01*
G37*
G36*
X168946742Y-135936601D02*
G01*
X169100687Y-136000367D01*
X169239234Y-136092941D01*
X169357059Y-136210766D01*
X169449633Y-136349313D01*
X169513399Y-136503258D01*
X169545907Y-136666685D01*
X169550000Y-136750000D01*
X169550000Y-137050000D01*
X169545907Y-137133315D01*
X169513399Y-137296742D01*
X169449633Y-137450687D01*
X169357059Y-137589234D01*
X169239234Y-137707059D01*
X169100687Y-137799633D01*
X168946742Y-137863399D01*
X168783315Y-137895907D01*
X168616685Y-137895907D01*
X168453258Y-137863399D01*
X168299313Y-137799633D01*
X168160766Y-137707059D01*
X168042941Y-137589234D01*
X167950367Y-137450687D01*
X167886601Y-137296742D01*
X167854093Y-137133315D01*
X167850000Y-137050000D01*
X167850000Y-136750000D01*
X167854093Y-136666685D01*
X167886601Y-136503258D01*
X167950367Y-136349313D01*
X168042941Y-136210766D01*
X168160766Y-136092941D01*
X168299313Y-136000367D01*
X168453258Y-135936601D01*
X168616685Y-135904093D01*
X168783315Y-135904093D01*
X168946742Y-135936601D01*
G37*
G36*
X163204850Y-135925964D02*
G01*
X163255040Y-135931787D01*
X163272189Y-135939359D01*
X163295671Y-135944030D01*
X163320810Y-135960827D01*
X163340696Y-135969608D01*
X163354277Y-135983189D01*
X163376777Y-135998223D01*
X163391810Y-136020722D01*
X163405391Y-136034303D01*
X163414170Y-136054186D01*
X163430970Y-136079329D01*
X163435641Y-136102812D01*
X163443212Y-136119959D01*
X163449033Y-136170139D01*
X163450000Y-136175000D01*
X163450000Y-137625000D01*
X163449032Y-137629863D01*
X163443212Y-137680040D01*
X163435641Y-137697185D01*
X163430970Y-137720671D01*
X163414169Y-137745815D01*
X163405391Y-137765696D01*
X163391812Y-137779274D01*
X163376777Y-137801777D01*
X163354274Y-137816812D01*
X163340696Y-137830391D01*
X163320815Y-137839169D01*
X163295671Y-137855970D01*
X163272185Y-137860641D01*
X163255040Y-137868212D01*
X163204861Y-137874032D01*
X163200000Y-137875000D01*
X162000000Y-137875000D01*
X161995138Y-137874032D01*
X161944959Y-137868212D01*
X161927812Y-137860641D01*
X161904329Y-137855970D01*
X161879186Y-137839170D01*
X161859303Y-137830391D01*
X161845722Y-137816810D01*
X161823223Y-137801777D01*
X161808189Y-137779277D01*
X161794608Y-137765696D01*
X161785827Y-137745810D01*
X161769030Y-137720671D01*
X161764359Y-137697189D01*
X161756787Y-137680040D01*
X161750964Y-137629849D01*
X161750000Y-137625000D01*
X161750000Y-136175000D01*
X161750964Y-136170150D01*
X161756787Y-136119959D01*
X161764359Y-136102808D01*
X161769030Y-136079329D01*
X161785826Y-136054191D01*
X161794608Y-136034303D01*
X161808191Y-136020719D01*
X161823223Y-135998223D01*
X161845719Y-135983191D01*
X161859303Y-135969608D01*
X161879191Y-135960826D01*
X161904329Y-135944030D01*
X161927808Y-135939359D01*
X161944959Y-135931787D01*
X161995151Y-135925964D01*
X162000000Y-135925000D01*
X163200000Y-135925000D01*
X163204850Y-135925964D01*
G37*
G36*
X190804850Y-135925964D02*
G01*
X190855040Y-135931787D01*
X190872189Y-135939359D01*
X190895671Y-135944030D01*
X190920810Y-135960827D01*
X190940696Y-135969608D01*
X190954277Y-135983189D01*
X190976777Y-135998223D01*
X190991810Y-136020722D01*
X191005391Y-136034303D01*
X191014170Y-136054186D01*
X191030970Y-136079329D01*
X191035641Y-136102812D01*
X191043212Y-136119959D01*
X191049033Y-136170139D01*
X191050000Y-136175000D01*
X191050000Y-137625000D01*
X191049032Y-137629863D01*
X191043212Y-137680040D01*
X191035641Y-137697185D01*
X191030970Y-137720671D01*
X191014169Y-137745815D01*
X191005391Y-137765696D01*
X190991812Y-137779274D01*
X190976777Y-137801777D01*
X190954274Y-137816812D01*
X190940696Y-137830391D01*
X190920815Y-137839169D01*
X190895671Y-137855970D01*
X190872185Y-137860641D01*
X190855040Y-137868212D01*
X190804861Y-137874032D01*
X190800000Y-137875000D01*
X189600000Y-137875000D01*
X189595138Y-137874032D01*
X189544959Y-137868212D01*
X189527812Y-137860641D01*
X189504329Y-137855970D01*
X189479186Y-137839170D01*
X189459303Y-137830391D01*
X189445722Y-137816810D01*
X189423223Y-137801777D01*
X189408189Y-137779277D01*
X189394608Y-137765696D01*
X189385827Y-137745810D01*
X189369030Y-137720671D01*
X189364359Y-137697189D01*
X189356787Y-137680040D01*
X189350964Y-137629849D01*
X189350000Y-137625000D01*
X189350000Y-136175000D01*
X189350964Y-136170150D01*
X189356787Y-136119959D01*
X189364359Y-136102808D01*
X189369030Y-136079329D01*
X189385826Y-136054191D01*
X189394608Y-136034303D01*
X189408191Y-136020719D01*
X189423223Y-135998223D01*
X189445719Y-135983191D01*
X189459303Y-135969608D01*
X189479191Y-135960826D01*
X189504329Y-135944030D01*
X189527808Y-135939359D01*
X189544959Y-135931787D01*
X189595151Y-135925964D01*
X189600000Y-135925000D01*
X190800000Y-135925000D01*
X190804850Y-135925964D01*
G37*
G36*
X157846742Y-135961601D02*
G01*
X158000687Y-136025367D01*
X158139234Y-136117941D01*
X158257059Y-136235766D01*
X158349633Y-136374313D01*
X158413399Y-136528258D01*
X158445907Y-136691685D01*
X158450000Y-136775000D01*
X158450000Y-137025000D01*
X158445907Y-137108315D01*
X158413399Y-137271742D01*
X158349633Y-137425687D01*
X158257059Y-137564234D01*
X158139234Y-137682059D01*
X158000687Y-137774633D01*
X157846742Y-137838399D01*
X157683315Y-137870907D01*
X157516685Y-137870907D01*
X157353258Y-137838399D01*
X157199313Y-137774633D01*
X157060766Y-137682059D01*
X156942941Y-137564234D01*
X156850367Y-137425687D01*
X156786601Y-137271742D01*
X156754093Y-137108315D01*
X156750000Y-137025000D01*
X156750000Y-136775000D01*
X156754093Y-136691685D01*
X156786601Y-136528258D01*
X156850367Y-136374313D01*
X156942941Y-136235766D01*
X157060766Y-136117941D01*
X157199313Y-136025367D01*
X157353258Y-135961601D01*
X157516685Y-135929093D01*
X157683315Y-135929093D01*
X157846742Y-135961601D01*
G37*
G36*
X160346742Y-135961601D02*
G01*
X160500687Y-136025367D01*
X160639234Y-136117941D01*
X160757059Y-136235766D01*
X160849633Y-136374313D01*
X160913399Y-136528258D01*
X160945907Y-136691685D01*
X160950000Y-136775000D01*
X160950000Y-137025000D01*
X160945907Y-137108315D01*
X160913399Y-137271742D01*
X160849633Y-137425687D01*
X160757059Y-137564234D01*
X160639234Y-137682059D01*
X160500687Y-137774633D01*
X160346742Y-137838399D01*
X160183315Y-137870907D01*
X160016685Y-137870907D01*
X159853258Y-137838399D01*
X159699313Y-137774633D01*
X159560766Y-137682059D01*
X159442941Y-137564234D01*
X159350367Y-137425687D01*
X159286601Y-137271742D01*
X159254093Y-137108315D01*
X159250000Y-137025000D01*
X159250000Y-136775000D01*
X159254093Y-136691685D01*
X159286601Y-136528258D01*
X159350367Y-136374313D01*
X159442941Y-136235766D01*
X159560766Y-136117941D01*
X159699313Y-136025367D01*
X159853258Y-135961601D01*
X160016685Y-135929093D01*
X160183315Y-135929093D01*
X160346742Y-135961601D01*
G37*
G36*
X177946742Y-135961601D02*
G01*
X178100687Y-136025367D01*
X178239234Y-136117941D01*
X178357059Y-136235766D01*
X178449633Y-136374313D01*
X178513399Y-136528258D01*
X178545907Y-136691685D01*
X178550000Y-136775000D01*
X178550000Y-137025000D01*
X178545907Y-137108315D01*
X178513399Y-137271742D01*
X178449633Y-137425687D01*
X178357059Y-137564234D01*
X178239234Y-137682059D01*
X178100687Y-137774633D01*
X177946742Y-137838399D01*
X177783315Y-137870907D01*
X177616685Y-137870907D01*
X177453258Y-137838399D01*
X177299313Y-137774633D01*
X177160766Y-137682059D01*
X177042941Y-137564234D01*
X176950367Y-137425687D01*
X176886601Y-137271742D01*
X176854093Y-137108315D01*
X176850000Y-137025000D01*
X176850000Y-136775000D01*
X176854093Y-136691685D01*
X176886601Y-136528258D01*
X176950367Y-136374313D01*
X177042941Y-136235766D01*
X177160766Y-136117941D01*
X177299313Y-136025367D01*
X177453258Y-135961601D01*
X177616685Y-135929093D01*
X177783315Y-135929093D01*
X177946742Y-135961601D01*
G37*
G36*
X180446742Y-135961601D02*
G01*
X180600687Y-136025367D01*
X180739234Y-136117941D01*
X180857059Y-136235766D01*
X180949633Y-136374313D01*
X181013399Y-136528258D01*
X181045907Y-136691685D01*
X181050000Y-136775000D01*
X181050000Y-137025000D01*
X181045907Y-137108315D01*
X181013399Y-137271742D01*
X180949633Y-137425687D01*
X180857059Y-137564234D01*
X180739234Y-137682059D01*
X180600687Y-137774633D01*
X180446742Y-137838399D01*
X180283315Y-137870907D01*
X180116685Y-137870907D01*
X179953258Y-137838399D01*
X179799313Y-137774633D01*
X179660766Y-137682059D01*
X179542941Y-137564234D01*
X179450367Y-137425687D01*
X179386601Y-137271742D01*
X179354093Y-137108315D01*
X179350000Y-137025000D01*
X179350000Y-136775000D01*
X179354093Y-136691685D01*
X179386601Y-136528258D01*
X179450367Y-136374313D01*
X179542941Y-136235766D01*
X179660766Y-136117941D01*
X179799313Y-136025367D01*
X179953258Y-135961601D01*
X180116685Y-135929093D01*
X180283315Y-135929093D01*
X180446742Y-135961601D01*
G37*
G36*
X182946742Y-135961601D02*
G01*
X183100687Y-136025367D01*
X183239234Y-136117941D01*
X183357059Y-136235766D01*
X183449633Y-136374313D01*
X183513399Y-136528258D01*
X183545907Y-136691685D01*
X183550000Y-136775000D01*
X183550000Y-137025000D01*
X183545907Y-137108315D01*
X183513399Y-137271742D01*
X183449633Y-137425687D01*
X183357059Y-137564234D01*
X183239234Y-137682059D01*
X183100687Y-137774633D01*
X182946742Y-137838399D01*
X182783315Y-137870907D01*
X182616685Y-137870907D01*
X182453258Y-137838399D01*
X182299313Y-137774633D01*
X182160766Y-137682059D01*
X182042941Y-137564234D01*
X181950367Y-137425687D01*
X181886601Y-137271742D01*
X181854093Y-137108315D01*
X181850000Y-137025000D01*
X181850000Y-136775000D01*
X181854093Y-136691685D01*
X181886601Y-136528258D01*
X181950367Y-136374313D01*
X182042941Y-136235766D01*
X182160766Y-136117941D01*
X182299313Y-136025367D01*
X182453258Y-135961601D01*
X182616685Y-135929093D01*
X182783315Y-135929093D01*
X182946742Y-135961601D01*
G37*
G36*
X185446742Y-135961601D02*
G01*
X185600687Y-136025367D01*
X185739234Y-136117941D01*
X185857059Y-136235766D01*
X185949633Y-136374313D01*
X186013399Y-136528258D01*
X186045907Y-136691685D01*
X186050000Y-136775000D01*
X186050000Y-137025000D01*
X186045907Y-137108315D01*
X186013399Y-137271742D01*
X185949633Y-137425687D01*
X185857059Y-137564234D01*
X185739234Y-137682059D01*
X185600687Y-137774633D01*
X185446742Y-137838399D01*
X185283315Y-137870907D01*
X185116685Y-137870907D01*
X184953258Y-137838399D01*
X184799313Y-137774633D01*
X184660766Y-137682059D01*
X184542941Y-137564234D01*
X184450367Y-137425687D01*
X184386601Y-137271742D01*
X184354093Y-137108315D01*
X184350000Y-137025000D01*
X184350000Y-136775000D01*
X184354093Y-136691685D01*
X184386601Y-136528258D01*
X184450367Y-136374313D01*
X184542941Y-136235766D01*
X184660766Y-136117941D01*
X184799313Y-136025367D01*
X184953258Y-135961601D01*
X185116685Y-135929093D01*
X185283315Y-135929093D01*
X185446742Y-135961601D01*
G37*
G36*
X187946742Y-135961601D02*
G01*
X188100687Y-136025367D01*
X188239234Y-136117941D01*
X188357059Y-136235766D01*
X188449633Y-136374313D01*
X188513399Y-136528258D01*
X188545907Y-136691685D01*
X188550000Y-136775000D01*
X188550000Y-137025000D01*
X188545907Y-137108315D01*
X188513399Y-137271742D01*
X188449633Y-137425687D01*
X188357059Y-137564234D01*
X188239234Y-137682059D01*
X188100687Y-137774633D01*
X187946742Y-137838399D01*
X187783315Y-137870907D01*
X187616685Y-137870907D01*
X187453258Y-137838399D01*
X187299313Y-137774633D01*
X187160766Y-137682059D01*
X187042941Y-137564234D01*
X186950367Y-137425687D01*
X186886601Y-137271742D01*
X186854093Y-137108315D01*
X186850000Y-137025000D01*
X186850000Y-136775000D01*
X186854093Y-136691685D01*
X186886601Y-136528258D01*
X186950367Y-136374313D01*
X187042941Y-136235766D01*
X187160766Y-136117941D01*
X187299313Y-136025367D01*
X187453258Y-135961601D01*
X187616685Y-135929093D01*
X187783315Y-135929093D01*
X187946742Y-135961601D01*
G37*
G36*
X198073794Y-134211344D02*
G01*
X198305113Y-134286504D01*
X198521827Y-134396925D01*
X198718598Y-134539888D01*
X198890583Y-134711873D01*
X199033546Y-134908644D01*
X199143967Y-135125358D01*
X199219127Y-135356677D01*
X199257176Y-135596905D01*
X199257176Y-135840129D01*
X199219127Y-136080357D01*
X199143967Y-136311676D01*
X199033546Y-136528390D01*
X198890583Y-136725161D01*
X198718598Y-136897146D01*
X198521827Y-137040109D01*
X198305113Y-137150530D01*
X198073794Y-137225690D01*
X197833566Y-137263739D01*
X197590342Y-137263739D01*
X197350114Y-137225690D01*
X197118795Y-137150530D01*
X196902081Y-137040109D01*
X196705310Y-136897146D01*
X196533325Y-136725161D01*
X196390362Y-136528390D01*
X196279941Y-136311676D01*
X196204781Y-136080357D01*
X196166732Y-135840129D01*
X196166732Y-135596905D01*
X196204781Y-135356677D01*
X196279941Y-135125358D01*
X196390362Y-134908644D01*
X196533325Y-134711873D01*
X196705310Y-134539888D01*
X196902081Y-134396925D01*
X197118795Y-134286504D01*
X197350114Y-134211344D01*
X197590342Y-134173295D01*
X197833566Y-134173295D01*
X198073794Y-134211344D01*
G37*
G36*
X121661840Y-134192827D02*
G01*
X121893159Y-134267987D01*
X122109873Y-134378408D01*
X122306644Y-134521371D01*
X122478629Y-134693356D01*
X122621592Y-134890127D01*
X122732013Y-135106841D01*
X122807173Y-135338160D01*
X122845222Y-135578388D01*
X122845222Y-135821612D01*
X122807173Y-136061840D01*
X122732013Y-136293159D01*
X122621592Y-136509873D01*
X122478629Y-136706644D01*
X122306644Y-136878629D01*
X122109873Y-137021592D01*
X121893159Y-137132013D01*
X121661840Y-137207173D01*
X121421612Y-137245222D01*
X121178388Y-137245222D01*
X120938160Y-137207173D01*
X120706841Y-137132013D01*
X120490127Y-137021592D01*
X120293356Y-136878629D01*
X120121371Y-136706644D01*
X119978408Y-136509873D01*
X119867987Y-136293159D01*
X119792827Y-136061840D01*
X119754778Y-135821612D01*
X119754778Y-135578388D01*
X119792827Y-135338160D01*
X119867987Y-135106841D01*
X119978408Y-134890127D01*
X120121371Y-134693356D01*
X120293356Y-134521371D01*
X120490127Y-134378408D01*
X120706841Y-134267987D01*
X120938160Y-134192827D01*
X121178388Y-134154778D01*
X121421612Y-134154778D01*
X121661840Y-134192827D01*
G37*
G36*
X121490285Y-129443060D02*
G01*
X121671397Y-129518079D01*
X121834393Y-129626990D01*
X121973010Y-129765607D01*
X122081921Y-129928603D01*
X122156940Y-130109715D01*
X122195185Y-130301983D01*
X122195185Y-130498017D01*
X122156940Y-130690285D01*
X122081921Y-130871397D01*
X121973010Y-131034393D01*
X121834393Y-131173010D01*
X121671397Y-131281921D01*
X121490285Y-131356940D01*
X121298017Y-131395185D01*
X121101983Y-131395185D01*
X120909715Y-131356940D01*
X120728603Y-131281921D01*
X120565607Y-131173010D01*
X120426990Y-131034393D01*
X120318079Y-130871397D01*
X120243060Y-130690285D01*
X120204815Y-130498017D01*
X120204815Y-130301983D01*
X120243060Y-130109715D01*
X120318079Y-129928603D01*
X120426990Y-129765607D01*
X120565607Y-129626990D01*
X120728603Y-129518079D01*
X120909715Y-129443060D01*
X121101983Y-129404815D01*
X121298017Y-129404815D01*
X121490285Y-129443060D01*
G37*
G36*
X176122228Y-128434448D02*
G01*
X176267117Y-128494463D01*
X176397515Y-128581592D01*
X176508408Y-128692485D01*
X176595537Y-128822883D01*
X176655552Y-128967772D01*
X176686148Y-129121586D01*
X176686148Y-129278414D01*
X176655552Y-129432228D01*
X176595537Y-129577117D01*
X176508408Y-129707515D01*
X176397515Y-129818408D01*
X176267117Y-129905537D01*
X176122228Y-129965552D01*
X175968414Y-129996148D01*
X175811586Y-129996148D01*
X175657772Y-129965552D01*
X175512883Y-129905537D01*
X175382485Y-129818408D01*
X175271592Y-129707515D01*
X175184463Y-129577117D01*
X175124448Y-129432228D01*
X175093852Y-129278414D01*
X175093852Y-129121586D01*
X175124448Y-128967772D01*
X175184463Y-128822883D01*
X175271592Y-128692485D01*
X175382485Y-128581592D01*
X175512883Y-128494463D01*
X175657772Y-128434448D01*
X175811586Y-128403852D01*
X175968414Y-128403852D01*
X176122228Y-128434448D01*
G37*
G36*
X183742228Y-128434448D02*
G01*
X183887117Y-128494463D01*
X184017515Y-128581592D01*
X184128408Y-128692485D01*
X184215537Y-128822883D01*
X184275552Y-128967772D01*
X184306148Y-129121586D01*
X184306148Y-129278414D01*
X184275552Y-129432228D01*
X184215537Y-129577117D01*
X184128408Y-129707515D01*
X184017515Y-129818408D01*
X183887117Y-129905537D01*
X183742228Y-129965552D01*
X183588414Y-129996148D01*
X183431586Y-129996148D01*
X183277772Y-129965552D01*
X183132883Y-129905537D01*
X183002485Y-129818408D01*
X182891592Y-129707515D01*
X182804463Y-129577117D01*
X182744448Y-129432228D01*
X182713852Y-129278414D01*
X182713852Y-129121586D01*
X182744448Y-128967772D01*
X182804463Y-128822883D01*
X182891592Y-128692485D01*
X183002485Y-128581592D01*
X183132883Y-128494463D01*
X183277772Y-128434448D01*
X183431586Y-128403852D01*
X183588414Y-128403852D01*
X183742228Y-128434448D01*
G37*
G36*
X198733315Y-128254093D02*
G01*
X198896742Y-128286601D01*
X199050687Y-128350367D01*
X199189234Y-128442941D01*
X199307059Y-128560766D01*
X199399633Y-128699313D01*
X199463399Y-128853258D01*
X199495907Y-129016685D01*
X199495907Y-129183315D01*
X199463399Y-129346742D01*
X199399633Y-129500687D01*
X199307059Y-129639234D01*
X199189234Y-129757059D01*
X199050687Y-129849633D01*
X198896742Y-129913399D01*
X198733315Y-129945907D01*
X198650000Y-129950000D01*
X198648522Y-129950000D01*
X198351478Y-129950000D01*
X198350000Y-129950000D01*
X198266685Y-129945907D01*
X198103258Y-129913399D01*
X197949313Y-129849633D01*
X197810766Y-129757059D01*
X197692941Y-129639234D01*
X197600367Y-129500687D01*
X197536601Y-129346742D01*
X197504093Y-129183315D01*
X197504093Y-129016685D01*
X197536601Y-128853258D01*
X197600367Y-128699313D01*
X197692941Y-128560766D01*
X197810766Y-128442941D01*
X197949313Y-128350367D01*
X198103258Y-128286601D01*
X198266685Y-128254093D01*
X198350000Y-128250000D01*
X198650000Y-128250000D01*
X198733315Y-128254093D01*
G37*
G36*
X157832228Y-127534448D02*
G01*
X157977117Y-127594463D01*
X158107515Y-127681592D01*
X158218408Y-127792485D01*
X158305537Y-127922883D01*
X158365552Y-128067772D01*
X158396148Y-128221586D01*
X158396148Y-128378414D01*
X158365552Y-128532228D01*
X158305537Y-128677117D01*
X158218408Y-128807515D01*
X158107515Y-128918408D01*
X157977117Y-129005537D01*
X157832228Y-129065552D01*
X157678414Y-129096148D01*
X157521586Y-129096148D01*
X157367772Y-129065552D01*
X157222883Y-129005537D01*
X157092485Y-128918408D01*
X156981592Y-128807515D01*
X156894463Y-128677117D01*
X156834448Y-128532228D01*
X156803852Y-128378414D01*
X156803852Y-128221586D01*
X156834448Y-128067772D01*
X156894463Y-127922883D01*
X156981592Y-127792485D01*
X157092485Y-127681592D01*
X157222883Y-127594463D01*
X157367772Y-127534448D01*
X157521586Y-127503852D01*
X157678414Y-127503852D01*
X157832228Y-127534448D01*
G37*
G36*
X162532228Y-127444448D02*
G01*
X162677117Y-127504463D01*
X162807515Y-127591592D01*
X162918408Y-127702485D01*
X163005537Y-127832883D01*
X163065552Y-127977772D01*
X163096148Y-128131586D01*
X163096148Y-128288414D01*
X163065552Y-128442228D01*
X163005537Y-128587117D01*
X162918408Y-128717515D01*
X162807515Y-128828408D01*
X162677117Y-128915537D01*
X162532228Y-128975552D01*
X162378414Y-129006148D01*
X162221586Y-129006148D01*
X162067772Y-128975552D01*
X161922883Y-128915537D01*
X161792485Y-128828408D01*
X161681592Y-128717515D01*
X161594463Y-128587117D01*
X161534448Y-128442228D01*
X161503852Y-128288414D01*
X161503852Y-128131586D01*
X161534448Y-127977772D01*
X161594463Y-127832883D01*
X161681592Y-127702485D01*
X161792485Y-127591592D01*
X161922883Y-127504463D01*
X162067772Y-127444448D01*
X162221586Y-127413852D01*
X162378414Y-127413852D01*
X162532228Y-127444448D01*
G37*
G36*
X148332228Y-127434448D02*
G01*
X148477117Y-127494463D01*
X148607515Y-127581592D01*
X148718408Y-127692485D01*
X148805537Y-127822883D01*
X148865552Y-127967772D01*
X148896148Y-128121586D01*
X148896148Y-128278414D01*
X148865552Y-128432228D01*
X148805537Y-128577117D01*
X148718408Y-128707515D01*
X148607515Y-128818408D01*
X148477117Y-128905537D01*
X148332228Y-128965552D01*
X148178414Y-128996148D01*
X148021586Y-128996148D01*
X147867772Y-128965552D01*
X147722883Y-128905537D01*
X147592485Y-128818408D01*
X147481592Y-128707515D01*
X147394463Y-128577117D01*
X147334448Y-128432228D01*
X147303852Y-128278414D01*
X147303852Y-128121586D01*
X147334448Y-127967772D01*
X147394463Y-127822883D01*
X147481592Y-127692485D01*
X147592485Y-127581592D01*
X147722883Y-127494463D01*
X147867772Y-127434448D01*
X148021586Y-127403852D01*
X148178414Y-127403852D01*
X148332228Y-127434448D01*
G37*
G36*
X167732228Y-127434448D02*
G01*
X167877117Y-127494463D01*
X168007515Y-127581592D01*
X168118408Y-127692485D01*
X168205537Y-127822883D01*
X168265552Y-127967772D01*
X168296148Y-128121586D01*
X168296148Y-128278414D01*
X168265552Y-128432228D01*
X168205537Y-128577117D01*
X168118408Y-128707515D01*
X168007515Y-128818408D01*
X167877117Y-128905537D01*
X167732228Y-128965552D01*
X167578414Y-128996148D01*
X167421586Y-128996148D01*
X167267772Y-128965552D01*
X167122883Y-128905537D01*
X166992485Y-128818408D01*
X166881592Y-128707515D01*
X166794463Y-128577117D01*
X166734448Y-128432228D01*
X166703852Y-128278414D01*
X166703852Y-128121586D01*
X166734448Y-127967772D01*
X166794463Y-127822883D01*
X166881592Y-127692485D01*
X166992485Y-127581592D01*
X167122883Y-127494463D01*
X167267772Y-127434448D01*
X167421586Y-127403852D01*
X167578414Y-127403852D01*
X167732228Y-127434448D01*
G37*
G36*
X153132228Y-127354448D02*
G01*
X153277117Y-127414463D01*
X153407515Y-127501592D01*
X153518408Y-127612485D01*
X153605537Y-127742883D01*
X153665552Y-127887772D01*
X153696148Y-128041586D01*
X153696148Y-128198414D01*
X153665552Y-128352228D01*
X153605537Y-128497117D01*
X153518408Y-128627515D01*
X153407515Y-128738408D01*
X153277117Y-128825537D01*
X153132228Y-128885552D01*
X152978414Y-128916148D01*
X152821586Y-128916148D01*
X152667772Y-128885552D01*
X152522883Y-128825537D01*
X152392485Y-128738408D01*
X152281592Y-128627515D01*
X152194463Y-128497117D01*
X152134448Y-128352228D01*
X152103852Y-128198414D01*
X152103852Y-128041586D01*
X152134448Y-127887772D01*
X152194463Y-127742883D01*
X152281592Y-127612485D01*
X152392485Y-127501592D01*
X152522883Y-127414463D01*
X152667772Y-127354448D01*
X152821586Y-127323852D01*
X152978414Y-127323852D01*
X153132228Y-127354448D01*
G37*
G36*
X121954850Y-126860964D02*
G01*
X122005040Y-126866787D01*
X122022189Y-126874359D01*
X122045671Y-126879030D01*
X122070810Y-126895827D01*
X122090696Y-126904608D01*
X122104277Y-126918189D01*
X122126777Y-126933223D01*
X122141810Y-126955722D01*
X122155391Y-126969303D01*
X122164170Y-126989186D01*
X122180970Y-127014329D01*
X122185641Y-127037812D01*
X122193212Y-127054959D01*
X122199033Y-127105139D01*
X122200000Y-127110000D01*
X122200000Y-128610000D01*
X122199032Y-128614863D01*
X122193212Y-128665040D01*
X122185641Y-128682185D01*
X122180970Y-128705671D01*
X122164169Y-128730815D01*
X122155391Y-128750696D01*
X122141812Y-128764274D01*
X122126777Y-128786777D01*
X122104274Y-128801812D01*
X122090696Y-128815391D01*
X122070815Y-128824169D01*
X122045671Y-128840970D01*
X122022185Y-128845641D01*
X122005040Y-128853212D01*
X121954861Y-128859032D01*
X121950000Y-128860000D01*
X120450000Y-128860000D01*
X120445138Y-128859032D01*
X120394959Y-128853212D01*
X120377812Y-128845641D01*
X120354329Y-128840970D01*
X120329186Y-128824170D01*
X120309303Y-128815391D01*
X120295722Y-128801810D01*
X120273223Y-128786777D01*
X120258189Y-128764277D01*
X120244608Y-128750696D01*
X120235827Y-128730810D01*
X120219030Y-128705671D01*
X120214359Y-128682189D01*
X120206787Y-128665040D01*
X120200964Y-128614849D01*
X120200000Y-128610000D01*
X120200000Y-127110000D01*
X120200964Y-127105150D01*
X120206787Y-127054959D01*
X120214359Y-127037808D01*
X120219030Y-127014329D01*
X120235826Y-126989191D01*
X120244608Y-126969303D01*
X120258191Y-126955719D01*
X120273223Y-126933223D01*
X120295719Y-126918191D01*
X120309303Y-126904608D01*
X120329191Y-126895826D01*
X120354329Y-126879030D01*
X120377808Y-126874359D01*
X120394959Y-126866787D01*
X120445151Y-126860964D01*
X120450000Y-126860000D01*
X121950000Y-126860000D01*
X121954850Y-126860964D01*
G37*
G36*
X199254850Y-125750964D02*
G01*
X199305040Y-125756787D01*
X199322189Y-125764359D01*
X199345671Y-125769030D01*
X199370810Y-125785827D01*
X199390696Y-125794608D01*
X199404277Y-125808189D01*
X199426777Y-125823223D01*
X199441810Y-125845722D01*
X199455391Y-125859303D01*
X199464170Y-125879186D01*
X199480970Y-125904329D01*
X199485641Y-125927812D01*
X199493212Y-125944959D01*
X199499033Y-125995139D01*
X199500000Y-126000000D01*
X199500000Y-127200000D01*
X199499032Y-127204863D01*
X199493212Y-127255040D01*
X199485641Y-127272185D01*
X199480970Y-127295671D01*
X199464169Y-127320815D01*
X199455391Y-127340696D01*
X199441812Y-127354274D01*
X199426777Y-127376777D01*
X199404274Y-127391812D01*
X199390696Y-127405391D01*
X199370815Y-127414169D01*
X199345671Y-127430970D01*
X199322185Y-127435641D01*
X199305040Y-127443212D01*
X199254861Y-127449032D01*
X199250000Y-127450000D01*
X197750000Y-127450000D01*
X197745138Y-127449032D01*
X197694959Y-127443212D01*
X197677812Y-127435641D01*
X197654329Y-127430970D01*
X197629186Y-127414170D01*
X197609303Y-127405391D01*
X197595722Y-127391810D01*
X197573223Y-127376777D01*
X197558189Y-127354277D01*
X197544608Y-127340696D01*
X197535827Y-127320810D01*
X197519030Y-127295671D01*
X197514359Y-127272189D01*
X197506787Y-127255040D01*
X197500964Y-127204849D01*
X197500000Y-127200000D01*
X197500000Y-126000000D01*
X197500964Y-125995150D01*
X197506787Y-125944959D01*
X197514359Y-125927808D01*
X197519030Y-125904329D01*
X197535826Y-125879191D01*
X197544608Y-125859303D01*
X197558191Y-125845719D01*
X197573223Y-125823223D01*
X197595719Y-125808191D01*
X197609303Y-125794608D01*
X197629191Y-125785826D01*
X197654329Y-125769030D01*
X197677808Y-125764359D01*
X197694959Y-125756787D01*
X197745151Y-125750964D01*
X197750000Y-125750000D01*
X199250000Y-125750000D01*
X199254850Y-125750964D01*
G37*
G36*
X175232228Y-124454448D02*
G01*
X175377117Y-124514463D01*
X175507515Y-124601592D01*
X175618408Y-124712485D01*
X175705537Y-124842883D01*
X175765552Y-124987772D01*
X175796148Y-125141586D01*
X175796148Y-125298414D01*
X175765552Y-125452228D01*
X175705537Y-125597117D01*
X175618408Y-125727515D01*
X175507515Y-125838408D01*
X175377117Y-125925537D01*
X175232228Y-125985552D01*
X175078414Y-126016148D01*
X174921586Y-126016148D01*
X174767772Y-125985552D01*
X174622883Y-125925537D01*
X174492485Y-125838408D01*
X174381592Y-125727515D01*
X174294463Y-125597117D01*
X174234448Y-125452228D01*
X174203852Y-125298414D01*
X174203852Y-125141586D01*
X174234448Y-124987772D01*
X174294463Y-124842883D01*
X174381592Y-124712485D01*
X174492485Y-124601592D01*
X174622883Y-124514463D01*
X174767772Y-124454448D01*
X174921586Y-124423852D01*
X175078414Y-124423852D01*
X175232228Y-124454448D01*
G37*
G36*
X177772228Y-124454448D02*
G01*
X177917117Y-124514463D01*
X178047515Y-124601592D01*
X178158408Y-124712485D01*
X178245537Y-124842883D01*
X178305552Y-124987772D01*
X178336148Y-125141586D01*
X178336148Y-125298414D01*
X178305552Y-125452228D01*
X178245537Y-125597117D01*
X178158408Y-125727515D01*
X178047515Y-125838408D01*
X177917117Y-125925537D01*
X177772228Y-125985552D01*
X177618414Y-126016148D01*
X177461586Y-126016148D01*
X177307772Y-125985552D01*
X177162883Y-125925537D01*
X177032485Y-125838408D01*
X176921592Y-125727515D01*
X176834463Y-125597117D01*
X176774448Y-125452228D01*
X176743852Y-125298414D01*
X176743852Y-125141586D01*
X176774448Y-124987772D01*
X176834463Y-124842883D01*
X176921592Y-124712485D01*
X177032485Y-124601592D01*
X177162883Y-124514463D01*
X177307772Y-124454448D01*
X177461586Y-124423852D01*
X177618414Y-124423852D01*
X177772228Y-124454448D01*
G37*
G36*
X180312228Y-124454448D02*
G01*
X180457117Y-124514463D01*
X180587515Y-124601592D01*
X180698408Y-124712485D01*
X180785537Y-124842883D01*
X180845552Y-124987772D01*
X180876148Y-125141586D01*
X180876148Y-125298414D01*
X180845552Y-125452228D01*
X180785537Y-125597117D01*
X180698408Y-125727515D01*
X180587515Y-125838408D01*
X180457117Y-125925537D01*
X180312228Y-125985552D01*
X180158414Y-126016148D01*
X180001586Y-126016148D01*
X179847772Y-125985552D01*
X179702883Y-125925537D01*
X179572485Y-125838408D01*
X179461592Y-125727515D01*
X179374463Y-125597117D01*
X179314448Y-125452228D01*
X179283852Y-125298414D01*
X179283852Y-125141586D01*
X179314448Y-124987772D01*
X179374463Y-124842883D01*
X179461592Y-124712485D01*
X179572485Y-124601592D01*
X179702883Y-124514463D01*
X179847772Y-124454448D01*
X180001586Y-124423852D01*
X180158414Y-124423852D01*
X180312228Y-124454448D01*
G37*
G36*
X182852228Y-124454448D02*
G01*
X182997117Y-124514463D01*
X183127515Y-124601592D01*
X183238408Y-124712485D01*
X183325537Y-124842883D01*
X183385552Y-124987772D01*
X183416148Y-125141586D01*
X183416148Y-125298414D01*
X183385552Y-125452228D01*
X183325537Y-125597117D01*
X183238408Y-125727515D01*
X183127515Y-125838408D01*
X182997117Y-125925537D01*
X182852228Y-125985552D01*
X182698414Y-126016148D01*
X182541586Y-126016148D01*
X182387772Y-125985552D01*
X182242883Y-125925537D01*
X182112485Y-125838408D01*
X182001592Y-125727515D01*
X181914463Y-125597117D01*
X181854448Y-125452228D01*
X181823852Y-125298414D01*
X181823852Y-125141586D01*
X181854448Y-124987772D01*
X181914463Y-124842883D01*
X182001592Y-124712485D01*
X182112485Y-124601592D01*
X182242883Y-124514463D01*
X182387772Y-124454448D01*
X182541586Y-124423852D01*
X182698414Y-124423852D01*
X182852228Y-124454448D01*
G37*
G36*
X185392228Y-124454448D02*
G01*
X185537117Y-124514463D01*
X185667515Y-124601592D01*
X185778408Y-124712485D01*
X185865537Y-124842883D01*
X185925552Y-124987772D01*
X185956148Y-125141586D01*
X185956148Y-125298414D01*
X185925552Y-125452228D01*
X185865537Y-125597117D01*
X185778408Y-125727515D01*
X185667515Y-125838408D01*
X185537117Y-125925537D01*
X185392228Y-125985552D01*
X185238414Y-126016148D01*
X185081586Y-126016148D01*
X184927772Y-125985552D01*
X184782883Y-125925537D01*
X184652485Y-125838408D01*
X184541592Y-125727515D01*
X184454463Y-125597117D01*
X184394448Y-125452228D01*
X184363852Y-125298414D01*
X184363852Y-125141586D01*
X184394448Y-124987772D01*
X184454463Y-124842883D01*
X184541592Y-124712485D01*
X184652485Y-124601592D01*
X184782883Y-124514463D01*
X184927772Y-124454448D01*
X185081586Y-124423852D01*
X185238414Y-124423852D01*
X185392228Y-124454448D01*
G37*
G36*
X187932228Y-124454448D02*
G01*
X188077117Y-124514463D01*
X188207515Y-124601592D01*
X188318408Y-124712485D01*
X188405537Y-124842883D01*
X188465552Y-124987772D01*
X188496148Y-125141586D01*
X188496148Y-125298414D01*
X188465552Y-125452228D01*
X188405537Y-125597117D01*
X188318408Y-125727515D01*
X188207515Y-125838408D01*
X188077117Y-125925537D01*
X187932228Y-125985552D01*
X187778414Y-126016148D01*
X187621586Y-126016148D01*
X187467772Y-125985552D01*
X187322883Y-125925537D01*
X187192485Y-125838408D01*
X187081592Y-125727515D01*
X186994463Y-125597117D01*
X186934448Y-125452228D01*
X186903852Y-125298414D01*
X186903852Y-125141586D01*
X186934448Y-124987772D01*
X186994463Y-124842883D01*
X187081592Y-124712485D01*
X187192485Y-124601592D01*
X187322883Y-124514463D01*
X187467772Y-124454448D01*
X187621586Y-124423852D01*
X187778414Y-124423852D01*
X187932228Y-124454448D01*
G37*
G36*
X190472228Y-124454448D02*
G01*
X190617117Y-124514463D01*
X190747515Y-124601592D01*
X190858408Y-124712485D01*
X190945537Y-124842883D01*
X191005552Y-124987772D01*
X191036148Y-125141586D01*
X191036148Y-125298414D01*
X191005552Y-125452228D01*
X190945537Y-125597117D01*
X190858408Y-125727515D01*
X190747515Y-125838408D01*
X190617117Y-125925537D01*
X190472228Y-125985552D01*
X190318414Y-126016148D01*
X190161586Y-126016148D01*
X190007772Y-125985552D01*
X189862883Y-125925537D01*
X189732485Y-125838408D01*
X189621592Y-125727515D01*
X189534463Y-125597117D01*
X189474448Y-125452228D01*
X189443852Y-125298414D01*
X189443852Y-125141586D01*
X189474448Y-124987772D01*
X189534463Y-124842883D01*
X189621592Y-124712485D01*
X189732485Y-124601592D01*
X189862883Y-124514463D01*
X190007772Y-124454448D01*
X190161586Y-124423852D01*
X190318414Y-124423852D01*
X190472228Y-124454448D01*
G37*
G36*
X121490285Y-122183060D02*
G01*
X121671397Y-122258079D01*
X121834393Y-122366990D01*
X121973010Y-122505607D01*
X122081921Y-122668603D01*
X122156940Y-122849715D01*
X122195185Y-123041983D01*
X122195185Y-123238017D01*
X122156940Y-123430285D01*
X122081921Y-123611397D01*
X121973010Y-123774393D01*
X121834393Y-123913010D01*
X121671397Y-124021921D01*
X121490285Y-124096940D01*
X121298017Y-124135185D01*
X121101983Y-124135185D01*
X120909715Y-124096940D01*
X120728603Y-124021921D01*
X120565607Y-123913010D01*
X120426990Y-123774393D01*
X120318079Y-123611397D01*
X120243060Y-123430285D01*
X120204815Y-123238017D01*
X120204815Y-123041983D01*
X120243060Y-122849715D01*
X120318079Y-122668603D01*
X120426990Y-122505607D01*
X120565607Y-122366990D01*
X120728603Y-122258079D01*
X120909715Y-122183060D01*
X121101983Y-122144815D01*
X121298017Y-122144815D01*
X121490285Y-122183060D01*
G37*
G36*
X121954850Y-119600964D02*
G01*
X122005040Y-119606787D01*
X122022189Y-119614359D01*
X122045671Y-119619030D01*
X122070810Y-119635827D01*
X122090696Y-119644608D01*
X122104277Y-119658189D01*
X122126777Y-119673223D01*
X122141810Y-119695722D01*
X122155391Y-119709303D01*
X122164170Y-119729186D01*
X122180970Y-119754329D01*
X122185641Y-119777812D01*
X122193212Y-119794959D01*
X122199033Y-119845139D01*
X122200000Y-119850000D01*
X122200000Y-121350000D01*
X122199032Y-121354863D01*
X122193212Y-121405040D01*
X122185641Y-121422185D01*
X122180970Y-121445671D01*
X122164169Y-121470815D01*
X122155391Y-121490696D01*
X122141812Y-121504274D01*
X122126777Y-121526777D01*
X122104274Y-121541812D01*
X122090696Y-121555391D01*
X122070815Y-121564169D01*
X122045671Y-121580970D01*
X122022185Y-121585641D01*
X122005040Y-121593212D01*
X121954861Y-121599032D01*
X121950000Y-121600000D01*
X120450000Y-121600000D01*
X120445138Y-121599032D01*
X120394959Y-121593212D01*
X120377812Y-121585641D01*
X120354329Y-121580970D01*
X120329186Y-121564170D01*
X120309303Y-121555391D01*
X120295722Y-121541810D01*
X120273223Y-121526777D01*
X120258189Y-121504277D01*
X120244608Y-121490696D01*
X120235827Y-121470810D01*
X120219030Y-121445671D01*
X120214359Y-121422189D01*
X120206787Y-121405040D01*
X120200964Y-121354849D01*
X120200000Y-121350000D01*
X120200000Y-119850000D01*
X120200964Y-119845150D01*
X120206787Y-119794959D01*
X120214359Y-119777808D01*
X120219030Y-119754329D01*
X120235826Y-119729191D01*
X120244608Y-119709303D01*
X120258191Y-119695719D01*
X120273223Y-119673223D01*
X120295719Y-119658191D01*
X120309303Y-119644608D01*
X120329191Y-119635826D01*
X120354329Y-119619030D01*
X120377808Y-119614359D01*
X120394959Y-119606787D01*
X120445151Y-119600964D01*
X120450000Y-119600000D01*
X121950000Y-119600000D01*
X121954850Y-119600964D01*
G37*
G36*
X157832228Y-119914448D02*
G01*
X157977117Y-119974463D01*
X158107515Y-120061592D01*
X158218408Y-120172485D01*
X158305537Y-120302883D01*
X158365552Y-120447772D01*
X158396148Y-120601586D01*
X158396148Y-120758414D01*
X158365552Y-120912228D01*
X158305537Y-121057117D01*
X158218408Y-121187515D01*
X158107515Y-121298408D01*
X157977117Y-121385537D01*
X157832228Y-121445552D01*
X157678414Y-121476148D01*
X157521586Y-121476148D01*
X157367772Y-121445552D01*
X157222883Y-121385537D01*
X157092485Y-121298408D01*
X156981592Y-121187515D01*
X156894463Y-121057117D01*
X156834448Y-120912228D01*
X156803852Y-120758414D01*
X156803852Y-120601586D01*
X156834448Y-120447772D01*
X156894463Y-120302883D01*
X156981592Y-120172485D01*
X157092485Y-120061592D01*
X157222883Y-119974463D01*
X157367772Y-119914448D01*
X157521586Y-119883852D01*
X157678414Y-119883852D01*
X157832228Y-119914448D01*
G37*
G36*
X162532228Y-119824448D02*
G01*
X162677117Y-119884463D01*
X162807515Y-119971592D01*
X162918408Y-120082485D01*
X163005537Y-120212883D01*
X163065552Y-120357772D01*
X163096148Y-120511586D01*
X163096148Y-120668414D01*
X163065552Y-120822228D01*
X163005537Y-120967117D01*
X162918408Y-121097515D01*
X162807515Y-121208408D01*
X162677117Y-121295537D01*
X162532228Y-121355552D01*
X162378414Y-121386148D01*
X162221586Y-121386148D01*
X162067772Y-121355552D01*
X161922883Y-121295537D01*
X161792485Y-121208408D01*
X161681592Y-121097515D01*
X161594463Y-120967117D01*
X161534448Y-120822228D01*
X161503852Y-120668414D01*
X161503852Y-120511586D01*
X161534448Y-120357772D01*
X161594463Y-120212883D01*
X161681592Y-120082485D01*
X161792485Y-119971592D01*
X161922883Y-119884463D01*
X162067772Y-119824448D01*
X162221586Y-119793852D01*
X162378414Y-119793852D01*
X162532228Y-119824448D01*
G37*
G36*
X148332228Y-119814448D02*
G01*
X148477117Y-119874463D01*
X148607515Y-119961592D01*
X148718408Y-120072485D01*
X148805537Y-120202883D01*
X148865552Y-120347772D01*
X148896148Y-120501586D01*
X148896148Y-120658414D01*
X148865552Y-120812228D01*
X148805537Y-120957117D01*
X148718408Y-121087515D01*
X148607515Y-121198408D01*
X148477117Y-121285537D01*
X148332228Y-121345552D01*
X148178414Y-121376148D01*
X148021586Y-121376148D01*
X147867772Y-121345552D01*
X147722883Y-121285537D01*
X147592485Y-121198408D01*
X147481592Y-121087515D01*
X147394463Y-120957117D01*
X147334448Y-120812228D01*
X147303852Y-120658414D01*
X147303852Y-120501586D01*
X147334448Y-120347772D01*
X147394463Y-120202883D01*
X147481592Y-120072485D01*
X147592485Y-119961592D01*
X147722883Y-119874463D01*
X147867772Y-119814448D01*
X148021586Y-119783852D01*
X148178414Y-119783852D01*
X148332228Y-119814448D01*
G37*
G36*
X167732228Y-119814448D02*
G01*
X167877117Y-119874463D01*
X168007515Y-119961592D01*
X168118408Y-120072485D01*
X168205537Y-120202883D01*
X168265552Y-120347772D01*
X168296148Y-120501586D01*
X168296148Y-120658414D01*
X168265552Y-120812228D01*
X168205537Y-120957117D01*
X168118408Y-121087515D01*
X168007515Y-121198408D01*
X167877117Y-121285537D01*
X167732228Y-121345552D01*
X167578414Y-121376148D01*
X167421586Y-121376148D01*
X167267772Y-121345552D01*
X167122883Y-121285537D01*
X166992485Y-121198408D01*
X166881592Y-121087515D01*
X166794463Y-120957117D01*
X166734448Y-120812228D01*
X166703852Y-120658414D01*
X166703852Y-120501586D01*
X166734448Y-120347772D01*
X166794463Y-120202883D01*
X166881592Y-120072485D01*
X166992485Y-119961592D01*
X167122883Y-119874463D01*
X167267772Y-119814448D01*
X167421586Y-119783852D01*
X167578414Y-119783852D01*
X167732228Y-119814448D01*
G37*
G36*
X153132228Y-119734448D02*
G01*
X153277117Y-119794463D01*
X153407515Y-119881592D01*
X153518408Y-119992485D01*
X153605537Y-120122883D01*
X153665552Y-120267772D01*
X153696148Y-120421586D01*
X153696148Y-120578414D01*
X153665552Y-120732228D01*
X153605537Y-120877117D01*
X153518408Y-121007515D01*
X153407515Y-121118408D01*
X153277117Y-121205537D01*
X153132228Y-121265552D01*
X152978414Y-121296148D01*
X152821586Y-121296148D01*
X152667772Y-121265552D01*
X152522883Y-121205537D01*
X152392485Y-121118408D01*
X152281592Y-121007515D01*
X152194463Y-120877117D01*
X152134448Y-120732228D01*
X152103852Y-120578414D01*
X152103852Y-120421586D01*
X152134448Y-120267772D01*
X152194463Y-120122883D01*
X152281592Y-119992485D01*
X152392485Y-119881592D01*
X152522883Y-119794463D01*
X152667772Y-119734448D01*
X152821586Y-119703852D01*
X152978414Y-119703852D01*
X153132228Y-119734448D01*
G37*
G36*
X199010013Y-119107668D02*
G01*
X199010014Y-119107668D01*
X199010016Y-119107669D01*
X199141048Y-119161944D01*
X199258973Y-119240739D01*
X199359261Y-119341027D01*
X199438056Y-119458952D01*
X199492331Y-119589984D01*
X199520000Y-119729086D01*
X199520000Y-119870914D01*
X199492331Y-120010016D01*
X199438056Y-120141048D01*
X199359261Y-120258973D01*
X199258973Y-120359261D01*
X199141048Y-120438056D01*
X199010016Y-120492331D01*
X198913214Y-120511586D01*
X198870915Y-120520000D01*
X198870914Y-120520000D01*
X198729086Y-120520000D01*
X198729085Y-120520000D01*
X198682718Y-120510777D01*
X198589984Y-120492331D01*
X198458952Y-120438056D01*
X198341027Y-120359261D01*
X198240739Y-120258973D01*
X198161944Y-120141048D01*
X198107669Y-120010016D01*
X198082573Y-119883852D01*
X198080000Y-119870914D01*
X198080000Y-119729085D01*
X198107668Y-119589986D01*
X198161945Y-119458950D01*
X198240737Y-119341029D01*
X198341029Y-119240737D01*
X198458950Y-119161945D01*
X198589986Y-119107668D01*
X198729085Y-119080000D01*
X198870915Y-119080000D01*
X199010013Y-119107668D01*
G37*
G36*
X190794850Y-116800964D02*
G01*
X190845040Y-116806787D01*
X190862189Y-116814359D01*
X190885671Y-116819030D01*
X190910810Y-116835827D01*
X190930696Y-116844608D01*
X190944277Y-116858189D01*
X190966777Y-116873223D01*
X190981810Y-116895722D01*
X190995391Y-116909303D01*
X191004170Y-116929186D01*
X191020970Y-116954329D01*
X191025641Y-116977812D01*
X191033212Y-116994959D01*
X191039033Y-117045139D01*
X191040000Y-117050000D01*
X191040000Y-118150000D01*
X191039032Y-118154863D01*
X191033212Y-118205040D01*
X191025641Y-118222185D01*
X191020970Y-118245671D01*
X191004169Y-118270815D01*
X190995391Y-118290696D01*
X190981812Y-118304274D01*
X190966777Y-118326777D01*
X190944274Y-118341812D01*
X190930696Y-118355391D01*
X190910815Y-118364169D01*
X190885671Y-118380970D01*
X190862185Y-118385641D01*
X190845040Y-118393212D01*
X190794861Y-118399032D01*
X190790000Y-118400000D01*
X189690000Y-118400000D01*
X189685138Y-118399032D01*
X189634959Y-118393212D01*
X189617812Y-118385641D01*
X189594329Y-118380970D01*
X189569186Y-118364170D01*
X189549303Y-118355391D01*
X189535722Y-118341810D01*
X189513223Y-118326777D01*
X189498189Y-118304277D01*
X189484608Y-118290696D01*
X189475827Y-118270810D01*
X189459030Y-118245671D01*
X189454359Y-118222189D01*
X189446787Y-118205040D01*
X189440964Y-118154849D01*
X189440000Y-118150000D01*
X189440000Y-117050000D01*
X189440964Y-117045150D01*
X189446787Y-116994959D01*
X189454359Y-116977808D01*
X189459030Y-116954329D01*
X189475826Y-116929191D01*
X189484608Y-116909303D01*
X189498191Y-116895719D01*
X189513223Y-116873223D01*
X189535719Y-116858191D01*
X189549303Y-116844608D01*
X189569191Y-116835826D01*
X189594329Y-116819030D01*
X189617808Y-116814359D01*
X189634959Y-116806787D01*
X189685151Y-116800964D01*
X189690000Y-116800000D01*
X190790000Y-116800000D01*
X190794850Y-116800964D01*
G37*
G36*
X175232228Y-116834448D02*
G01*
X175377117Y-116894463D01*
X175507515Y-116981592D01*
X175618408Y-117092485D01*
X175705537Y-117222883D01*
X175765552Y-117367772D01*
X175796148Y-117521586D01*
X175796148Y-117678414D01*
X175765552Y-117832228D01*
X175705537Y-117977117D01*
X175618408Y-118107515D01*
X175507515Y-118218408D01*
X175377117Y-118305537D01*
X175232228Y-118365552D01*
X175078414Y-118396148D01*
X174921586Y-118396148D01*
X174767772Y-118365552D01*
X174622883Y-118305537D01*
X174492485Y-118218408D01*
X174381592Y-118107515D01*
X174294463Y-117977117D01*
X174234448Y-117832228D01*
X174203852Y-117678414D01*
X174203852Y-117521586D01*
X174234448Y-117367772D01*
X174294463Y-117222883D01*
X174381592Y-117092485D01*
X174492485Y-116981592D01*
X174622883Y-116894463D01*
X174767772Y-116834448D01*
X174921586Y-116803852D01*
X175078414Y-116803852D01*
X175232228Y-116834448D01*
G37*
G36*
X177772228Y-116834448D02*
G01*
X177917117Y-116894463D01*
X178047515Y-116981592D01*
X178158408Y-117092485D01*
X178245537Y-117222883D01*
X178305552Y-117367772D01*
X178336148Y-117521586D01*
X178336148Y-117678414D01*
X178305552Y-117832228D01*
X178245537Y-117977117D01*
X178158408Y-118107515D01*
X178047515Y-118218408D01*
X177917117Y-118305537D01*
X177772228Y-118365552D01*
X177618414Y-118396148D01*
X177461586Y-118396148D01*
X177307772Y-118365552D01*
X177162883Y-118305537D01*
X177032485Y-118218408D01*
X176921592Y-118107515D01*
X176834463Y-117977117D01*
X176774448Y-117832228D01*
X176743852Y-117678414D01*
X176743852Y-117521586D01*
X176774448Y-117367772D01*
X176834463Y-117222883D01*
X176921592Y-117092485D01*
X177032485Y-116981592D01*
X177162883Y-116894463D01*
X177307772Y-116834448D01*
X177461586Y-116803852D01*
X177618414Y-116803852D01*
X177772228Y-116834448D01*
G37*
G36*
X180312228Y-116834448D02*
G01*
X180457117Y-116894463D01*
X180587515Y-116981592D01*
X180698408Y-117092485D01*
X180785537Y-117222883D01*
X180845552Y-117367772D01*
X180876148Y-117521586D01*
X180876148Y-117678414D01*
X180845552Y-117832228D01*
X180785537Y-117977117D01*
X180698408Y-118107515D01*
X180587515Y-118218408D01*
X180457117Y-118305537D01*
X180312228Y-118365552D01*
X180158414Y-118396148D01*
X180001586Y-118396148D01*
X179847772Y-118365552D01*
X179702883Y-118305537D01*
X179572485Y-118218408D01*
X179461592Y-118107515D01*
X179374463Y-117977117D01*
X179314448Y-117832228D01*
X179283852Y-117678414D01*
X179283852Y-117521586D01*
X179314448Y-117367772D01*
X179374463Y-117222883D01*
X179461592Y-117092485D01*
X179572485Y-116981592D01*
X179702883Y-116894463D01*
X179847772Y-116834448D01*
X180001586Y-116803852D01*
X180158414Y-116803852D01*
X180312228Y-116834448D01*
G37*
G36*
X182852228Y-116834448D02*
G01*
X182997117Y-116894463D01*
X183127515Y-116981592D01*
X183238408Y-117092485D01*
X183325537Y-117222883D01*
X183385552Y-117367772D01*
X183416148Y-117521586D01*
X183416148Y-117678414D01*
X183385552Y-117832228D01*
X183325537Y-117977117D01*
X183238408Y-118107515D01*
X183127515Y-118218408D01*
X182997117Y-118305537D01*
X182852228Y-118365552D01*
X182698414Y-118396148D01*
X182541586Y-118396148D01*
X182387772Y-118365552D01*
X182242883Y-118305537D01*
X182112485Y-118218408D01*
X182001592Y-118107515D01*
X181914463Y-117977117D01*
X181854448Y-117832228D01*
X181823852Y-117678414D01*
X181823852Y-117521586D01*
X181854448Y-117367772D01*
X181914463Y-117222883D01*
X182001592Y-117092485D01*
X182112485Y-116981592D01*
X182242883Y-116894463D01*
X182387772Y-116834448D01*
X182541586Y-116803852D01*
X182698414Y-116803852D01*
X182852228Y-116834448D01*
G37*
G36*
X185392228Y-116834448D02*
G01*
X185537117Y-116894463D01*
X185667515Y-116981592D01*
X185778408Y-117092485D01*
X185865537Y-117222883D01*
X185925552Y-117367772D01*
X185956148Y-117521586D01*
X185956148Y-117678414D01*
X185925552Y-117832228D01*
X185865537Y-117977117D01*
X185778408Y-118107515D01*
X185667515Y-118218408D01*
X185537117Y-118305537D01*
X185392228Y-118365552D01*
X185238414Y-118396148D01*
X185081586Y-118396148D01*
X184927772Y-118365552D01*
X184782883Y-118305537D01*
X184652485Y-118218408D01*
X184541592Y-118107515D01*
X184454463Y-117977117D01*
X184394448Y-117832228D01*
X184363852Y-117678414D01*
X184363852Y-117521586D01*
X184394448Y-117367772D01*
X184454463Y-117222883D01*
X184541592Y-117092485D01*
X184652485Y-116981592D01*
X184782883Y-116894463D01*
X184927772Y-116834448D01*
X185081586Y-116803852D01*
X185238414Y-116803852D01*
X185392228Y-116834448D01*
G37*
G36*
X187932228Y-116834448D02*
G01*
X188077117Y-116894463D01*
X188207515Y-116981592D01*
X188318408Y-117092485D01*
X188405537Y-117222883D01*
X188465552Y-117367772D01*
X188496148Y-117521586D01*
X188496148Y-117678414D01*
X188465552Y-117832228D01*
X188405537Y-117977117D01*
X188318408Y-118107515D01*
X188207515Y-118218408D01*
X188077117Y-118305537D01*
X187932228Y-118365552D01*
X187778414Y-118396148D01*
X187621586Y-118396148D01*
X187467772Y-118365552D01*
X187322883Y-118305537D01*
X187192485Y-118218408D01*
X187081592Y-118107515D01*
X186994463Y-117977117D01*
X186934448Y-117832228D01*
X186903852Y-117678414D01*
X186903852Y-117521586D01*
X186934448Y-117367772D01*
X186994463Y-117222883D01*
X187081592Y-117092485D01*
X187192485Y-116981592D01*
X187322883Y-116894463D01*
X187467772Y-116834448D01*
X187621586Y-116803852D01*
X187778414Y-116803852D01*
X187932228Y-116834448D01*
G37*
G36*
X199010013Y-116567668D02*
G01*
X199010014Y-116567668D01*
X199010016Y-116567669D01*
X199141048Y-116621944D01*
X199258973Y-116700739D01*
X199359261Y-116801027D01*
X199438056Y-116918952D01*
X199492331Y-117049984D01*
X199520000Y-117189086D01*
X199520000Y-117330914D01*
X199492331Y-117470016D01*
X199438056Y-117601048D01*
X199359261Y-117718973D01*
X199258973Y-117819261D01*
X199141048Y-117898056D01*
X199010016Y-117952331D01*
X198905689Y-117973082D01*
X198870915Y-117980000D01*
X198870914Y-117980000D01*
X198729086Y-117980000D01*
X198729085Y-117980000D01*
X198682718Y-117970777D01*
X198589984Y-117952331D01*
X198458952Y-117898056D01*
X198341027Y-117819261D01*
X198240739Y-117718973D01*
X198161944Y-117601048D01*
X198107669Y-117470016D01*
X198087348Y-117367858D01*
X198080000Y-117330914D01*
X198080000Y-117189085D01*
X198107668Y-117049986D01*
X198134806Y-116984468D01*
X198161944Y-116918952D01*
X198218223Y-116834724D01*
X198240737Y-116801029D01*
X198341029Y-116700737D01*
X198458950Y-116621945D01*
X198589986Y-116567668D01*
X198729085Y-116540000D01*
X198870915Y-116540000D01*
X199010013Y-116567668D01*
G37*
G36*
X121490285Y-115143060D02*
G01*
X121671397Y-115218079D01*
X121834393Y-115326990D01*
X121973010Y-115465607D01*
X122081921Y-115628603D01*
X122156940Y-115809715D01*
X122195185Y-116001983D01*
X122195185Y-116198017D01*
X122156940Y-116390285D01*
X122081921Y-116571397D01*
X121973010Y-116734393D01*
X121834393Y-116873010D01*
X121671397Y-116981921D01*
X121490285Y-117056940D01*
X121298017Y-117095185D01*
X121101983Y-117095185D01*
X120909715Y-117056940D01*
X120728603Y-116981921D01*
X120565607Y-116873010D01*
X120426990Y-116734393D01*
X120318079Y-116571397D01*
X120243060Y-116390285D01*
X120204815Y-116198017D01*
X120204815Y-116001983D01*
X120243060Y-115809715D01*
X120318079Y-115628603D01*
X120426990Y-115465607D01*
X120565607Y-115326990D01*
X120728603Y-115218079D01*
X120909715Y-115143060D01*
X121101983Y-115104815D01*
X121298017Y-115104815D01*
X121490285Y-115143060D01*
G37*
G36*
X199010013Y-114027668D02*
G01*
X199010014Y-114027668D01*
X199010016Y-114027669D01*
X199141048Y-114081944D01*
X199258973Y-114160739D01*
X199359261Y-114261027D01*
X199438056Y-114378952D01*
X199492331Y-114509984D01*
X199520000Y-114649086D01*
X199520000Y-114790914D01*
X199492331Y-114930016D01*
X199438056Y-115061048D01*
X199359261Y-115178973D01*
X199258973Y-115279261D01*
X199141048Y-115358056D01*
X199010016Y-115412331D01*
X198905689Y-115433082D01*
X198870915Y-115440000D01*
X198870914Y-115440000D01*
X198729086Y-115440000D01*
X198729085Y-115440000D01*
X198682718Y-115430777D01*
X198589984Y-115412331D01*
X198458952Y-115358056D01*
X198341027Y-115279261D01*
X198240739Y-115178973D01*
X198161944Y-115061048D01*
X198107669Y-114930016D01*
X198080000Y-114790914D01*
X198080000Y-114649086D01*
X198080000Y-114649085D01*
X198107668Y-114509986D01*
X198161945Y-114378950D01*
X198240737Y-114261029D01*
X198341029Y-114160737D01*
X198458950Y-114081945D01*
X198589986Y-114027668D01*
X198729085Y-114000000D01*
X198870915Y-114000000D01*
X199010013Y-114027668D01*
G37*
G36*
X175232228Y-113054448D02*
G01*
X175377117Y-113114463D01*
X175507515Y-113201592D01*
X175618408Y-113312485D01*
X175705537Y-113442883D01*
X175765552Y-113587772D01*
X175796148Y-113741586D01*
X175796148Y-113898414D01*
X175765552Y-114052228D01*
X175705537Y-114197117D01*
X175618408Y-114327515D01*
X175507515Y-114438408D01*
X175377117Y-114525537D01*
X175232228Y-114585552D01*
X175078414Y-114616148D01*
X174921586Y-114616148D01*
X174767772Y-114585552D01*
X174622883Y-114525537D01*
X174492485Y-114438408D01*
X174381592Y-114327515D01*
X174294463Y-114197117D01*
X174234448Y-114052228D01*
X174203852Y-113898414D01*
X174203852Y-113741586D01*
X174234448Y-113587772D01*
X174294463Y-113442883D01*
X174381592Y-113312485D01*
X174492485Y-113201592D01*
X174622883Y-113114463D01*
X174767772Y-113054448D01*
X174921586Y-113023852D01*
X175078414Y-113023852D01*
X175232228Y-113054448D01*
G37*
G36*
X177772228Y-113054448D02*
G01*
X177917117Y-113114463D01*
X178047515Y-113201592D01*
X178158408Y-113312485D01*
X178245537Y-113442883D01*
X178305552Y-113587772D01*
X178336148Y-113741586D01*
X178336148Y-113898414D01*
X178305552Y-114052228D01*
X178245537Y-114197117D01*
X178158408Y-114327515D01*
X178047515Y-114438408D01*
X177917117Y-114525537D01*
X177772228Y-114585552D01*
X177618414Y-114616148D01*
X177461586Y-114616148D01*
X177307772Y-114585552D01*
X177162883Y-114525537D01*
X177032485Y-114438408D01*
X176921592Y-114327515D01*
X176834463Y-114197117D01*
X176774448Y-114052228D01*
X176743852Y-113898414D01*
X176743852Y-113741586D01*
X176774448Y-113587772D01*
X176834463Y-113442883D01*
X176921592Y-113312485D01*
X177032485Y-113201592D01*
X177162883Y-113114463D01*
X177307772Y-113054448D01*
X177461586Y-113023852D01*
X177618414Y-113023852D01*
X177772228Y-113054448D01*
G37*
G36*
X180312228Y-113054448D02*
G01*
X180457117Y-113114463D01*
X180587515Y-113201592D01*
X180698408Y-113312485D01*
X180785537Y-113442883D01*
X180845552Y-113587772D01*
X180876148Y-113741586D01*
X180876148Y-113898414D01*
X180845552Y-114052228D01*
X180785537Y-114197117D01*
X180698408Y-114327515D01*
X180587515Y-114438408D01*
X180457117Y-114525537D01*
X180312228Y-114585552D01*
X180158414Y-114616148D01*
X180001586Y-114616148D01*
X179847772Y-114585552D01*
X179702883Y-114525537D01*
X179572485Y-114438408D01*
X179461592Y-114327515D01*
X179374463Y-114197117D01*
X179314448Y-114052228D01*
X179283852Y-113898414D01*
X179283852Y-113741586D01*
X179314448Y-113587772D01*
X179374463Y-113442883D01*
X179461592Y-113312485D01*
X179572485Y-113201592D01*
X179702883Y-113114463D01*
X179847772Y-113054448D01*
X180001586Y-113023852D01*
X180158414Y-113023852D01*
X180312228Y-113054448D01*
G37*
G36*
X182852228Y-113054448D02*
G01*
X182997117Y-113114463D01*
X183127515Y-113201592D01*
X183238408Y-113312485D01*
X183325537Y-113442883D01*
X183385552Y-113587772D01*
X183416148Y-113741586D01*
X183416148Y-113898414D01*
X183385552Y-114052228D01*
X183325537Y-114197117D01*
X183238408Y-114327515D01*
X183127515Y-114438408D01*
X182997117Y-114525537D01*
X182852228Y-114585552D01*
X182698414Y-114616148D01*
X182541586Y-114616148D01*
X182387772Y-114585552D01*
X182242883Y-114525537D01*
X182112485Y-114438408D01*
X182001592Y-114327515D01*
X181914463Y-114197117D01*
X181854448Y-114052228D01*
X181823852Y-113898414D01*
X181823852Y-113741586D01*
X181854448Y-113587772D01*
X181914463Y-113442883D01*
X182001592Y-113312485D01*
X182112485Y-113201592D01*
X182242883Y-113114463D01*
X182387772Y-113054448D01*
X182541586Y-113023852D01*
X182698414Y-113023852D01*
X182852228Y-113054448D01*
G37*
G36*
X185392228Y-113054448D02*
G01*
X185537117Y-113114463D01*
X185667515Y-113201592D01*
X185778408Y-113312485D01*
X185865537Y-113442883D01*
X185925552Y-113587772D01*
X185956148Y-113741586D01*
X185956148Y-113898414D01*
X185925552Y-114052228D01*
X185865537Y-114197117D01*
X185778408Y-114327515D01*
X185667515Y-114438408D01*
X185537117Y-114525537D01*
X185392228Y-114585552D01*
X185238414Y-114616148D01*
X185081586Y-114616148D01*
X184927772Y-114585552D01*
X184782883Y-114525537D01*
X184652485Y-114438408D01*
X184541592Y-114327515D01*
X184454463Y-114197117D01*
X184394448Y-114052228D01*
X184363852Y-113898414D01*
X184363852Y-113741586D01*
X184394448Y-113587772D01*
X184454463Y-113442883D01*
X184541592Y-113312485D01*
X184652485Y-113201592D01*
X184782883Y-113114463D01*
X184927772Y-113054448D01*
X185081586Y-113023852D01*
X185238414Y-113023852D01*
X185392228Y-113054448D01*
G37*
G36*
X187932228Y-113054448D02*
G01*
X188077117Y-113114463D01*
X188207515Y-113201592D01*
X188318408Y-113312485D01*
X188405537Y-113442883D01*
X188465552Y-113587772D01*
X188496148Y-113741586D01*
X188496148Y-113898414D01*
X188465552Y-114052228D01*
X188405537Y-114197117D01*
X188318408Y-114327515D01*
X188207515Y-114438408D01*
X188077117Y-114525537D01*
X187932228Y-114585552D01*
X187778414Y-114616148D01*
X187621586Y-114616148D01*
X187467772Y-114585552D01*
X187322883Y-114525537D01*
X187192485Y-114438408D01*
X187081592Y-114327515D01*
X186994463Y-114197117D01*
X186934448Y-114052228D01*
X186903852Y-113898414D01*
X186903852Y-113741586D01*
X186934448Y-113587772D01*
X186994463Y-113442883D01*
X187081592Y-113312485D01*
X187192485Y-113201592D01*
X187322883Y-113114463D01*
X187467772Y-113054448D01*
X187621586Y-113023852D01*
X187778414Y-113023852D01*
X187932228Y-113054448D01*
G37*
G36*
X190472228Y-113054448D02*
G01*
X190617117Y-113114463D01*
X190747515Y-113201592D01*
X190858408Y-113312485D01*
X190945537Y-113442883D01*
X191005552Y-113587772D01*
X191036148Y-113741586D01*
X191036148Y-113898414D01*
X191005552Y-114052228D01*
X190945537Y-114197117D01*
X190858408Y-114327515D01*
X190747515Y-114438408D01*
X190617117Y-114525537D01*
X190472228Y-114585552D01*
X190318414Y-114616148D01*
X190161586Y-114616148D01*
X190007772Y-114585552D01*
X189862883Y-114525537D01*
X189732485Y-114438408D01*
X189621592Y-114327515D01*
X189534463Y-114197117D01*
X189474448Y-114052228D01*
X189443852Y-113898414D01*
X189443852Y-113741586D01*
X189474448Y-113587772D01*
X189534463Y-113442883D01*
X189621592Y-113312485D01*
X189732485Y-113201592D01*
X189862883Y-113114463D01*
X190007772Y-113054448D01*
X190161586Y-113023852D01*
X190318414Y-113023852D01*
X190472228Y-113054448D01*
G37*
G36*
X121954850Y-112560964D02*
G01*
X122005040Y-112566787D01*
X122022189Y-112574359D01*
X122045671Y-112579030D01*
X122070810Y-112595827D01*
X122090696Y-112604608D01*
X122104277Y-112618189D01*
X122126777Y-112633223D01*
X122141810Y-112655722D01*
X122155391Y-112669303D01*
X122164170Y-112689186D01*
X122180970Y-112714329D01*
X122185641Y-112737812D01*
X122193212Y-112754959D01*
X122199033Y-112805139D01*
X122200000Y-112810000D01*
X122200000Y-114310000D01*
X122199032Y-114314863D01*
X122193212Y-114365040D01*
X122185641Y-114382185D01*
X122180970Y-114405671D01*
X122164169Y-114430815D01*
X122155391Y-114450696D01*
X122141812Y-114464274D01*
X122126777Y-114486777D01*
X122104274Y-114501812D01*
X122090696Y-114515391D01*
X122070815Y-114524169D01*
X122045671Y-114540970D01*
X122022185Y-114545641D01*
X122005040Y-114553212D01*
X121954861Y-114559032D01*
X121950000Y-114560000D01*
X120450000Y-114560000D01*
X120445138Y-114559032D01*
X120394959Y-114553212D01*
X120377812Y-114545641D01*
X120354329Y-114540970D01*
X120329186Y-114524170D01*
X120309303Y-114515391D01*
X120295722Y-114501810D01*
X120273223Y-114486777D01*
X120258189Y-114464277D01*
X120244608Y-114450696D01*
X120235827Y-114430810D01*
X120219030Y-114405671D01*
X120214359Y-114382189D01*
X120206787Y-114365040D01*
X120200964Y-114314849D01*
X120200000Y-114310000D01*
X120200000Y-112810000D01*
X120200964Y-112805150D01*
X120206787Y-112754959D01*
X120214359Y-112737808D01*
X120219030Y-112714329D01*
X120235826Y-112689191D01*
X120244608Y-112669303D01*
X120258191Y-112655719D01*
X120273223Y-112633223D01*
X120295719Y-112618191D01*
X120309303Y-112604608D01*
X120329191Y-112595826D01*
X120354329Y-112579030D01*
X120377808Y-112574359D01*
X120394959Y-112566787D01*
X120445151Y-112560964D01*
X120450000Y-112560000D01*
X121950000Y-112560000D01*
X121954850Y-112560964D01*
G37*
G36*
X121490285Y-108443060D02*
G01*
X121671397Y-108518079D01*
X121834393Y-108626990D01*
X121973010Y-108765607D01*
X122081921Y-108928603D01*
X122156940Y-109109715D01*
X122195185Y-109301983D01*
X122195185Y-109498017D01*
X122156940Y-109690285D01*
X122081921Y-109871397D01*
X121973010Y-110034393D01*
X121834393Y-110173010D01*
X121671397Y-110281921D01*
X121490285Y-110356940D01*
X121298017Y-110395185D01*
X121101983Y-110395185D01*
X120909715Y-110356940D01*
X120728603Y-110281921D01*
X120565607Y-110173010D01*
X120426990Y-110034393D01*
X120318079Y-109871397D01*
X120243060Y-109690285D01*
X120204815Y-109498017D01*
X120204815Y-109301983D01*
X120243060Y-109109715D01*
X120318079Y-108928603D01*
X120426990Y-108765607D01*
X120565607Y-108626990D01*
X120728603Y-108518079D01*
X120909715Y-108443060D01*
X121101983Y-108404815D01*
X121298017Y-108404815D01*
X121490285Y-108443060D01*
G37*
G36*
X121954850Y-105860964D02*
G01*
X122005040Y-105866787D01*
X122022189Y-105874359D01*
X122045671Y-105879030D01*
X122070810Y-105895827D01*
X122090696Y-105904608D01*
X122104277Y-105918189D01*
X122126777Y-105933223D01*
X122141810Y-105955722D01*
X122155391Y-105969303D01*
X122164170Y-105989186D01*
X122180970Y-106014329D01*
X122185641Y-106037812D01*
X122193212Y-106054959D01*
X122199033Y-106105139D01*
X122200000Y-106110000D01*
X122200000Y-107610000D01*
X122199032Y-107614863D01*
X122193212Y-107665040D01*
X122185641Y-107682185D01*
X122180970Y-107705671D01*
X122164169Y-107730815D01*
X122155391Y-107750696D01*
X122141812Y-107764274D01*
X122126777Y-107786777D01*
X122104274Y-107801812D01*
X122090696Y-107815391D01*
X122070815Y-107824169D01*
X122045671Y-107840970D01*
X122022185Y-107845641D01*
X122005040Y-107853212D01*
X121954861Y-107859032D01*
X121950000Y-107860000D01*
X120450000Y-107860000D01*
X120445138Y-107859032D01*
X120394959Y-107853212D01*
X120377812Y-107845641D01*
X120354329Y-107840970D01*
X120329186Y-107824170D01*
X120309303Y-107815391D01*
X120295722Y-107801810D01*
X120273223Y-107786777D01*
X120258189Y-107764277D01*
X120244608Y-107750696D01*
X120235827Y-107730810D01*
X120219030Y-107705671D01*
X120214359Y-107682189D01*
X120206787Y-107665040D01*
X120200964Y-107614849D01*
X120200000Y-107610000D01*
X120200000Y-106110000D01*
X120200964Y-106105150D01*
X120206787Y-106054959D01*
X120214359Y-106037808D01*
X120219030Y-106014329D01*
X120235826Y-105989191D01*
X120244608Y-105969303D01*
X120258191Y-105955719D01*
X120273223Y-105933223D01*
X120295719Y-105918191D01*
X120309303Y-105904608D01*
X120329191Y-105895826D01*
X120354329Y-105879030D01*
X120377808Y-105874359D01*
X120394959Y-105866787D01*
X120445151Y-105860964D01*
X120450000Y-105860000D01*
X121950000Y-105860000D01*
X121954850Y-105860964D01*
G37*
G36*
X190794850Y-105400964D02*
G01*
X190845040Y-105406787D01*
X190862189Y-105414359D01*
X190885671Y-105419030D01*
X190910810Y-105435827D01*
X190930696Y-105444608D01*
X190944277Y-105458189D01*
X190966777Y-105473223D01*
X190981810Y-105495722D01*
X190995391Y-105509303D01*
X191004170Y-105529186D01*
X191020970Y-105554329D01*
X191025641Y-105577812D01*
X191033212Y-105594959D01*
X191039033Y-105645139D01*
X191040000Y-105650000D01*
X191040000Y-106750000D01*
X191039032Y-106754863D01*
X191033212Y-106805040D01*
X191025641Y-106822185D01*
X191020970Y-106845671D01*
X191004169Y-106870815D01*
X190995391Y-106890696D01*
X190981812Y-106904274D01*
X190966777Y-106926777D01*
X190944274Y-106941812D01*
X190930696Y-106955391D01*
X190910815Y-106964169D01*
X190885671Y-106980970D01*
X190862185Y-106985641D01*
X190845040Y-106993212D01*
X190794861Y-106999032D01*
X190790000Y-107000000D01*
X189690000Y-107000000D01*
X189685138Y-106999032D01*
X189634959Y-106993212D01*
X189617812Y-106985641D01*
X189594329Y-106980970D01*
X189569186Y-106964170D01*
X189549303Y-106955391D01*
X189535722Y-106941810D01*
X189513223Y-106926777D01*
X189498189Y-106904277D01*
X189484608Y-106890696D01*
X189475827Y-106870810D01*
X189459030Y-106845671D01*
X189454359Y-106822189D01*
X189446787Y-106805040D01*
X189440964Y-106754849D01*
X189440000Y-106750000D01*
X189440000Y-105650000D01*
X189440964Y-105645150D01*
X189446787Y-105594959D01*
X189454359Y-105577808D01*
X189459030Y-105554329D01*
X189475826Y-105529191D01*
X189484608Y-105509303D01*
X189498191Y-105495719D01*
X189513223Y-105473223D01*
X189535719Y-105458191D01*
X189549303Y-105444608D01*
X189569191Y-105435826D01*
X189594329Y-105419030D01*
X189617808Y-105414359D01*
X189634959Y-105406787D01*
X189685151Y-105400964D01*
X189690000Y-105400000D01*
X190790000Y-105400000D01*
X190794850Y-105400964D01*
G37*
G36*
X175232228Y-105434448D02*
G01*
X175377117Y-105494463D01*
X175507515Y-105581592D01*
X175618408Y-105692485D01*
X175705537Y-105822883D01*
X175765552Y-105967772D01*
X175796148Y-106121586D01*
X175796148Y-106278414D01*
X175765552Y-106432228D01*
X175705537Y-106577117D01*
X175618408Y-106707515D01*
X175507515Y-106818408D01*
X175377117Y-106905537D01*
X175232228Y-106965552D01*
X175078414Y-106996148D01*
X174921586Y-106996148D01*
X174767772Y-106965552D01*
X174622883Y-106905537D01*
X174492485Y-106818408D01*
X174381592Y-106707515D01*
X174294463Y-106577117D01*
X174234448Y-106432228D01*
X174203852Y-106278414D01*
X174203852Y-106121586D01*
X174234448Y-105967772D01*
X174294463Y-105822883D01*
X174381592Y-105692485D01*
X174492485Y-105581592D01*
X174622883Y-105494463D01*
X174767772Y-105434448D01*
X174921586Y-105403852D01*
X175078414Y-105403852D01*
X175232228Y-105434448D01*
G37*
G36*
X177772228Y-105434448D02*
G01*
X177917117Y-105494463D01*
X178047515Y-105581592D01*
X178158408Y-105692485D01*
X178245537Y-105822883D01*
X178305552Y-105967772D01*
X178336148Y-106121586D01*
X178336148Y-106278414D01*
X178305552Y-106432228D01*
X178245537Y-106577117D01*
X178158408Y-106707515D01*
X178047515Y-106818408D01*
X177917117Y-106905537D01*
X177772228Y-106965552D01*
X177618414Y-106996148D01*
X177461586Y-106996148D01*
X177307772Y-106965552D01*
X177162883Y-106905537D01*
X177032485Y-106818408D01*
X176921592Y-106707515D01*
X176834463Y-106577117D01*
X176774448Y-106432228D01*
X176743852Y-106278414D01*
X176743852Y-106121586D01*
X176774448Y-105967772D01*
X176834463Y-105822883D01*
X176921592Y-105692485D01*
X177032485Y-105581592D01*
X177162883Y-105494463D01*
X177307772Y-105434448D01*
X177461586Y-105403852D01*
X177618414Y-105403852D01*
X177772228Y-105434448D01*
G37*
G36*
X180312228Y-105434448D02*
G01*
X180457117Y-105494463D01*
X180587515Y-105581592D01*
X180698408Y-105692485D01*
X180785537Y-105822883D01*
X180845552Y-105967772D01*
X180876148Y-106121586D01*
X180876148Y-106278414D01*
X180845552Y-106432228D01*
X180785537Y-106577117D01*
X180698408Y-106707515D01*
X180587515Y-106818408D01*
X180457117Y-106905537D01*
X180312228Y-106965552D01*
X180158414Y-106996148D01*
X180001586Y-106996148D01*
X179847772Y-106965552D01*
X179702883Y-106905537D01*
X179572485Y-106818408D01*
X179461592Y-106707515D01*
X179374463Y-106577117D01*
X179314448Y-106432228D01*
X179283852Y-106278414D01*
X179283852Y-106121586D01*
X179314448Y-105967772D01*
X179374463Y-105822883D01*
X179461592Y-105692485D01*
X179572485Y-105581592D01*
X179702883Y-105494463D01*
X179847772Y-105434448D01*
X180001586Y-105403852D01*
X180158414Y-105403852D01*
X180312228Y-105434448D01*
G37*
G36*
X182852228Y-105434448D02*
G01*
X182997117Y-105494463D01*
X183127515Y-105581592D01*
X183238408Y-105692485D01*
X183325537Y-105822883D01*
X183385552Y-105967772D01*
X183416148Y-106121586D01*
X183416148Y-106278414D01*
X183385552Y-106432228D01*
X183325537Y-106577117D01*
X183238408Y-106707515D01*
X183127515Y-106818408D01*
X182997117Y-106905537D01*
X182852228Y-106965552D01*
X182698414Y-106996148D01*
X182541586Y-106996148D01*
X182387772Y-106965552D01*
X182242883Y-106905537D01*
X182112485Y-106818408D01*
X182001592Y-106707515D01*
X181914463Y-106577117D01*
X181854448Y-106432228D01*
X181823852Y-106278414D01*
X181823852Y-106121586D01*
X181854448Y-105967772D01*
X181914463Y-105822883D01*
X182001592Y-105692485D01*
X182112485Y-105581592D01*
X182242883Y-105494463D01*
X182387772Y-105434448D01*
X182541586Y-105403852D01*
X182698414Y-105403852D01*
X182852228Y-105434448D01*
G37*
G36*
X185392228Y-105434448D02*
G01*
X185537117Y-105494463D01*
X185667515Y-105581592D01*
X185778408Y-105692485D01*
X185865537Y-105822883D01*
X185925552Y-105967772D01*
X185956148Y-106121586D01*
X185956148Y-106278414D01*
X185925552Y-106432228D01*
X185865537Y-106577117D01*
X185778408Y-106707515D01*
X185667515Y-106818408D01*
X185537117Y-106905537D01*
X185392228Y-106965552D01*
X185238414Y-106996148D01*
X185081586Y-106996148D01*
X184927772Y-106965552D01*
X184782883Y-106905537D01*
X184652485Y-106818408D01*
X184541592Y-106707515D01*
X184454463Y-106577117D01*
X184394448Y-106432228D01*
X184363852Y-106278414D01*
X184363852Y-106121586D01*
X184394448Y-105967772D01*
X184454463Y-105822883D01*
X184541592Y-105692485D01*
X184652485Y-105581592D01*
X184782883Y-105494463D01*
X184927772Y-105434448D01*
X185081586Y-105403852D01*
X185238414Y-105403852D01*
X185392228Y-105434448D01*
G37*
G36*
X187932228Y-105434448D02*
G01*
X188077117Y-105494463D01*
X188207515Y-105581592D01*
X188318408Y-105692485D01*
X188405537Y-105822883D01*
X188465552Y-105967772D01*
X188496148Y-106121586D01*
X188496148Y-106278414D01*
X188465552Y-106432228D01*
X188405537Y-106577117D01*
X188318408Y-106707515D01*
X188207515Y-106818408D01*
X188077117Y-106905537D01*
X187932228Y-106965552D01*
X187778414Y-106996148D01*
X187621586Y-106996148D01*
X187467772Y-106965552D01*
X187322883Y-106905537D01*
X187192485Y-106818408D01*
X187081592Y-106707515D01*
X186994463Y-106577117D01*
X186934448Y-106432228D01*
X186903852Y-106278414D01*
X186903852Y-106121586D01*
X186934448Y-105967772D01*
X186994463Y-105822883D01*
X187081592Y-105692485D01*
X187192485Y-105581592D01*
X187322883Y-105494463D01*
X187467772Y-105434448D01*
X187621586Y-105403852D01*
X187778414Y-105403852D01*
X187932228Y-105434448D01*
G37*
G36*
X198154850Y-102500964D02*
G01*
X198205040Y-102506787D01*
X198222189Y-102514359D01*
X198245671Y-102519030D01*
X198270810Y-102535827D01*
X198290696Y-102544608D01*
X198304277Y-102558189D01*
X198326777Y-102573223D01*
X198341810Y-102595722D01*
X198355391Y-102609303D01*
X198364170Y-102629186D01*
X198380970Y-102654329D01*
X198385641Y-102677812D01*
X198393212Y-102694959D01*
X198399033Y-102745139D01*
X198400000Y-102750000D01*
X198400000Y-104250000D01*
X198399032Y-104254863D01*
X198393212Y-104305040D01*
X198385641Y-104322185D01*
X198380970Y-104345671D01*
X198364169Y-104370815D01*
X198355391Y-104390696D01*
X198341812Y-104404274D01*
X198326777Y-104426777D01*
X198304274Y-104441812D01*
X198290696Y-104455391D01*
X198270815Y-104464169D01*
X198245671Y-104480970D01*
X198222185Y-104485641D01*
X198205040Y-104493212D01*
X198154861Y-104499032D01*
X198150000Y-104500000D01*
X196650000Y-104500000D01*
X196645138Y-104499032D01*
X196594959Y-104493212D01*
X196577812Y-104485641D01*
X196554329Y-104480970D01*
X196529186Y-104464170D01*
X196509303Y-104455391D01*
X196495722Y-104441810D01*
X196473223Y-104426777D01*
X196458189Y-104404277D01*
X196444608Y-104390696D01*
X196435827Y-104370810D01*
X196419030Y-104345671D01*
X196414359Y-104322189D01*
X196406787Y-104305040D01*
X196400964Y-104254849D01*
X196400000Y-104250000D01*
X196400000Y-102750000D01*
X196400964Y-102745150D01*
X196406787Y-102694959D01*
X196414359Y-102677808D01*
X196419030Y-102654329D01*
X196435826Y-102629191D01*
X196444608Y-102609303D01*
X196458191Y-102595719D01*
X196473223Y-102573223D01*
X196495719Y-102558191D01*
X196509303Y-102544608D01*
X196529191Y-102535826D01*
X196554329Y-102519030D01*
X196577808Y-102514359D01*
X196594959Y-102506787D01*
X196645151Y-102500964D01*
X196650000Y-102500000D01*
X198150000Y-102500000D01*
X198154850Y-102500964D01*
G37*
G36*
X121490285Y-101743060D02*
G01*
X121671397Y-101818079D01*
X121834393Y-101926990D01*
X121973010Y-102065607D01*
X122081921Y-102228603D01*
X122156940Y-102409715D01*
X122195185Y-102601983D01*
X122195185Y-102798017D01*
X122156940Y-102990285D01*
X122081921Y-103171397D01*
X121973010Y-103334393D01*
X121834393Y-103473010D01*
X121671397Y-103581921D01*
X121490285Y-103656940D01*
X121298017Y-103695185D01*
X121101983Y-103695185D01*
X120909715Y-103656940D01*
X120728603Y-103581921D01*
X120565607Y-103473010D01*
X120426990Y-103334393D01*
X120318079Y-103171397D01*
X120243060Y-102990285D01*
X120204815Y-102798017D01*
X120204815Y-102601983D01*
X120243060Y-102409715D01*
X120318079Y-102228603D01*
X120426990Y-102065607D01*
X120565607Y-101926990D01*
X120728603Y-101818079D01*
X120909715Y-101743060D01*
X121101983Y-101704815D01*
X121298017Y-101704815D01*
X121490285Y-101743060D01*
G37*
G36*
X197690285Y-100003060D02*
G01*
X197871397Y-100078079D01*
X198034393Y-100186990D01*
X198173010Y-100325607D01*
X198281921Y-100488603D01*
X198356940Y-100669715D01*
X198395185Y-100861983D01*
X198395185Y-101058017D01*
X198356940Y-101250285D01*
X198281921Y-101431397D01*
X198173010Y-101594393D01*
X198034393Y-101733010D01*
X197871397Y-101841921D01*
X197690285Y-101916940D01*
X197498017Y-101955185D01*
X197301983Y-101955185D01*
X197109715Y-101916940D01*
X196928603Y-101841921D01*
X196765607Y-101733010D01*
X196626990Y-101594393D01*
X196518079Y-101431397D01*
X196443060Y-101250285D01*
X196404815Y-101058017D01*
X196404815Y-100861983D01*
X196443060Y-100669715D01*
X196518079Y-100488603D01*
X196626990Y-100325607D01*
X196765607Y-100186990D01*
X196928603Y-100078079D01*
X197109715Y-100003060D01*
X197301983Y-99964815D01*
X197498017Y-99964815D01*
X197690285Y-100003060D01*
G37*
G36*
X121954850Y-99160964D02*
G01*
X122005040Y-99166787D01*
X122022189Y-99174359D01*
X122045671Y-99179030D01*
X122070810Y-99195827D01*
X122090696Y-99204608D01*
X122104277Y-99218189D01*
X122126777Y-99233223D01*
X122141810Y-99255722D01*
X122155391Y-99269303D01*
X122164170Y-99289186D01*
X122180970Y-99314329D01*
X122185641Y-99337812D01*
X122193212Y-99354959D01*
X122199033Y-99405139D01*
X122200000Y-99410000D01*
X122200000Y-100910000D01*
X122199032Y-100914863D01*
X122193212Y-100965040D01*
X122185641Y-100982185D01*
X122180970Y-101005671D01*
X122164169Y-101030815D01*
X122155391Y-101050696D01*
X122141812Y-101064274D01*
X122126777Y-101086777D01*
X122104274Y-101101812D01*
X122090696Y-101115391D01*
X122070815Y-101124169D01*
X122045671Y-101140970D01*
X122022185Y-101145641D01*
X122005040Y-101153212D01*
X121954861Y-101159032D01*
X121950000Y-101160000D01*
X120450000Y-101160000D01*
X120445138Y-101159032D01*
X120394959Y-101153212D01*
X120377812Y-101145641D01*
X120354329Y-101140970D01*
X120329186Y-101124170D01*
X120309303Y-101115391D01*
X120295722Y-101101810D01*
X120273223Y-101086777D01*
X120258189Y-101064277D01*
X120244608Y-101050696D01*
X120235827Y-101030810D01*
X120219030Y-101005671D01*
X120214359Y-100982189D01*
X120206787Y-100965040D01*
X120200964Y-100914849D01*
X120200000Y-100910000D01*
X120200000Y-99410000D01*
X120200964Y-99405150D01*
X120206787Y-99354959D01*
X120214359Y-99337808D01*
X120219030Y-99314329D01*
X120235826Y-99289191D01*
X120244608Y-99269303D01*
X120258191Y-99255719D01*
X120273223Y-99233223D01*
X120295719Y-99218191D01*
X120309303Y-99204608D01*
X120329191Y-99195826D01*
X120354329Y-99179030D01*
X120377808Y-99174359D01*
X120394959Y-99166787D01*
X120445151Y-99160964D01*
X120450000Y-99160000D01*
X121950000Y-99160000D01*
X121954850Y-99160964D01*
G37*
G36*
X177782228Y-97454448D02*
G01*
X177927117Y-97514463D01*
X178057515Y-97601592D01*
X178168408Y-97712485D01*
X178255537Y-97842883D01*
X178315552Y-97987772D01*
X178346148Y-98141586D01*
X178346148Y-98298414D01*
X178315552Y-98452228D01*
X178255537Y-98597117D01*
X178168408Y-98727515D01*
X178057515Y-98838408D01*
X177927117Y-98925537D01*
X177782228Y-98985552D01*
X177628414Y-99016148D01*
X177471586Y-99016148D01*
X177317772Y-98985552D01*
X177172883Y-98925537D01*
X177042485Y-98838408D01*
X176931592Y-98727515D01*
X176844463Y-98597117D01*
X176784448Y-98452228D01*
X176753852Y-98298414D01*
X176753852Y-98141586D01*
X176784448Y-97987772D01*
X176844463Y-97842883D01*
X176931592Y-97712485D01*
X177042485Y-97601592D01*
X177172883Y-97514463D01*
X177317772Y-97454448D01*
X177471586Y-97423852D01*
X177628414Y-97423852D01*
X177782228Y-97454448D01*
G37*
G36*
X121490285Y-94843060D02*
G01*
X121671397Y-94918079D01*
X121834393Y-95026990D01*
X121973010Y-95165607D01*
X122081921Y-95328603D01*
X122156940Y-95509715D01*
X122195185Y-95701983D01*
X122195185Y-95898017D01*
X122156940Y-96090285D01*
X122081921Y-96271397D01*
X121973010Y-96434393D01*
X121834393Y-96573010D01*
X121671397Y-96681921D01*
X121490285Y-96756940D01*
X121298017Y-96795185D01*
X121101983Y-96795185D01*
X120909715Y-96756940D01*
X120728603Y-96681921D01*
X120565607Y-96573010D01*
X120426990Y-96434393D01*
X120318079Y-96271397D01*
X120243060Y-96090285D01*
X120204815Y-95898017D01*
X120204815Y-95701983D01*
X120243060Y-95509715D01*
X120318079Y-95328603D01*
X120426990Y-95165607D01*
X120565607Y-95026990D01*
X120728603Y-94918079D01*
X120909715Y-94843060D01*
X121101983Y-94804815D01*
X121298017Y-94804815D01*
X121490285Y-94843060D01*
G37*
G36*
X121954850Y-92260964D02*
G01*
X122005040Y-92266787D01*
X122022189Y-92274359D01*
X122045671Y-92279030D01*
X122070810Y-92295827D01*
X122090696Y-92304608D01*
X122104277Y-92318189D01*
X122126777Y-92333223D01*
X122141810Y-92355722D01*
X122155391Y-92369303D01*
X122164170Y-92389186D01*
X122180970Y-92414329D01*
X122185641Y-92437812D01*
X122193212Y-92454959D01*
X122199033Y-92505139D01*
X122200000Y-92510000D01*
X122200000Y-94010000D01*
X122199032Y-94014863D01*
X122193212Y-94065040D01*
X122185641Y-94082185D01*
X122180970Y-94105671D01*
X122164169Y-94130815D01*
X122155391Y-94150696D01*
X122141812Y-94164274D01*
X122126777Y-94186777D01*
X122104274Y-94201812D01*
X122090696Y-94215391D01*
X122070815Y-94224169D01*
X122045671Y-94240970D01*
X122022185Y-94245641D01*
X122005040Y-94253212D01*
X121954861Y-94259032D01*
X121950000Y-94260000D01*
X120450000Y-94260000D01*
X120445138Y-94259032D01*
X120394959Y-94253212D01*
X120377812Y-94245641D01*
X120354329Y-94240970D01*
X120329186Y-94224170D01*
X120309303Y-94215391D01*
X120295722Y-94201810D01*
X120273223Y-94186777D01*
X120258189Y-94164277D01*
X120244608Y-94150696D01*
X120235827Y-94130810D01*
X120219030Y-94105671D01*
X120214359Y-94082189D01*
X120206787Y-94065040D01*
X120200964Y-94014849D01*
X120200000Y-94010000D01*
X120200000Y-92510000D01*
X120200964Y-92505150D01*
X120206787Y-92454959D01*
X120214359Y-92437808D01*
X120219030Y-92414329D01*
X120235826Y-92389191D01*
X120244608Y-92369303D01*
X120258191Y-92355719D01*
X120273223Y-92333223D01*
X120295719Y-92318191D01*
X120309303Y-92304608D01*
X120329191Y-92295826D01*
X120354329Y-92279030D01*
X120377808Y-92274359D01*
X120394959Y-92266787D01*
X120445151Y-92260964D01*
X120450000Y-92260000D01*
X121950000Y-92260000D01*
X121954850Y-92260964D01*
G37*
G36*
X184293526Y-91549491D02*
G01*
X184425909Y-91584963D01*
X184544600Y-91653489D01*
X184641511Y-91750400D01*
X184710037Y-91869091D01*
X184745509Y-92001474D01*
X184745509Y-92138526D01*
X184710037Y-92270909D01*
X184641511Y-92389600D01*
X184544600Y-92486511D01*
X184425909Y-92555037D01*
X184293526Y-92590509D01*
X184225000Y-92595000D01*
X184223029Y-92595000D01*
X183776971Y-92595000D01*
X183775000Y-92595000D01*
X183706474Y-92590509D01*
X183574091Y-92555037D01*
X183455400Y-92486511D01*
X183358489Y-92389600D01*
X183289963Y-92270909D01*
X183254491Y-92138526D01*
X183254491Y-92001474D01*
X183289963Y-91869091D01*
X183358489Y-91750400D01*
X183455400Y-91653489D01*
X183574091Y-91584963D01*
X183706474Y-91549491D01*
X183775000Y-91545000D01*
X184225000Y-91545000D01*
X184293526Y-91549491D01*
G37*
G36*
X177782228Y-89834448D02*
G01*
X177927117Y-89894463D01*
X178057515Y-89981592D01*
X178168408Y-90092485D01*
X178255537Y-90222883D01*
X178315552Y-90367772D01*
X178346148Y-90521586D01*
X178346148Y-90678414D01*
X178315552Y-90832228D01*
X178255537Y-90977117D01*
X178168408Y-91107515D01*
X178057515Y-91218408D01*
X177927117Y-91305537D01*
X177782228Y-91365552D01*
X177628414Y-91396148D01*
X177471586Y-91396148D01*
X177317772Y-91365552D01*
X177172883Y-91305537D01*
X177042485Y-91218408D01*
X176931592Y-91107515D01*
X176844463Y-90977117D01*
X176784448Y-90832228D01*
X176753852Y-90678414D01*
X176753852Y-90521586D01*
X176784448Y-90367772D01*
X176844463Y-90222883D01*
X176931592Y-90092485D01*
X177042485Y-89981592D01*
X177172883Y-89894463D01*
X177317772Y-89834448D01*
X177471586Y-89803852D01*
X177628414Y-89803852D01*
X177782228Y-89834448D01*
G37*
G36*
X184293526Y-90279491D02*
G01*
X184425909Y-90314963D01*
X184544600Y-90383489D01*
X184641511Y-90480400D01*
X184710037Y-90599091D01*
X184745509Y-90731474D01*
X184745509Y-90868526D01*
X184710037Y-91000909D01*
X184641511Y-91119600D01*
X184544600Y-91216511D01*
X184425909Y-91285037D01*
X184293526Y-91320509D01*
X184225000Y-91325000D01*
X184223029Y-91325000D01*
X183776971Y-91325000D01*
X183775000Y-91325000D01*
X183706474Y-91320509D01*
X183574091Y-91285037D01*
X183455400Y-91216511D01*
X183358489Y-91119600D01*
X183289963Y-91000909D01*
X183254491Y-90868526D01*
X183254491Y-90731474D01*
X183289963Y-90599091D01*
X183358489Y-90480400D01*
X183455400Y-90383489D01*
X183574091Y-90314963D01*
X183706474Y-90279491D01*
X183775000Y-90275000D01*
X184225000Y-90275000D01*
X184293526Y-90279491D01*
G37*
G36*
X198908315Y-88854093D02*
G01*
X199071742Y-88886601D01*
X199225687Y-88950367D01*
X199364234Y-89042941D01*
X199482059Y-89160766D01*
X199574633Y-89299313D01*
X199638399Y-89453258D01*
X199670907Y-89616685D01*
X199670907Y-89783315D01*
X199638399Y-89946742D01*
X199574633Y-90100687D01*
X199482059Y-90239234D01*
X199364234Y-90357059D01*
X199225687Y-90449633D01*
X199071742Y-90513399D01*
X198908315Y-90545907D01*
X198825000Y-90550000D01*
X198823522Y-90550000D01*
X198576478Y-90550000D01*
X198575000Y-90550000D01*
X198491685Y-90545907D01*
X198328258Y-90513399D01*
X198174313Y-90449633D01*
X198035766Y-90357059D01*
X197917941Y-90239234D01*
X197825367Y-90100687D01*
X197761601Y-89946742D01*
X197729093Y-89783315D01*
X197729093Y-89616685D01*
X197761601Y-89453258D01*
X197825367Y-89299313D01*
X197917941Y-89160766D01*
X198035766Y-89042941D01*
X198174313Y-88950367D01*
X198328258Y-88886601D01*
X198491685Y-88854093D01*
X198575000Y-88850000D01*
X198825000Y-88850000D01*
X198908315Y-88854093D01*
G37*
G36*
X184750000Y-90055000D02*
G01*
X183250000Y-90055000D01*
X183250000Y-89005000D01*
X184750000Y-89005000D01*
X184750000Y-90055000D01*
G37*
G36*
X120829850Y-87150964D02*
G01*
X120880040Y-87156787D01*
X120897189Y-87164359D01*
X120920671Y-87169030D01*
X120945810Y-87185827D01*
X120965696Y-87194608D01*
X120979277Y-87208189D01*
X121001777Y-87223223D01*
X121016810Y-87245722D01*
X121030391Y-87259303D01*
X121039170Y-87279186D01*
X121055970Y-87304329D01*
X121060641Y-87327812D01*
X121068212Y-87344959D01*
X121074033Y-87395139D01*
X121075000Y-87400000D01*
X121075000Y-88600000D01*
X121074032Y-88604863D01*
X121068212Y-88655040D01*
X121060641Y-88672185D01*
X121055970Y-88695671D01*
X121039169Y-88720815D01*
X121030391Y-88740696D01*
X121016812Y-88754274D01*
X121001777Y-88776777D01*
X120979274Y-88791812D01*
X120965696Y-88805391D01*
X120945815Y-88814169D01*
X120920671Y-88830970D01*
X120897185Y-88835641D01*
X120880040Y-88843212D01*
X120829861Y-88849032D01*
X120825000Y-88850000D01*
X119375000Y-88850000D01*
X119370138Y-88849032D01*
X119319959Y-88843212D01*
X119302812Y-88835641D01*
X119279329Y-88830970D01*
X119254186Y-88814170D01*
X119234303Y-88805391D01*
X119220722Y-88791810D01*
X119198223Y-88776777D01*
X119183189Y-88754277D01*
X119169608Y-88740696D01*
X119160827Y-88720810D01*
X119144030Y-88695671D01*
X119139359Y-88672189D01*
X119131787Y-88655040D01*
X119125964Y-88604849D01*
X119125000Y-88600000D01*
X119125000Y-87400000D01*
X119125964Y-87395150D01*
X119131787Y-87344959D01*
X119139359Y-87327808D01*
X119144030Y-87304329D01*
X119160826Y-87279191D01*
X119169608Y-87259303D01*
X119183191Y-87245719D01*
X119198223Y-87223223D01*
X119220719Y-87208191D01*
X119234303Y-87194608D01*
X119254191Y-87185826D01*
X119279329Y-87169030D01*
X119302808Y-87164359D01*
X119319959Y-87156787D01*
X119370151Y-87150964D01*
X119375000Y-87150000D01*
X120825000Y-87150000D01*
X120829850Y-87150964D01*
G37*
G36*
X198908315Y-86354093D02*
G01*
X199071742Y-86386601D01*
X199225687Y-86450367D01*
X199364234Y-86542941D01*
X199482059Y-86660766D01*
X199574633Y-86799313D01*
X199638399Y-86953258D01*
X199670907Y-87116685D01*
X199670907Y-87283315D01*
X199638399Y-87446742D01*
X199574633Y-87600687D01*
X199482059Y-87739234D01*
X199364234Y-87857059D01*
X199225687Y-87949633D01*
X199071742Y-88013399D01*
X198908315Y-88045907D01*
X198825000Y-88050000D01*
X198823522Y-88050000D01*
X198576478Y-88050000D01*
X198575000Y-88050000D01*
X198491685Y-88045907D01*
X198328258Y-88013399D01*
X198174313Y-87949633D01*
X198035766Y-87857059D01*
X197917941Y-87739234D01*
X197825367Y-87600687D01*
X197761601Y-87446742D01*
X197729093Y-87283315D01*
X197729093Y-87116685D01*
X197761601Y-86953258D01*
X197825367Y-86799313D01*
X197917941Y-86660766D01*
X198035766Y-86542941D01*
X198174313Y-86450367D01*
X198328258Y-86386601D01*
X198491685Y-86354093D01*
X198575000Y-86350000D01*
X198825000Y-86350000D01*
X198908315Y-86354093D01*
G37*
G36*
X120308315Y-84654093D02*
G01*
X120471742Y-84686601D01*
X120625687Y-84750367D01*
X120764234Y-84842941D01*
X120882059Y-84960766D01*
X120974633Y-85099313D01*
X121038399Y-85253258D01*
X121070907Y-85416685D01*
X121070907Y-85583315D01*
X121038399Y-85746742D01*
X120974633Y-85900687D01*
X120882059Y-86039234D01*
X120764234Y-86157059D01*
X120625687Y-86249633D01*
X120471742Y-86313399D01*
X120308315Y-86345907D01*
X120225000Y-86350000D01*
X120223522Y-86350000D01*
X119976478Y-86350000D01*
X119975000Y-86350000D01*
X119891685Y-86345907D01*
X119728258Y-86313399D01*
X119574313Y-86249633D01*
X119435766Y-86157059D01*
X119317941Y-86039234D01*
X119225367Y-85900687D01*
X119161601Y-85746742D01*
X119129093Y-85583315D01*
X119129093Y-85416685D01*
X119161601Y-85253258D01*
X119225367Y-85099313D01*
X119317941Y-84960766D01*
X119435766Y-84842941D01*
X119574313Y-84750367D01*
X119728258Y-84686601D01*
X119891685Y-84654093D01*
X119975000Y-84650000D01*
X120225000Y-84650000D01*
X120308315Y-84654093D01*
G37*
G36*
X198908315Y-83854093D02*
G01*
X199071742Y-83886601D01*
X199225687Y-83950367D01*
X199364234Y-84042941D01*
X199482059Y-84160766D01*
X199574633Y-84299313D01*
X199638399Y-84453258D01*
X199670907Y-84616685D01*
X199670907Y-84783315D01*
X199638399Y-84946742D01*
X199574633Y-85100687D01*
X199482059Y-85239234D01*
X199364234Y-85357059D01*
X199225687Y-85449633D01*
X199071742Y-85513399D01*
X198908315Y-85545907D01*
X198825000Y-85550000D01*
X198823522Y-85550000D01*
X198576478Y-85550000D01*
X198575000Y-85550000D01*
X198491685Y-85545907D01*
X198328258Y-85513399D01*
X198174313Y-85449633D01*
X198035766Y-85357059D01*
X197917941Y-85239234D01*
X197825367Y-85100687D01*
X197761601Y-84946742D01*
X197729093Y-84783315D01*
X197729093Y-84616685D01*
X197761601Y-84453258D01*
X197825367Y-84299313D01*
X197917941Y-84160766D01*
X198035766Y-84042941D01*
X198174313Y-83950367D01*
X198328258Y-83886601D01*
X198491685Y-83854093D01*
X198575000Y-83850000D01*
X198825000Y-83850000D01*
X198908315Y-83854093D01*
G37*
G36*
X120308315Y-82154093D02*
G01*
X120471742Y-82186601D01*
X120625687Y-82250367D01*
X120764234Y-82342941D01*
X120882059Y-82460766D01*
X120974633Y-82599313D01*
X121038399Y-82753258D01*
X121070907Y-82916685D01*
X121070907Y-83083315D01*
X121038399Y-83246742D01*
X120974633Y-83400687D01*
X120882059Y-83539234D01*
X120764234Y-83657059D01*
X120625687Y-83749633D01*
X120471742Y-83813399D01*
X120308315Y-83845907D01*
X120225000Y-83850000D01*
X120223522Y-83850000D01*
X119976478Y-83850000D01*
X119975000Y-83850000D01*
X119891685Y-83845907D01*
X119728258Y-83813399D01*
X119574313Y-83749633D01*
X119435766Y-83657059D01*
X119317941Y-83539234D01*
X119225367Y-83400687D01*
X119161601Y-83246742D01*
X119129093Y-83083315D01*
X119129093Y-82916685D01*
X119161601Y-82753258D01*
X119225367Y-82599313D01*
X119317941Y-82460766D01*
X119435766Y-82342941D01*
X119574313Y-82250367D01*
X119728258Y-82186601D01*
X119891685Y-82154093D01*
X119975000Y-82150000D01*
X120225000Y-82150000D01*
X120308315Y-82154093D01*
G37*
G36*
X198908315Y-81354093D02*
G01*
X199071742Y-81386601D01*
X199225687Y-81450367D01*
X199364234Y-81542941D01*
X199482059Y-81660766D01*
X199574633Y-81799313D01*
X199638399Y-81953258D01*
X199670907Y-82116685D01*
X199670907Y-82283315D01*
X199638399Y-82446742D01*
X199574633Y-82600687D01*
X199482059Y-82739234D01*
X199364234Y-82857059D01*
X199225687Y-82949633D01*
X199071742Y-83013399D01*
X198908315Y-83045907D01*
X198825000Y-83050000D01*
X198823522Y-83050000D01*
X198576478Y-83050000D01*
X198575000Y-83050000D01*
X198491685Y-83045907D01*
X198328258Y-83013399D01*
X198174313Y-82949633D01*
X198035766Y-82857059D01*
X197917941Y-82739234D01*
X197825367Y-82600687D01*
X197761601Y-82446742D01*
X197729093Y-82283315D01*
X197729093Y-82116685D01*
X197761601Y-81953258D01*
X197825367Y-81799313D01*
X197917941Y-81660766D01*
X198035766Y-81542941D01*
X198174313Y-81450367D01*
X198328258Y-81386601D01*
X198491685Y-81354093D01*
X198575000Y-81350000D01*
X198825000Y-81350000D01*
X198908315Y-81354093D01*
G37*
G36*
X198908315Y-78854093D02*
G01*
X199071742Y-78886601D01*
X199225687Y-78950367D01*
X199364234Y-79042941D01*
X199482059Y-79160766D01*
X199574633Y-79299313D01*
X199638399Y-79453258D01*
X199670907Y-79616685D01*
X199670907Y-79783315D01*
X199638399Y-79946742D01*
X199574633Y-80100687D01*
X199482059Y-80239234D01*
X199364234Y-80357059D01*
X199225687Y-80449633D01*
X199071742Y-80513399D01*
X198908315Y-80545907D01*
X198825000Y-80550000D01*
X198823522Y-80550000D01*
X198576478Y-80550000D01*
X198575000Y-80550000D01*
X198491685Y-80545907D01*
X198328258Y-80513399D01*
X198174313Y-80449633D01*
X198035766Y-80357059D01*
X197917941Y-80239234D01*
X197825367Y-80100687D01*
X197761601Y-79946742D01*
X197729093Y-79783315D01*
X197729093Y-79616685D01*
X197761601Y-79453258D01*
X197825367Y-79299313D01*
X197917941Y-79160766D01*
X198035766Y-79042941D01*
X198174313Y-78950367D01*
X198328258Y-78886601D01*
X198491685Y-78854093D01*
X198575000Y-78850000D01*
X198825000Y-78850000D01*
X198908315Y-78854093D01*
G37*
G36*
X121572785Y-76883060D02*
G01*
X121753897Y-76958079D01*
X121916893Y-77066990D01*
X122055510Y-77205607D01*
X122164421Y-77368603D01*
X122239440Y-77549715D01*
X122277685Y-77741983D01*
X122277685Y-77938017D01*
X122239440Y-78130285D01*
X122164421Y-78311397D01*
X122055510Y-78474393D01*
X121916893Y-78613010D01*
X121753897Y-78721921D01*
X121572785Y-78796940D01*
X121380517Y-78835185D01*
X121184483Y-78835185D01*
X120992215Y-78796940D01*
X120811103Y-78721921D01*
X120648107Y-78613010D01*
X120509490Y-78474393D01*
X120400579Y-78311397D01*
X120325560Y-78130285D01*
X120287315Y-77938017D01*
X120287315Y-77741983D01*
X120325560Y-77549715D01*
X120400579Y-77368603D01*
X120509490Y-77205607D01*
X120648107Y-77066990D01*
X120811103Y-76958079D01*
X120992215Y-76883060D01*
X121184483Y-76844815D01*
X121380517Y-76844815D01*
X121572785Y-76883060D01*
G37*
G36*
X181874850Y-76820964D02*
G01*
X181925040Y-76826787D01*
X181942189Y-76834359D01*
X181965671Y-76839030D01*
X181990810Y-76855827D01*
X182010696Y-76864608D01*
X182024277Y-76878189D01*
X182046777Y-76893223D01*
X182061810Y-76915722D01*
X182075391Y-76929303D01*
X182084170Y-76949186D01*
X182100970Y-76974329D01*
X182105641Y-76997812D01*
X182113212Y-77014959D01*
X182119033Y-77065139D01*
X182120000Y-77070000D01*
X182120000Y-78170000D01*
X182119032Y-78174863D01*
X182113212Y-78225040D01*
X182105641Y-78242185D01*
X182100970Y-78265671D01*
X182084169Y-78290815D01*
X182075391Y-78310696D01*
X182061812Y-78324274D01*
X182046777Y-78346777D01*
X182024274Y-78361812D01*
X182010696Y-78375391D01*
X181990815Y-78384169D01*
X181965671Y-78400970D01*
X181942185Y-78405641D01*
X181925040Y-78413212D01*
X181874861Y-78419032D01*
X181870000Y-78420000D01*
X180770000Y-78420000D01*
X180765138Y-78419032D01*
X180714959Y-78413212D01*
X180697812Y-78405641D01*
X180674329Y-78400970D01*
X180649186Y-78384170D01*
X180629303Y-78375391D01*
X180615722Y-78361810D01*
X180593223Y-78346777D01*
X180578189Y-78324277D01*
X180564608Y-78310696D01*
X180555827Y-78290810D01*
X180539030Y-78265671D01*
X180534359Y-78242189D01*
X180526787Y-78225040D01*
X180520964Y-78174849D01*
X180520000Y-78170000D01*
X180520000Y-77070000D01*
X180520964Y-77065150D01*
X180526787Y-77014959D01*
X180534359Y-76997808D01*
X180539030Y-76974329D01*
X180555826Y-76949191D01*
X180564608Y-76929303D01*
X180578191Y-76915719D01*
X180593223Y-76893223D01*
X180615719Y-76878191D01*
X180629303Y-76864608D01*
X180649191Y-76855826D01*
X180674329Y-76839030D01*
X180697808Y-76834359D01*
X180714959Y-76826787D01*
X180765151Y-76820964D01*
X180770000Y-76820000D01*
X181870000Y-76820000D01*
X181874850Y-76820964D01*
G37*
G36*
X184092228Y-76854448D02*
G01*
X184237117Y-76914463D01*
X184367515Y-77001592D01*
X184478408Y-77112485D01*
X184565537Y-77242883D01*
X184625552Y-77387772D01*
X184656148Y-77541586D01*
X184656148Y-77698414D01*
X184625552Y-77852228D01*
X184565537Y-77997117D01*
X184478408Y-78127515D01*
X184367515Y-78238408D01*
X184237117Y-78325537D01*
X184092228Y-78385552D01*
X183938414Y-78416148D01*
X183781586Y-78416148D01*
X183627772Y-78385552D01*
X183482883Y-78325537D01*
X183352485Y-78238408D01*
X183241592Y-78127515D01*
X183154463Y-77997117D01*
X183094448Y-77852228D01*
X183063852Y-77698414D01*
X183063852Y-77541586D01*
X183094448Y-77387772D01*
X183154463Y-77242883D01*
X183241592Y-77112485D01*
X183352485Y-77001592D01*
X183482883Y-76914463D01*
X183627772Y-76854448D01*
X183781586Y-76823852D01*
X183938414Y-76823852D01*
X184092228Y-76854448D01*
G37*
G36*
X186632228Y-76854448D02*
G01*
X186777117Y-76914463D01*
X186907515Y-77001592D01*
X187018408Y-77112485D01*
X187105537Y-77242883D01*
X187165552Y-77387772D01*
X187196148Y-77541586D01*
X187196148Y-77698414D01*
X187165552Y-77852228D01*
X187105537Y-77997117D01*
X187018408Y-78127515D01*
X186907515Y-78238408D01*
X186777117Y-78325537D01*
X186632228Y-78385552D01*
X186478414Y-78416148D01*
X186321586Y-78416148D01*
X186167772Y-78385552D01*
X186022883Y-78325537D01*
X185892485Y-78238408D01*
X185781592Y-78127515D01*
X185694463Y-77997117D01*
X185634448Y-77852228D01*
X185603852Y-77698414D01*
X185603852Y-77541586D01*
X185634448Y-77387772D01*
X185694463Y-77242883D01*
X185781592Y-77112485D01*
X185892485Y-77001592D01*
X186022883Y-76914463D01*
X186167772Y-76854448D01*
X186321586Y-76823852D01*
X186478414Y-76823852D01*
X186632228Y-76854448D01*
G37*
G36*
X189172228Y-76854448D02*
G01*
X189317117Y-76914463D01*
X189447515Y-77001592D01*
X189558408Y-77112485D01*
X189645537Y-77242883D01*
X189705552Y-77387772D01*
X189736148Y-77541586D01*
X189736148Y-77698414D01*
X189705552Y-77852228D01*
X189645537Y-77997117D01*
X189558408Y-78127515D01*
X189447515Y-78238408D01*
X189317117Y-78325537D01*
X189172228Y-78385552D01*
X189018414Y-78416148D01*
X188861586Y-78416148D01*
X188707772Y-78385552D01*
X188562883Y-78325537D01*
X188432485Y-78238408D01*
X188321592Y-78127515D01*
X188234463Y-77997117D01*
X188174448Y-77852228D01*
X188143852Y-77698414D01*
X188143852Y-77541586D01*
X188174448Y-77387772D01*
X188234463Y-77242883D01*
X188321592Y-77112485D01*
X188432485Y-77001592D01*
X188562883Y-76914463D01*
X188707772Y-76854448D01*
X188861586Y-76823852D01*
X189018414Y-76823852D01*
X189172228Y-76854448D01*
G37*
G36*
X199429850Y-76350964D02*
G01*
X199480040Y-76356787D01*
X199497189Y-76364359D01*
X199520671Y-76369030D01*
X199545810Y-76385827D01*
X199565696Y-76394608D01*
X199579277Y-76408189D01*
X199601777Y-76423223D01*
X199616810Y-76445722D01*
X199630391Y-76459303D01*
X199639170Y-76479186D01*
X199655970Y-76504329D01*
X199660641Y-76527812D01*
X199668212Y-76544959D01*
X199674033Y-76595139D01*
X199675000Y-76600000D01*
X199675000Y-77800000D01*
X199674032Y-77804863D01*
X199668212Y-77855040D01*
X199660641Y-77872185D01*
X199655970Y-77895671D01*
X199639169Y-77920815D01*
X199630391Y-77940696D01*
X199616812Y-77954274D01*
X199601777Y-77976777D01*
X199579274Y-77991812D01*
X199565696Y-78005391D01*
X199545815Y-78014169D01*
X199520671Y-78030970D01*
X199497185Y-78035641D01*
X199480040Y-78043212D01*
X199429861Y-78049032D01*
X199425000Y-78050000D01*
X197975000Y-78050000D01*
X197970138Y-78049032D01*
X197919959Y-78043212D01*
X197902812Y-78035641D01*
X197879329Y-78030970D01*
X197854186Y-78014170D01*
X197834303Y-78005391D01*
X197820722Y-77991810D01*
X197798223Y-77976777D01*
X197783189Y-77954277D01*
X197769608Y-77940696D01*
X197760827Y-77920810D01*
X197744030Y-77895671D01*
X197739359Y-77872189D01*
X197731787Y-77855040D01*
X197725964Y-77804849D01*
X197725000Y-77800000D01*
X197725000Y-76600000D01*
X197725964Y-76595150D01*
X197731787Y-76544959D01*
X197739359Y-76527808D01*
X197744030Y-76504329D01*
X197760826Y-76479191D01*
X197769608Y-76459303D01*
X197783191Y-76445719D01*
X197798223Y-76423223D01*
X197820719Y-76408191D01*
X197834303Y-76394608D01*
X197854191Y-76385826D01*
X197879329Y-76369030D01*
X197902808Y-76364359D01*
X197919959Y-76356787D01*
X197970151Y-76350964D01*
X197975000Y-76350000D01*
X199425000Y-76350000D01*
X199429850Y-76350964D01*
G37*
G36*
X165640285Y-75193060D02*
G01*
X165821397Y-75268079D01*
X165984393Y-75376990D01*
X166123010Y-75515607D01*
X166231921Y-75678603D01*
X166306940Y-75859715D01*
X166345185Y-76051983D01*
X166345185Y-76248017D01*
X166306940Y-76440285D01*
X166231921Y-76621397D01*
X166123010Y-76784393D01*
X165984393Y-76923010D01*
X165821397Y-77031921D01*
X165640285Y-77106940D01*
X165448017Y-77145185D01*
X165251983Y-77145185D01*
X165059715Y-77106940D01*
X164878603Y-77031921D01*
X164715607Y-76923010D01*
X164576990Y-76784393D01*
X164468079Y-76621397D01*
X164393060Y-76440285D01*
X164354815Y-76248017D01*
X164354815Y-76051983D01*
X164393060Y-75859715D01*
X164468079Y-75678603D01*
X164576990Y-75515607D01*
X164715607Y-75376990D01*
X164878603Y-75268079D01*
X165059715Y-75193060D01*
X165251983Y-75154815D01*
X165448017Y-75154815D01*
X165640285Y-75193060D01*
G37*
G36*
X172140285Y-75193060D02*
G01*
X172321397Y-75268079D01*
X172484393Y-75376990D01*
X172623010Y-75515607D01*
X172731921Y-75678603D01*
X172806940Y-75859715D01*
X172845185Y-76051983D01*
X172845185Y-76248017D01*
X172806940Y-76440285D01*
X172731921Y-76621397D01*
X172623010Y-76784393D01*
X172484393Y-76923010D01*
X172321397Y-77031921D01*
X172140285Y-77106940D01*
X171948017Y-77145185D01*
X171751983Y-77145185D01*
X171559715Y-77106940D01*
X171378603Y-77031921D01*
X171215607Y-76923010D01*
X171076990Y-76784393D01*
X170968079Y-76621397D01*
X170893060Y-76440285D01*
X170854815Y-76248017D01*
X170854815Y-76051983D01*
X170893060Y-75859715D01*
X170968079Y-75678603D01*
X171076990Y-75515607D01*
X171215607Y-75376990D01*
X171378603Y-75268079D01*
X171559715Y-75193060D01*
X171751983Y-75154815D01*
X171948017Y-75154815D01*
X172140285Y-75193060D01*
G37*
G36*
X122037350Y-74300964D02*
G01*
X122087540Y-74306787D01*
X122104689Y-74314359D01*
X122128171Y-74319030D01*
X122153310Y-74335827D01*
X122173196Y-74344608D01*
X122186777Y-74358189D01*
X122209277Y-74373223D01*
X122224310Y-74395722D01*
X122237891Y-74409303D01*
X122246670Y-74429186D01*
X122263470Y-74454329D01*
X122268141Y-74477812D01*
X122275712Y-74494959D01*
X122281533Y-74545139D01*
X122282500Y-74550000D01*
X122282500Y-76050000D01*
X122281532Y-76054863D01*
X122275712Y-76105040D01*
X122268141Y-76122185D01*
X122263470Y-76145671D01*
X122246669Y-76170815D01*
X122237891Y-76190696D01*
X122224312Y-76204274D01*
X122209277Y-76226777D01*
X122186774Y-76241812D01*
X122173196Y-76255391D01*
X122153315Y-76264169D01*
X122128171Y-76280970D01*
X122104685Y-76285641D01*
X122087540Y-76293212D01*
X122037361Y-76299032D01*
X122032500Y-76300000D01*
X120532500Y-76300000D01*
X120527638Y-76299032D01*
X120477459Y-76293212D01*
X120460312Y-76285641D01*
X120436829Y-76280970D01*
X120411686Y-76264170D01*
X120391803Y-76255391D01*
X120378222Y-76241810D01*
X120355723Y-76226777D01*
X120340689Y-76204277D01*
X120327108Y-76190696D01*
X120318327Y-76170810D01*
X120301530Y-76145671D01*
X120296859Y-76122189D01*
X120289287Y-76105040D01*
X120283464Y-76054849D01*
X120282500Y-76050000D01*
X120282500Y-74550000D01*
X120283464Y-74545150D01*
X120289287Y-74494959D01*
X120296859Y-74477808D01*
X120301530Y-74454329D01*
X120318326Y-74429191D01*
X120327108Y-74409303D01*
X120340691Y-74395719D01*
X120355723Y-74373223D01*
X120378219Y-74358191D01*
X120391803Y-74344608D01*
X120411691Y-74335826D01*
X120436829Y-74319030D01*
X120460308Y-74314359D01*
X120477459Y-74306787D01*
X120527651Y-74300964D01*
X120532500Y-74300000D01*
X122032500Y-74300000D01*
X122037350Y-74300964D01*
G37*
G36*
X149222228Y-73034448D02*
G01*
X149367117Y-73094463D01*
X149497515Y-73181592D01*
X149608408Y-73292485D01*
X149695537Y-73422883D01*
X149755552Y-73567772D01*
X149786148Y-73721586D01*
X149786148Y-73878414D01*
X149755552Y-74032228D01*
X149695537Y-74177117D01*
X149608408Y-74307515D01*
X149497515Y-74418408D01*
X149367117Y-74505537D01*
X149222228Y-74565552D01*
X149068414Y-74596148D01*
X148911586Y-74596148D01*
X148757772Y-74565552D01*
X148612883Y-74505537D01*
X148482485Y-74418408D01*
X148371592Y-74307515D01*
X148284463Y-74177117D01*
X148224448Y-74032228D01*
X148193852Y-73878414D01*
X148193852Y-73721586D01*
X148224448Y-73567772D01*
X148284463Y-73422883D01*
X148371592Y-73292485D01*
X148482485Y-73181592D01*
X148612883Y-73094463D01*
X148757772Y-73034448D01*
X148911586Y-73003852D01*
X149068414Y-73003852D01*
X149222228Y-73034448D01*
G37*
G36*
X156842228Y-73034448D02*
G01*
X156987117Y-73094463D01*
X157117515Y-73181592D01*
X157228408Y-73292485D01*
X157315537Y-73422883D01*
X157375552Y-73567772D01*
X157406148Y-73721586D01*
X157406148Y-73878414D01*
X157375552Y-74032228D01*
X157315537Y-74177117D01*
X157228408Y-74307515D01*
X157117515Y-74418408D01*
X156987117Y-74505537D01*
X156842228Y-74565552D01*
X156688414Y-74596148D01*
X156531586Y-74596148D01*
X156377772Y-74565552D01*
X156232883Y-74505537D01*
X156102485Y-74418408D01*
X155991592Y-74307515D01*
X155904463Y-74177117D01*
X155844448Y-74032228D01*
X155813852Y-73878414D01*
X155813852Y-73721586D01*
X155844448Y-73567772D01*
X155904463Y-73422883D01*
X155991592Y-73292485D01*
X156102485Y-73181592D01*
X156232883Y-73094463D01*
X156377772Y-73034448D01*
X156531586Y-73003852D01*
X156688414Y-73003852D01*
X156842228Y-73034448D01*
G37*
G36*
X165640285Y-70693060D02*
G01*
X165821397Y-70768079D01*
X165984393Y-70876990D01*
X166123010Y-71015607D01*
X166231921Y-71178603D01*
X166306940Y-71359715D01*
X166345185Y-71551983D01*
X166345185Y-71748017D01*
X166306940Y-71940285D01*
X166231921Y-72121397D01*
X166123010Y-72284393D01*
X165984393Y-72423010D01*
X165821397Y-72531921D01*
X165640285Y-72606940D01*
X165448017Y-72645185D01*
X165251983Y-72645185D01*
X165059715Y-72606940D01*
X164878603Y-72531921D01*
X164715607Y-72423010D01*
X164576990Y-72284393D01*
X164468079Y-72121397D01*
X164393060Y-71940285D01*
X164354815Y-71748017D01*
X164354815Y-71551983D01*
X164393060Y-71359715D01*
X164468079Y-71178603D01*
X164576990Y-71015607D01*
X164715607Y-70876990D01*
X164878603Y-70768079D01*
X165059715Y-70693060D01*
X165251983Y-70654815D01*
X165448017Y-70654815D01*
X165640285Y-70693060D01*
G37*
G36*
X172140285Y-70693060D02*
G01*
X172321397Y-70768079D01*
X172484393Y-70876990D01*
X172623010Y-71015607D01*
X172731921Y-71178603D01*
X172806940Y-71359715D01*
X172845185Y-71551983D01*
X172845185Y-71748017D01*
X172806940Y-71940285D01*
X172731921Y-72121397D01*
X172623010Y-72284393D01*
X172484393Y-72423010D01*
X172321397Y-72531921D01*
X172140285Y-72606940D01*
X171948017Y-72645185D01*
X171751983Y-72645185D01*
X171559715Y-72606940D01*
X171378603Y-72531921D01*
X171215607Y-72423010D01*
X171076990Y-72284393D01*
X170968079Y-72121397D01*
X170893060Y-71940285D01*
X170854815Y-71748017D01*
X170854815Y-71551983D01*
X170893060Y-71359715D01*
X170968079Y-71178603D01*
X171076990Y-71015607D01*
X171215607Y-70876990D01*
X171378603Y-70768079D01*
X171559715Y-70693060D01*
X171751983Y-70654815D01*
X171948017Y-70654815D01*
X172140285Y-70693060D01*
G37*
G36*
X181552228Y-69234448D02*
G01*
X181697117Y-69294463D01*
X181827515Y-69381592D01*
X181938408Y-69492485D01*
X182025537Y-69622883D01*
X182085552Y-69767772D01*
X182116148Y-69921586D01*
X182116148Y-70078414D01*
X182085552Y-70232228D01*
X182025537Y-70377117D01*
X181938408Y-70507515D01*
X181827515Y-70618408D01*
X181697117Y-70705537D01*
X181552228Y-70765552D01*
X181398414Y-70796148D01*
X181241586Y-70796148D01*
X181087772Y-70765552D01*
X180942883Y-70705537D01*
X180812485Y-70618408D01*
X180701592Y-70507515D01*
X180614463Y-70377117D01*
X180554448Y-70232228D01*
X180523852Y-70078414D01*
X180523852Y-69921586D01*
X180554448Y-69767772D01*
X180614463Y-69622883D01*
X180701592Y-69492485D01*
X180812485Y-69381592D01*
X180942883Y-69294463D01*
X181087772Y-69234448D01*
X181241586Y-69203852D01*
X181398414Y-69203852D01*
X181552228Y-69234448D01*
G37*
G36*
X184092228Y-69234448D02*
G01*
X184237117Y-69294463D01*
X184367515Y-69381592D01*
X184478408Y-69492485D01*
X184565537Y-69622883D01*
X184625552Y-69767772D01*
X184656148Y-69921586D01*
X184656148Y-70078414D01*
X184625552Y-70232228D01*
X184565537Y-70377117D01*
X184478408Y-70507515D01*
X184367515Y-70618408D01*
X184237117Y-70705537D01*
X184092228Y-70765552D01*
X183938414Y-70796148D01*
X183781586Y-70796148D01*
X183627772Y-70765552D01*
X183482883Y-70705537D01*
X183352485Y-70618408D01*
X183241592Y-70507515D01*
X183154463Y-70377117D01*
X183094448Y-70232228D01*
X183063852Y-70078414D01*
X183063852Y-69921586D01*
X183094448Y-69767772D01*
X183154463Y-69622883D01*
X183241592Y-69492485D01*
X183352485Y-69381592D01*
X183482883Y-69294463D01*
X183627772Y-69234448D01*
X183781586Y-69203852D01*
X183938414Y-69203852D01*
X184092228Y-69234448D01*
G37*
G36*
X186632228Y-69234448D02*
G01*
X186777117Y-69294463D01*
X186907515Y-69381592D01*
X187018408Y-69492485D01*
X187105537Y-69622883D01*
X187165552Y-69767772D01*
X187196148Y-69921586D01*
X187196148Y-70078414D01*
X187165552Y-70232228D01*
X187105537Y-70377117D01*
X187018408Y-70507515D01*
X186907515Y-70618408D01*
X186777117Y-70705537D01*
X186632228Y-70765552D01*
X186478414Y-70796148D01*
X186321586Y-70796148D01*
X186167772Y-70765552D01*
X186022883Y-70705537D01*
X185892485Y-70618408D01*
X185781592Y-70507515D01*
X185694463Y-70377117D01*
X185634448Y-70232228D01*
X185603852Y-70078414D01*
X185603852Y-69921586D01*
X185634448Y-69767772D01*
X185694463Y-69622883D01*
X185781592Y-69492485D01*
X185892485Y-69381592D01*
X186022883Y-69294463D01*
X186167772Y-69234448D01*
X186321586Y-69203852D01*
X186478414Y-69203852D01*
X186632228Y-69234448D01*
G37*
G36*
X189172228Y-69234448D02*
G01*
X189317117Y-69294463D01*
X189447515Y-69381592D01*
X189558408Y-69492485D01*
X189645537Y-69622883D01*
X189705552Y-69767772D01*
X189736148Y-69921586D01*
X189736148Y-70078414D01*
X189705552Y-70232228D01*
X189645537Y-70377117D01*
X189558408Y-70507515D01*
X189447515Y-70618408D01*
X189317117Y-70705537D01*
X189172228Y-70765552D01*
X189018414Y-70796148D01*
X188861586Y-70796148D01*
X188707772Y-70765552D01*
X188562883Y-70705537D01*
X188432485Y-70618408D01*
X188321592Y-70507515D01*
X188234463Y-70377117D01*
X188174448Y-70232228D01*
X188143852Y-70078414D01*
X188143852Y-69921586D01*
X188174448Y-69767772D01*
X188234463Y-69622883D01*
X188321592Y-69492485D01*
X188432485Y-69381592D01*
X188562883Y-69294463D01*
X188707772Y-69234448D01*
X188861586Y-69203852D01*
X189018414Y-69203852D01*
X189172228Y-69234448D01*
G37*
G36*
X193340285Y-63493060D02*
G01*
X193521397Y-63568079D01*
X193684393Y-63676990D01*
X193823010Y-63815607D01*
X193931921Y-63978603D01*
X194006940Y-64159715D01*
X194045185Y-64351983D01*
X194045185Y-64548017D01*
X194006940Y-64740285D01*
X193931921Y-64921397D01*
X193823010Y-65084393D01*
X193684393Y-65223010D01*
X193521397Y-65331921D01*
X193340285Y-65406940D01*
X193148017Y-65445185D01*
X192951983Y-65445185D01*
X192759715Y-65406940D01*
X192578603Y-65331921D01*
X192415607Y-65223010D01*
X192276990Y-65084393D01*
X192168079Y-64921397D01*
X192093060Y-64740285D01*
X192054815Y-64548017D01*
X192054815Y-64351983D01*
X192093060Y-64159715D01*
X192168079Y-63978603D01*
X192276990Y-63815607D01*
X192415607Y-63676990D01*
X192578603Y-63568079D01*
X192759715Y-63493060D01*
X192951983Y-63454815D01*
X193148017Y-63454815D01*
X193340285Y-63493060D01*
G37*
G36*
X199840285Y-63493060D02*
G01*
X200021397Y-63568079D01*
X200184393Y-63676990D01*
X200323010Y-63815607D01*
X200431921Y-63978603D01*
X200506940Y-64159715D01*
X200545185Y-64351983D01*
X200545185Y-64548017D01*
X200506940Y-64740285D01*
X200431921Y-64921397D01*
X200323010Y-65084393D01*
X200184393Y-65223010D01*
X200021397Y-65331921D01*
X199840285Y-65406940D01*
X199648017Y-65445185D01*
X199451983Y-65445185D01*
X199259715Y-65406940D01*
X199078603Y-65331921D01*
X198915607Y-65223010D01*
X198776990Y-65084393D01*
X198668079Y-64921397D01*
X198593060Y-64740285D01*
X198554815Y-64548017D01*
X198554815Y-64351983D01*
X198593060Y-64159715D01*
X198668079Y-63978603D01*
X198776990Y-63815607D01*
X198915607Y-63676990D01*
X199078603Y-63568079D01*
X199259715Y-63493060D01*
X199451983Y-63454815D01*
X199648017Y-63454815D01*
X199840285Y-63493060D01*
G37*
G36*
X148710000Y-63050000D02*
G01*
X147010000Y-63050000D01*
X147010000Y-61350000D01*
X148710000Y-61350000D01*
X148710000Y-63050000D01*
G37*
G36*
X150646742Y-61386601D02*
G01*
X150800687Y-61450367D01*
X150939234Y-61542941D01*
X151057059Y-61660766D01*
X151149633Y-61799313D01*
X151213399Y-61953258D01*
X151245907Y-62116685D01*
X151245907Y-62283315D01*
X151213399Y-62446742D01*
X151149633Y-62600687D01*
X151057059Y-62739234D01*
X150939234Y-62857059D01*
X150800687Y-62949633D01*
X150646742Y-63013399D01*
X150483315Y-63045907D01*
X150316685Y-63045907D01*
X150153258Y-63013399D01*
X149999313Y-62949633D01*
X149860766Y-62857059D01*
X149742941Y-62739234D01*
X149650367Y-62600687D01*
X149586601Y-62446742D01*
X149554093Y-62283315D01*
X149554093Y-62116685D01*
X149586601Y-61953258D01*
X149650367Y-61799313D01*
X149742941Y-61660766D01*
X149860766Y-61542941D01*
X149999313Y-61450367D01*
X150153258Y-61386601D01*
X150316685Y-61354093D01*
X150483315Y-61354093D01*
X150646742Y-61386601D01*
G37*
G36*
X153186742Y-61386601D02*
G01*
X153340687Y-61450367D01*
X153479234Y-61542941D01*
X153597059Y-61660766D01*
X153689633Y-61799313D01*
X153753399Y-61953258D01*
X153785907Y-62116685D01*
X153785907Y-62283315D01*
X153753399Y-62446742D01*
X153689633Y-62600687D01*
X153597059Y-62739234D01*
X153479234Y-62857059D01*
X153340687Y-62949633D01*
X153186742Y-63013399D01*
X153023315Y-63045907D01*
X152856685Y-63045907D01*
X152693258Y-63013399D01*
X152539313Y-62949633D01*
X152400766Y-62857059D01*
X152282941Y-62739234D01*
X152190367Y-62600687D01*
X152126601Y-62446742D01*
X152094093Y-62283315D01*
X152094093Y-62116685D01*
X152126601Y-61953258D01*
X152190367Y-61799313D01*
X152282941Y-61660766D01*
X152400766Y-61542941D01*
X152539313Y-61450367D01*
X152693258Y-61386601D01*
X152856685Y-61354093D01*
X153023315Y-61354093D01*
X153186742Y-61386601D01*
G37*
G36*
X155726742Y-61386601D02*
G01*
X155880687Y-61450367D01*
X156019234Y-61542941D01*
X156137059Y-61660766D01*
X156229633Y-61799313D01*
X156293399Y-61953258D01*
X156325907Y-62116685D01*
X156325907Y-62283315D01*
X156293399Y-62446742D01*
X156229633Y-62600687D01*
X156137059Y-62739234D01*
X156019234Y-62857059D01*
X155880687Y-62949633D01*
X155726742Y-63013399D01*
X155563315Y-63045907D01*
X155396685Y-63045907D01*
X155233258Y-63013399D01*
X155079313Y-62949633D01*
X154940766Y-62857059D01*
X154822941Y-62739234D01*
X154730367Y-62600687D01*
X154666601Y-62446742D01*
X154634093Y-62283315D01*
X154634093Y-62116685D01*
X154666601Y-61953258D01*
X154730367Y-61799313D01*
X154822941Y-61660766D01*
X154940766Y-61542941D01*
X155079313Y-61450367D01*
X155233258Y-61386601D01*
X155396685Y-61354093D01*
X155563315Y-61354093D01*
X155726742Y-61386601D01*
G37*
G36*
X158266742Y-61386601D02*
G01*
X158420687Y-61450367D01*
X158559234Y-61542941D01*
X158677059Y-61660766D01*
X158769633Y-61799313D01*
X158833399Y-61953258D01*
X158865907Y-62116685D01*
X158865907Y-62283315D01*
X158833399Y-62446742D01*
X158769633Y-62600687D01*
X158677059Y-62739234D01*
X158559234Y-62857059D01*
X158420687Y-62949633D01*
X158266742Y-63013399D01*
X158103315Y-63045907D01*
X157936685Y-63045907D01*
X157773258Y-63013399D01*
X157619313Y-62949633D01*
X157480766Y-62857059D01*
X157362941Y-62739234D01*
X157270367Y-62600687D01*
X157206601Y-62446742D01*
X157174093Y-62283315D01*
X157174093Y-62116685D01*
X157206601Y-61953258D01*
X157270367Y-61799313D01*
X157362941Y-61660766D01*
X157480766Y-61542941D01*
X157619313Y-61450367D01*
X157773258Y-61386601D01*
X157936685Y-61354093D01*
X158103315Y-61354093D01*
X158266742Y-61386601D01*
G37*
G36*
X160806742Y-61386601D02*
G01*
X160960687Y-61450367D01*
X161099234Y-61542941D01*
X161217059Y-61660766D01*
X161309633Y-61799313D01*
X161373399Y-61953258D01*
X161405907Y-62116685D01*
X161405907Y-62283315D01*
X161373399Y-62446742D01*
X161309633Y-62600687D01*
X161217059Y-62739234D01*
X161099234Y-62857059D01*
X160960687Y-62949633D01*
X160806742Y-63013399D01*
X160643315Y-63045907D01*
X160476685Y-63045907D01*
X160313258Y-63013399D01*
X160159313Y-62949633D01*
X160020766Y-62857059D01*
X159902941Y-62739234D01*
X159810367Y-62600687D01*
X159746601Y-62446742D01*
X159714093Y-62283315D01*
X159714093Y-62116685D01*
X159746601Y-61953258D01*
X159810367Y-61799313D01*
X159902941Y-61660766D01*
X160020766Y-61542941D01*
X160159313Y-61450367D01*
X160313258Y-61386601D01*
X160476685Y-61354093D01*
X160643315Y-61354093D01*
X160806742Y-61386601D01*
G37*
G36*
X163346742Y-61386601D02*
G01*
X163500687Y-61450367D01*
X163639234Y-61542941D01*
X163757059Y-61660766D01*
X163849633Y-61799313D01*
X163913399Y-61953258D01*
X163945907Y-62116685D01*
X163945907Y-62283315D01*
X163913399Y-62446742D01*
X163849633Y-62600687D01*
X163757059Y-62739234D01*
X163639234Y-62857059D01*
X163500687Y-62949633D01*
X163346742Y-63013399D01*
X163183315Y-63045907D01*
X163016685Y-63045907D01*
X162853258Y-63013399D01*
X162699313Y-62949633D01*
X162560766Y-62857059D01*
X162442941Y-62739234D01*
X162350367Y-62600687D01*
X162286601Y-62446742D01*
X162254093Y-62283315D01*
X162254093Y-62116685D01*
X162286601Y-61953258D01*
X162350367Y-61799313D01*
X162442941Y-61660766D01*
X162560766Y-61542941D01*
X162699313Y-61450367D01*
X162853258Y-61386601D01*
X163016685Y-61354093D01*
X163183315Y-61354093D01*
X163346742Y-61386601D01*
G37*
G36*
X165886742Y-61386601D02*
G01*
X166040687Y-61450367D01*
X166179234Y-61542941D01*
X166297059Y-61660766D01*
X166389633Y-61799313D01*
X166453399Y-61953258D01*
X166485907Y-62116685D01*
X166485907Y-62283315D01*
X166453399Y-62446742D01*
X166389633Y-62600687D01*
X166297059Y-62739234D01*
X166179234Y-62857059D01*
X166040687Y-62949633D01*
X165886742Y-63013399D01*
X165723315Y-63045907D01*
X165556685Y-63045907D01*
X165393258Y-63013399D01*
X165239313Y-62949633D01*
X165100766Y-62857059D01*
X164982941Y-62739234D01*
X164890367Y-62600687D01*
X164826601Y-62446742D01*
X164794093Y-62283315D01*
X164794093Y-62116685D01*
X164826601Y-61953258D01*
X164890367Y-61799313D01*
X164982941Y-61660766D01*
X165100766Y-61542941D01*
X165239313Y-61450367D01*
X165393258Y-61386601D01*
X165556685Y-61354093D01*
X165723315Y-61354093D01*
X165886742Y-61386601D01*
G37*
G36*
X193340285Y-58993060D02*
G01*
X193521397Y-59068079D01*
X193684393Y-59176990D01*
X193823010Y-59315607D01*
X193931921Y-59478603D01*
X194006940Y-59659715D01*
X194045185Y-59851983D01*
X194045185Y-60048017D01*
X194006940Y-60240285D01*
X193931921Y-60421397D01*
X193823010Y-60584393D01*
X193684393Y-60723010D01*
X193521397Y-60831921D01*
X193340285Y-60906940D01*
X193148017Y-60945185D01*
X192951983Y-60945185D01*
X192759715Y-60906940D01*
X192578603Y-60831921D01*
X192415607Y-60723010D01*
X192276990Y-60584393D01*
X192168079Y-60421397D01*
X192093060Y-60240285D01*
X192054815Y-60048017D01*
X192054815Y-59851983D01*
X192093060Y-59659715D01*
X192168079Y-59478603D01*
X192276990Y-59315607D01*
X192415607Y-59176990D01*
X192578603Y-59068079D01*
X192759715Y-58993060D01*
X192951983Y-58954815D01*
X193148017Y-58954815D01*
X193340285Y-58993060D01*
G37*
G36*
X199840285Y-58993060D02*
G01*
X200021397Y-59068079D01*
X200184393Y-59176990D01*
X200323010Y-59315607D01*
X200431921Y-59478603D01*
X200506940Y-59659715D01*
X200545185Y-59851983D01*
X200545185Y-60048017D01*
X200506940Y-60240285D01*
X200431921Y-60421397D01*
X200323010Y-60584393D01*
X200184393Y-60723010D01*
X200021397Y-60831921D01*
X199840285Y-60906940D01*
X199648017Y-60945185D01*
X199451983Y-60945185D01*
X199259715Y-60906940D01*
X199078603Y-60831921D01*
X198915607Y-60723010D01*
X198776990Y-60584393D01*
X198668079Y-60421397D01*
X198593060Y-60240285D01*
X198554815Y-60048017D01*
X198554815Y-59851983D01*
X198593060Y-59659715D01*
X198668079Y-59478603D01*
X198776990Y-59315607D01*
X198915607Y-59176990D01*
X199078603Y-59068079D01*
X199259715Y-58993060D01*
X199451983Y-58954815D01*
X199648017Y-58954815D01*
X199840285Y-58993060D01*
G37*
G36*
X198089848Y-52776025D02*
G01*
X198321167Y-52851185D01*
X198537881Y-52961606D01*
X198734652Y-53104569D01*
X198906637Y-53276554D01*
X199049600Y-53473325D01*
X199160021Y-53690039D01*
X199235181Y-53921358D01*
X199273230Y-54161586D01*
X199273230Y-54404810D01*
X199235181Y-54645038D01*
X199160021Y-54876357D01*
X199049600Y-55093071D01*
X198906637Y-55289842D01*
X198734652Y-55461827D01*
X198537881Y-55604790D01*
X198321167Y-55715211D01*
X198089848Y-55790371D01*
X197849620Y-55828420D01*
X197606396Y-55828420D01*
X197366168Y-55790371D01*
X197134849Y-55715211D01*
X196918135Y-55604790D01*
X196721364Y-55461827D01*
X196549379Y-55289842D01*
X196406416Y-55093071D01*
X196295995Y-54876357D01*
X196220835Y-54645038D01*
X196182786Y-54404810D01*
X196182786Y-54161586D01*
X196220835Y-53921358D01*
X196295995Y-53690039D01*
X196406416Y-53473325D01*
X196549379Y-53276554D01*
X196721364Y-53104569D01*
X196918135Y-52961606D01*
X197134849Y-52851185D01*
X197366168Y-52776025D01*
X197606396Y-52737976D01*
X197849620Y-52737976D01*
X198089848Y-52776025D01*
G37*
G36*
X121645037Y-52764818D02*
G01*
X121876356Y-52839978D01*
X122093070Y-52950399D01*
X122289841Y-53093362D01*
X122461826Y-53265347D01*
X122604789Y-53462118D01*
X122715210Y-53678832D01*
X122790370Y-53910151D01*
X122828419Y-54150379D01*
X122828419Y-54393603D01*
X122790370Y-54633831D01*
X122715210Y-54865150D01*
X122604789Y-55081864D01*
X122461826Y-55278635D01*
X122289841Y-55450620D01*
X122093070Y-55593583D01*
X121876356Y-55704004D01*
X121645037Y-55779164D01*
X121404809Y-55817213D01*
X121161585Y-55817213D01*
X120921357Y-55779164D01*
X120690038Y-55704004D01*
X120473324Y-55593583D01*
X120276553Y-55450620D01*
X120104568Y-55278635D01*
X119961605Y-55081864D01*
X119851184Y-54865150D01*
X119776024Y-54633831D01*
X119737975Y-54393603D01*
X119737975Y-54150379D01*
X119776024Y-53910151D01*
X119851184Y-53678832D01*
X119961605Y-53462118D01*
X120104568Y-53265347D01*
X120276553Y-53093362D01*
X120473324Y-52950399D01*
X120690038Y-52839978D01*
X120921357Y-52764818D01*
X121161585Y-52726769D01*
X121404809Y-52726769D01*
X121645037Y-52764818D01*
G37*
G36*
X132054850Y-53200964D02*
G01*
X132105040Y-53206787D01*
X132122189Y-53214359D01*
X132145671Y-53219030D01*
X132170810Y-53235827D01*
X132190696Y-53244608D01*
X132204277Y-53258189D01*
X132226777Y-53273223D01*
X132241810Y-53295722D01*
X132255391Y-53309303D01*
X132264170Y-53329186D01*
X132280970Y-53354329D01*
X132285641Y-53377812D01*
X132293212Y-53394959D01*
X132299033Y-53445139D01*
X132300000Y-53450000D01*
X132300000Y-54950000D01*
X132299032Y-54954863D01*
X132293212Y-55005040D01*
X132285641Y-55022185D01*
X132280970Y-55045671D01*
X132264169Y-55070815D01*
X132255391Y-55090696D01*
X132241812Y-55104274D01*
X132226777Y-55126777D01*
X132204274Y-55141812D01*
X132190696Y-55155391D01*
X132170815Y-55164169D01*
X132145671Y-55180970D01*
X132122185Y-55185641D01*
X132105040Y-55193212D01*
X132054861Y-55199032D01*
X132050000Y-55200000D01*
X130550000Y-55200000D01*
X130545138Y-55199032D01*
X130494959Y-55193212D01*
X130477812Y-55185641D01*
X130454329Y-55180970D01*
X130429186Y-55164170D01*
X130409303Y-55155391D01*
X130395722Y-55141810D01*
X130373223Y-55126777D01*
X130358189Y-55104277D01*
X130344608Y-55090696D01*
X130335827Y-55070810D01*
X130319030Y-55045671D01*
X130314359Y-55022189D01*
X130306787Y-55005040D01*
X130300964Y-54954849D01*
X130300000Y-54950000D01*
X130300000Y-53450000D01*
X130300964Y-53445150D01*
X130306787Y-53394959D01*
X130314359Y-53377808D01*
X130319030Y-53354329D01*
X130335826Y-53329191D01*
X130344608Y-53309303D01*
X130358191Y-53295719D01*
X130373223Y-53273223D01*
X130395719Y-53258191D01*
X130409303Y-53244608D01*
X130429191Y-53235826D01*
X130454329Y-53219030D01*
X130477808Y-53214359D01*
X130494959Y-53206787D01*
X130545151Y-53200964D01*
X130550000Y-53200000D01*
X132050000Y-53200000D01*
X132054850Y-53200964D01*
G37*
G36*
X141854850Y-53200964D02*
G01*
X141905040Y-53206787D01*
X141922189Y-53214359D01*
X141945671Y-53219030D01*
X141970810Y-53235827D01*
X141990696Y-53244608D01*
X142004277Y-53258189D01*
X142026777Y-53273223D01*
X142041810Y-53295722D01*
X142055391Y-53309303D01*
X142064170Y-53329186D01*
X142080970Y-53354329D01*
X142085641Y-53377812D01*
X142093212Y-53394959D01*
X142099033Y-53445139D01*
X142100000Y-53450000D01*
X142100000Y-54950000D01*
X142099032Y-54954863D01*
X142093212Y-55005040D01*
X142085641Y-55022185D01*
X142080970Y-55045671D01*
X142064169Y-55070815D01*
X142055391Y-55090696D01*
X142041812Y-55104274D01*
X142026777Y-55126777D01*
X142004274Y-55141812D01*
X141990696Y-55155391D01*
X141970815Y-55164169D01*
X141945671Y-55180970D01*
X141922185Y-55185641D01*
X141905040Y-55193212D01*
X141854861Y-55199032D01*
X141850000Y-55200000D01*
X140350000Y-55200000D01*
X140345138Y-55199032D01*
X140294959Y-55193212D01*
X140277812Y-55185641D01*
X140254329Y-55180970D01*
X140229186Y-55164170D01*
X140209303Y-55155391D01*
X140195722Y-55141810D01*
X140173223Y-55126777D01*
X140158189Y-55104277D01*
X140144608Y-55090696D01*
X140135827Y-55070810D01*
X140119030Y-55045671D01*
X140114359Y-55022189D01*
X140106787Y-55005040D01*
X140100964Y-54954849D01*
X140100000Y-54950000D01*
X140100000Y-53450000D01*
X140100964Y-53445150D01*
X140106787Y-53394959D01*
X140114359Y-53377808D01*
X140119030Y-53354329D01*
X140135826Y-53329191D01*
X140144608Y-53309303D01*
X140158191Y-53295719D01*
X140173223Y-53273223D01*
X140195719Y-53258191D01*
X140209303Y-53244608D01*
X140229191Y-53235826D01*
X140254329Y-53219030D01*
X140277808Y-53214359D01*
X140294959Y-53206787D01*
X140345151Y-53200964D01*
X140350000Y-53200000D01*
X141850000Y-53200000D01*
X141854850Y-53200964D01*
G37*
G36*
X129050285Y-53243060D02*
G01*
X129231397Y-53318079D01*
X129394393Y-53426990D01*
X129533010Y-53565607D01*
X129641921Y-53728603D01*
X129716940Y-53909715D01*
X129755185Y-54101983D01*
X129755185Y-54298017D01*
X129716940Y-54490285D01*
X129641921Y-54671397D01*
X129533010Y-54834393D01*
X129394393Y-54973010D01*
X129231397Y-55081921D01*
X129050285Y-55156940D01*
X128858017Y-55195185D01*
X128661983Y-55195185D01*
X128469715Y-55156940D01*
X128288603Y-55081921D01*
X128125607Y-54973010D01*
X127986990Y-54834393D01*
X127878079Y-54671397D01*
X127803060Y-54490285D01*
X127764815Y-54298017D01*
X127764815Y-54101983D01*
X127803060Y-53909715D01*
X127878079Y-53728603D01*
X127986990Y-53565607D01*
X128125607Y-53426990D01*
X128288603Y-53318079D01*
X128469715Y-53243060D01*
X128661983Y-53204815D01*
X128858017Y-53204815D01*
X129050285Y-53243060D01*
G37*
G36*
X138850285Y-53243060D02*
G01*
X139031397Y-53318079D01*
X139194393Y-53426990D01*
X139333010Y-53565607D01*
X139441921Y-53728603D01*
X139516940Y-53909715D01*
X139555185Y-54101983D01*
X139555185Y-54298017D01*
X139516940Y-54490285D01*
X139441921Y-54671397D01*
X139333010Y-54834393D01*
X139194393Y-54973010D01*
X139031397Y-55081921D01*
X138850285Y-55156940D01*
X138658017Y-55195185D01*
X138461983Y-55195185D01*
X138269715Y-55156940D01*
X138088603Y-55081921D01*
X137925607Y-54973010D01*
X137786990Y-54834393D01*
X137678079Y-54671397D01*
X137603060Y-54490285D01*
X137564815Y-54298017D01*
X137564815Y-54101983D01*
X137603060Y-53909715D01*
X137678079Y-53728603D01*
X137786990Y-53565607D01*
X137925607Y-53426990D01*
X138088603Y-53318079D01*
X138269715Y-53243060D01*
X138461983Y-53204815D01*
X138658017Y-53204815D01*
X138850285Y-53243060D01*
G37*
G36*
X149204850Y-52225964D02*
G01*
X149255040Y-52231787D01*
X149272189Y-52239359D01*
X149295671Y-52244030D01*
X149320810Y-52260827D01*
X149340696Y-52269608D01*
X149354277Y-52283189D01*
X149376777Y-52298223D01*
X149391810Y-52320722D01*
X149405391Y-52334303D01*
X149414170Y-52354186D01*
X149430970Y-52379329D01*
X149435641Y-52402812D01*
X149443212Y-52419959D01*
X149449033Y-52470139D01*
X149450000Y-52475000D01*
X149450000Y-53925000D01*
X149449032Y-53929863D01*
X149443212Y-53980040D01*
X149435641Y-53997185D01*
X149430970Y-54020671D01*
X149414169Y-54045815D01*
X149405391Y-54065696D01*
X149391812Y-54079274D01*
X149376777Y-54101777D01*
X149354274Y-54116812D01*
X149340696Y-54130391D01*
X149320815Y-54139169D01*
X149295671Y-54155970D01*
X149272185Y-54160641D01*
X149255040Y-54168212D01*
X149204861Y-54174032D01*
X149200000Y-54175000D01*
X148000000Y-54175000D01*
X147995138Y-54174032D01*
X147944959Y-54168212D01*
X147927812Y-54160641D01*
X147904329Y-54155970D01*
X147879186Y-54139170D01*
X147859303Y-54130391D01*
X147845722Y-54116810D01*
X147823223Y-54101777D01*
X147808189Y-54079277D01*
X147794608Y-54065696D01*
X147785827Y-54045810D01*
X147769030Y-54020671D01*
X147764359Y-53997189D01*
X147756787Y-53980040D01*
X147750964Y-53929849D01*
X147750000Y-53925000D01*
X147750000Y-52475000D01*
X147750964Y-52470150D01*
X147756787Y-52419959D01*
X147764359Y-52402808D01*
X147769030Y-52379329D01*
X147785826Y-52354191D01*
X147794608Y-52334303D01*
X147808191Y-52320719D01*
X147823223Y-52298223D01*
X147845719Y-52283191D01*
X147859303Y-52269608D01*
X147879191Y-52260826D01*
X147904329Y-52244030D01*
X147927808Y-52239359D01*
X147944959Y-52231787D01*
X147995151Y-52225964D01*
X148000000Y-52225000D01*
X149200000Y-52225000D01*
X149204850Y-52225964D01*
G37*
G36*
X165304850Y-52225964D02*
G01*
X165355040Y-52231787D01*
X165372189Y-52239359D01*
X165395671Y-52244030D01*
X165420810Y-52260827D01*
X165440696Y-52269608D01*
X165454277Y-52283189D01*
X165476777Y-52298223D01*
X165491810Y-52320722D01*
X165505391Y-52334303D01*
X165514170Y-52354186D01*
X165530970Y-52379329D01*
X165535641Y-52402812D01*
X165543212Y-52419959D01*
X165549033Y-52470139D01*
X165550000Y-52475000D01*
X165550000Y-53925000D01*
X165549032Y-53929863D01*
X165543212Y-53980040D01*
X165535641Y-53997185D01*
X165530970Y-54020671D01*
X165514169Y-54045815D01*
X165505391Y-54065696D01*
X165491812Y-54079274D01*
X165476777Y-54101777D01*
X165454274Y-54116812D01*
X165440696Y-54130391D01*
X165420815Y-54139169D01*
X165395671Y-54155970D01*
X165372185Y-54160641D01*
X165355040Y-54168212D01*
X165304861Y-54174032D01*
X165300000Y-54175000D01*
X164100000Y-54175000D01*
X164095138Y-54174032D01*
X164044959Y-54168212D01*
X164027812Y-54160641D01*
X164004329Y-54155970D01*
X163979186Y-54139170D01*
X163959303Y-54130391D01*
X163945722Y-54116810D01*
X163923223Y-54101777D01*
X163908189Y-54079277D01*
X163894608Y-54065696D01*
X163885827Y-54045810D01*
X163869030Y-54020671D01*
X163864359Y-53997189D01*
X163856787Y-53980040D01*
X163850964Y-53929849D01*
X163850000Y-53925000D01*
X163850000Y-52475000D01*
X163850964Y-52470150D01*
X163856787Y-52419959D01*
X163864359Y-52402808D01*
X163869030Y-52379329D01*
X163885826Y-52354191D01*
X163894608Y-52334303D01*
X163908191Y-52320719D01*
X163923223Y-52298223D01*
X163945719Y-52283191D01*
X163959303Y-52269608D01*
X163979191Y-52260826D01*
X164004329Y-52244030D01*
X164027808Y-52239359D01*
X164044959Y-52231787D01*
X164095151Y-52225964D01*
X164100000Y-52225000D01*
X165300000Y-52225000D01*
X165304850Y-52225964D01*
G37*
G36*
X151346742Y-52261601D02*
G01*
X151500687Y-52325367D01*
X151639234Y-52417941D01*
X151757059Y-52535766D01*
X151849633Y-52674313D01*
X151913399Y-52828258D01*
X151945907Y-52991685D01*
X151950000Y-53075000D01*
X151950000Y-53325000D01*
X151945907Y-53408315D01*
X151913399Y-53571742D01*
X151849633Y-53725687D01*
X151757059Y-53864234D01*
X151639234Y-53982059D01*
X151500687Y-54074633D01*
X151346742Y-54138399D01*
X151183315Y-54170907D01*
X151016685Y-54170907D01*
X150853258Y-54138399D01*
X150699313Y-54074633D01*
X150560766Y-53982059D01*
X150442941Y-53864234D01*
X150350367Y-53725687D01*
X150286601Y-53571742D01*
X150254093Y-53408315D01*
X150250000Y-53325000D01*
X150250000Y-53075000D01*
X150254093Y-52991685D01*
X150286601Y-52828258D01*
X150350367Y-52674313D01*
X150442941Y-52535766D01*
X150560766Y-52417941D01*
X150699313Y-52325367D01*
X150853258Y-52261601D01*
X151016685Y-52229093D01*
X151183315Y-52229093D01*
X151346742Y-52261601D01*
G37*
G36*
X153846742Y-52261601D02*
G01*
X154000687Y-52325367D01*
X154139234Y-52417941D01*
X154257059Y-52535766D01*
X154349633Y-52674313D01*
X154413399Y-52828258D01*
X154445907Y-52991685D01*
X154450000Y-53075000D01*
X154450000Y-53325000D01*
X154445907Y-53408315D01*
X154413399Y-53571742D01*
X154349633Y-53725687D01*
X154257059Y-53864234D01*
X154139234Y-53982059D01*
X154000687Y-54074633D01*
X153846742Y-54138399D01*
X153683315Y-54170907D01*
X153516685Y-54170907D01*
X153353258Y-54138399D01*
X153199313Y-54074633D01*
X153060766Y-53982059D01*
X152942941Y-53864234D01*
X152850367Y-53725687D01*
X152786601Y-53571742D01*
X152754093Y-53408315D01*
X152750000Y-53325000D01*
X152750000Y-53075000D01*
X152754093Y-52991685D01*
X152786601Y-52828258D01*
X152850367Y-52674313D01*
X152942941Y-52535766D01*
X153060766Y-52417941D01*
X153199313Y-52325367D01*
X153353258Y-52261601D01*
X153516685Y-52229093D01*
X153683315Y-52229093D01*
X153846742Y-52261601D01*
G37*
G36*
X156346742Y-52261601D02*
G01*
X156500687Y-52325367D01*
X156639234Y-52417941D01*
X156757059Y-52535766D01*
X156849633Y-52674313D01*
X156913399Y-52828258D01*
X156945907Y-52991685D01*
X156950000Y-53075000D01*
X156950000Y-53325000D01*
X156945907Y-53408315D01*
X156913399Y-53571742D01*
X156849633Y-53725687D01*
X156757059Y-53864234D01*
X156639234Y-53982059D01*
X156500687Y-54074633D01*
X156346742Y-54138399D01*
X156183315Y-54170907D01*
X156016685Y-54170907D01*
X155853258Y-54138399D01*
X155699313Y-54074633D01*
X155560766Y-53982059D01*
X155442941Y-53864234D01*
X155350367Y-53725687D01*
X155286601Y-53571742D01*
X155254093Y-53408315D01*
X155250000Y-53325000D01*
X155250000Y-53075000D01*
X155254093Y-52991685D01*
X155286601Y-52828258D01*
X155350367Y-52674313D01*
X155442941Y-52535766D01*
X155560766Y-52417941D01*
X155699313Y-52325367D01*
X155853258Y-52261601D01*
X156016685Y-52229093D01*
X156183315Y-52229093D01*
X156346742Y-52261601D01*
G37*
G36*
X158846742Y-52261601D02*
G01*
X159000687Y-52325367D01*
X159139234Y-52417941D01*
X159257059Y-52535766D01*
X159349633Y-52674313D01*
X159413399Y-52828258D01*
X159445907Y-52991685D01*
X159450000Y-53075000D01*
X159450000Y-53325000D01*
X159445907Y-53408315D01*
X159413399Y-53571742D01*
X159349633Y-53725687D01*
X159257059Y-53864234D01*
X159139234Y-53982059D01*
X159000687Y-54074633D01*
X158846742Y-54138399D01*
X158683315Y-54170907D01*
X158516685Y-54170907D01*
X158353258Y-54138399D01*
X158199313Y-54074633D01*
X158060766Y-53982059D01*
X157942941Y-53864234D01*
X157850367Y-53725687D01*
X157786601Y-53571742D01*
X157754093Y-53408315D01*
X157750000Y-53325000D01*
X157750000Y-53075000D01*
X157754093Y-52991685D01*
X157786601Y-52828258D01*
X157850367Y-52674313D01*
X157942941Y-52535766D01*
X158060766Y-52417941D01*
X158199313Y-52325367D01*
X158353258Y-52261601D01*
X158516685Y-52229093D01*
X158683315Y-52229093D01*
X158846742Y-52261601D01*
G37*
G36*
X167446742Y-52261601D02*
G01*
X167600687Y-52325367D01*
X167739234Y-52417941D01*
X167857059Y-52535766D01*
X167949633Y-52674313D01*
X168013399Y-52828258D01*
X168045907Y-52991685D01*
X168050000Y-53075000D01*
X168050000Y-53325000D01*
X168045907Y-53408315D01*
X168013399Y-53571742D01*
X167949633Y-53725687D01*
X167857059Y-53864234D01*
X167739234Y-53982059D01*
X167600687Y-54074633D01*
X167446742Y-54138399D01*
X167283315Y-54170907D01*
X167116685Y-54170907D01*
X166953258Y-54138399D01*
X166799313Y-54074633D01*
X166660766Y-53982059D01*
X166542941Y-53864234D01*
X166450367Y-53725687D01*
X166386601Y-53571742D01*
X166354093Y-53408315D01*
X166350000Y-53325000D01*
X166350000Y-53075000D01*
X166354093Y-52991685D01*
X166386601Y-52828258D01*
X166450367Y-52674313D01*
X166542941Y-52535766D01*
X166660766Y-52417941D01*
X166799313Y-52325367D01*
X166953258Y-52261601D01*
X167116685Y-52229093D01*
X167283315Y-52229093D01*
X167446742Y-52261601D01*
G37*
G36*
X169946742Y-52261601D02*
G01*
X170100687Y-52325367D01*
X170239234Y-52417941D01*
X170357059Y-52535766D01*
X170449633Y-52674313D01*
X170513399Y-52828258D01*
X170545907Y-52991685D01*
X170550000Y-53075000D01*
X170550000Y-53325000D01*
X170545907Y-53408315D01*
X170513399Y-53571742D01*
X170449633Y-53725687D01*
X170357059Y-53864234D01*
X170239234Y-53982059D01*
X170100687Y-54074633D01*
X169946742Y-54138399D01*
X169783315Y-54170907D01*
X169616685Y-54170907D01*
X169453258Y-54138399D01*
X169299313Y-54074633D01*
X169160766Y-53982059D01*
X169042941Y-53864234D01*
X168950367Y-53725687D01*
X168886601Y-53571742D01*
X168854093Y-53408315D01*
X168850000Y-53325000D01*
X168850000Y-53075000D01*
X168854093Y-52991685D01*
X168886601Y-52828258D01*
X168950367Y-52674313D01*
X169042941Y-52535766D01*
X169160766Y-52417941D01*
X169299313Y-52325367D01*
X169453258Y-52261601D01*
X169616685Y-52229093D01*
X169783315Y-52229093D01*
X169946742Y-52261601D01*
G37*
G36*
X172446742Y-52261601D02*
G01*
X172600687Y-52325367D01*
X172739234Y-52417941D01*
X172857059Y-52535766D01*
X172949633Y-52674313D01*
X173013399Y-52828258D01*
X173045907Y-52991685D01*
X173050000Y-53075000D01*
X173050000Y-53325000D01*
X173045907Y-53408315D01*
X173013399Y-53571742D01*
X172949633Y-53725687D01*
X172857059Y-53864234D01*
X172739234Y-53982059D01*
X172600687Y-54074633D01*
X172446742Y-54138399D01*
X172283315Y-54170907D01*
X172116685Y-54170907D01*
X171953258Y-54138399D01*
X171799313Y-54074633D01*
X171660766Y-53982059D01*
X171542941Y-53864234D01*
X171450367Y-53725687D01*
X171386601Y-53571742D01*
X171354093Y-53408315D01*
X171350000Y-53325000D01*
X171350000Y-53075000D01*
X171354093Y-52991685D01*
X171386601Y-52828258D01*
X171450367Y-52674313D01*
X171542941Y-52535766D01*
X171660766Y-52417941D01*
X171799313Y-52325367D01*
X171953258Y-52261601D01*
X172116685Y-52229093D01*
X172283315Y-52229093D01*
X172446742Y-52261601D01*
G37*
G36*
X174946742Y-52261601D02*
G01*
X175100687Y-52325367D01*
X175239234Y-52417941D01*
X175357059Y-52535766D01*
X175449633Y-52674313D01*
X175513399Y-52828258D01*
X175545907Y-52991685D01*
X175550000Y-53075000D01*
X175550000Y-53325000D01*
X175545907Y-53408315D01*
X175513399Y-53571742D01*
X175449633Y-53725687D01*
X175357059Y-53864234D01*
X175239234Y-53982059D01*
X175100687Y-54074633D01*
X174946742Y-54138399D01*
X174783315Y-54170907D01*
X174616685Y-54170907D01*
X174453258Y-54138399D01*
X174299313Y-54074633D01*
X174160766Y-53982059D01*
X174042941Y-53864234D01*
X173950367Y-53725687D01*
X173886601Y-53571742D01*
X173854093Y-53408315D01*
X173850000Y-53325000D01*
X173850000Y-53075000D01*
X173854093Y-52991685D01*
X173886601Y-52828258D01*
X173950367Y-52674313D01*
X174042941Y-52535766D01*
X174160766Y-52417941D01*
X174299313Y-52325367D01*
X174453258Y-52261601D01*
X174616685Y-52229093D01*
X174783315Y-52229093D01*
X174946742Y-52261601D01*
G37*
G36*
X177446742Y-52261601D02*
G01*
X177600687Y-52325367D01*
X177739234Y-52417941D01*
X177857059Y-52535766D01*
X177949633Y-52674313D01*
X178013399Y-52828258D01*
X178045907Y-52991685D01*
X178050000Y-53075000D01*
X178050000Y-53325000D01*
X178045907Y-53408315D01*
X178013399Y-53571742D01*
X177949633Y-53725687D01*
X177857059Y-53864234D01*
X177739234Y-53982059D01*
X177600687Y-54074633D01*
X177446742Y-54138399D01*
X177283315Y-54170907D01*
X177116685Y-54170907D01*
X176953258Y-54138399D01*
X176799313Y-54074633D01*
X176660766Y-53982059D01*
X176542941Y-53864234D01*
X176450367Y-53725687D01*
X176386601Y-53571742D01*
X176354093Y-53408315D01*
X176350000Y-53325000D01*
X176350000Y-53075000D01*
X176354093Y-52991685D01*
X176386601Y-52828258D01*
X176450367Y-52674313D01*
X176542941Y-52535766D01*
X176660766Y-52417941D01*
X176799313Y-52325367D01*
X176953258Y-52261601D01*
X177116685Y-52229093D01*
X177283315Y-52229093D01*
X177446742Y-52261601D01*
G37*
M02*
