M48
; DRILL file {KiCad 9.0.2} date 2026-05-01T16:20:34-0400
; FORMAT={-:-/ absolute / metric / decimal}
; #@! TF.CreationDate,2026-05-01T16:20:34-04:00
; #@! TF.GenerationSoftware,Kicad,Pcbnew,9.0.2
; #@! TF.FileFunction,Plated,1,4,PTH
FMAT,2
METRIC
; #@! TA.AperFunction,Plated,PTH,ViaDrill
T1C0.300
; #@! TA.AperFunction,Plated,PTH,ComponentDrill
T2C0.750
; #@! TA.AperFunction,Plated,PTH,ComponentDrill
T3C0.800
; #@! TA.AperFunction,Plated,PTH,ComponentDrill
T4C0.950
; #@! TA.AperFunction,Plated,PTH,ComponentDrill
T5C1.000
; #@! TA.AperFunction,Plated,PTH,ComponentDrill
T6C1.100
; #@! TA.AperFunction,Plated,PTH,ComponentDrill
T7C1.200
; #@! TA.AperFunction,Plated,PTH,ComponentDrill
T8C2.700
%
G90
G05
T1
X118.6Y-61.0
X119.05Y-127.85
X119.8Y-110.6
X121.1Y-68.1
X121.2Y-126.5
X122.0Y-58.9
X122.55Y-110.55
X122.75Y-66.4
X122.9Y-70.05
X122.9Y-71.15
X123.8Y-76.9
X123.85Y-70.4
X124.2Y-69.3
X125.35Y-66.35
X125.35Y-69.05
X125.5Y-65.5
X125.5Y-82.25
X125.7Y-51.9
X126.3Y-80.3
X126.6Y-136.8
X126.85Y-70.35
X127.4Y-89.6
X127.5Y-55.55
X127.65Y-82.25
X127.9Y-65.7
X128.0Y-74.5
X128.35Y-66.4
X128.8Y-109.8
X129.3Y-136.9
X129.4Y-106.8
X129.7Y-90.2
X129.9Y-56.15
X130.1Y-75.7
X130.6Y-87.4
X130.7Y-128.3
X130.9Y-79.6
X131.1Y-134.95
X131.1Y-138.8
X132.6Y-116.2
X132.8Y-109.65
X133.2Y-63.7
X133.3Y-66.2
X133.4Y-130.0
X133.6Y-74.4
X133.6Y-119.9
X133.8Y-51.8
X133.875Y-94.8
X134.05Y-109.65
X134.8Y-93.3
X135.318Y-116.812
X136.3Y-94.85
X136.3Y-129.1
X136.4Y-121.1
X136.6Y-77.5
X136.7Y-71.5
X136.8Y-96.5
X137.3Y-55.5
X137.4Y-68.2
X137.4Y-85.4
X137.4Y-87.3
X137.5Y-121.6
X138.1Y-82.1
X138.3Y-61.05
X138.35Y-136.8
X138.5Y-72.6
X138.7Y-113.0
X138.85Y-109.25
X139.3Y-56.2
X139.35Y-87.3
X139.4Y-127.0
X139.6Y-91.3
X139.65Y-62.55
X140.0Y-68.1
X140.05Y-135.0
X140.05Y-138.8
X140.25Y-111.2
X140.7Y-82.2
X140.7Y-90.4
X140.7Y-118.0
X140.8Y-119.3
X141.25Y-93.0
X141.3Y-103.35
X141.35Y-99.0
X141.6Y-79.25
X142.2Y-130.8
X142.3Y-97.2
X143.0Y-117.0
X143.2Y-78.6
X143.2Y-85.8
X143.3Y-61.4
X143.3Y-74.1
X143.3Y-96.6
X143.8Y-129.0
X143.874Y-84.574
X143.9Y-95.8
X144.0Y-116.4
X144.5Y-80.1
X144.5Y-82.912
X145.5Y-89.25
X145.7Y-64.9
X145.7Y-72.6
X145.7Y-84.612
X146.4Y-67.3
X146.4Y-69.6
X146.5Y-92.9
X146.6Y-106.1
X146.7Y-53.5
X147.1Y-121.9
X147.15Y-136.8
X147.4Y-91.15
X147.5Y-100.1
X147.5Y-122.85
X148.5Y-78.65
X148.9Y-138.8
X148.95Y-135.05
X149.2Y-55.4
X149.3Y-90.25
X149.3Y-104.1
X149.4Y-69.8
X149.9Y-65.9
X150.6Y-106.0
X150.746Y-71.639
X150.8Y-102.7
X151.1Y-85.5
X151.85Y-86.75
X152.2Y-59.6
X153.5Y-76.2
X153.6Y-87.9
X153.8Y-125.7
X154.15Y-93.15
X154.4Y-104.1
X154.8Y-87.85
X154.9Y-95.0
X155.6Y-85.1
X156.2Y-76.1
X156.7Y-88.2
X156.9Y-75.3
X157.2Y-88.85
X157.5Y-130.7
X157.7Y-86.0
X157.8Y-59.1
X157.9Y-82.0
X158.999Y-93.251
X159.25Y-89.6
X159.3Y-78.8
X159.7Y-91.55
X160.35Y-93.0
X160.497Y-76.501
X160.6Y-74.2
X160.7Y-114.45
X160.9Y-78.9
X161.2Y-64.8
X161.2Y-96.5
X161.7Y-60.0
X162.7Y-82.1
X162.7Y-126.2
X163.0Y-130.6
X163.1Y-111.6
X163.2Y-106.2
X163.45Y-77.75
X164.7Y-119.15
X165.2Y-58.8
X165.2Y-78.3
X166.95Y-136.95
X167.0Y-58.5
X167.0Y-114.5
X167.1Y-98.9
X168.0Y-91.0
X168.0Y-122.4
X168.65Y-134.95
X168.65Y-138.7
X169.8Y-106.2
X169.8Y-111.5
X170.8Y-79.2
X171.2Y-129.3
X171.35Y-119.45
X171.6Y-66.8
X171.8Y-90.95
X172.35Y-121.15
X172.85Y-78.15
X173.15Y-89.15
X173.5Y-130.0
X173.6Y-55.3
X173.8Y-68.3
X175.5Y-85.65
X175.5Y-115.95
X175.6Y-67.9
X175.6Y-90.1
X176.05Y-104.75
X176.05Y-119.35
X176.1Y-70.9
X176.15Y-55.0
X176.3Y-78.1
X176.7Y-120.9
X177.6Y-94.5
X177.7Y-103.0
X177.95Y-72.55
X178.2Y-79.7
X178.5Y-88.8
X178.6Y-108.3
X179.0Y-67.7
X180.1Y-134.8
X181.5Y-129.5
X181.9Y-59.0
X182.2Y-95.9
X182.4Y-89.5
X182.7Y-134.95
X185.1Y-129.5
X185.2Y-135.0
X186.5Y-55.6
X186.6Y-131.2
X187.2Y-65.6
X187.5Y-110.7
X187.55Y-74.0
X187.85Y-76.4
X188.0Y-71.8
X188.0Y-85.8
X188.2Y-88.7
X188.7Y-131.3
X188.8Y-55.4
X189.0Y-123.1
X189.9Y-90.2
X190.0Y-95.2
X190.15Y-135.15
X190.3Y-71.6
X190.3Y-79.25
X190.5Y-65.7
X190.5Y-98.0
X191.9Y-136.75
X192.45Y-51.3
X193.2Y-110.5
X193.5Y-93.2
X193.7Y-68.6
X194.1Y-116.3
X194.35Y-66.35
X195.5Y-115.2
X196.0Y-72.6
X196.4Y-126.1
X196.6Y-76.1
X197.1Y-90.9
X198.3Y-69.8
X198.6Y-96.3
X199.9Y-122.8
X200.0Y-109.2
X201.0Y-121.3
T2
X184.0Y-89.53
X184.0Y-90.8
X184.0Y-92.07
T3
X148.1Y-120.58
X148.1Y-128.2
X148.99Y-73.8
X152.9Y-120.5
X152.9Y-128.12
X156.61Y-73.8
X157.6Y-120.68
X157.6Y-128.3
X162.3Y-120.59
X162.3Y-128.21
X167.5Y-120.58
X167.5Y-128.2
X175.0Y-106.2
X175.0Y-113.82
X175.0Y-117.6
X175.0Y-125.22
X175.89Y-129.2
X177.54Y-106.2
X177.54Y-113.82
X177.54Y-117.6
X177.54Y-125.22
X177.55Y-90.6
X177.55Y-98.22
X180.08Y-106.2
X180.08Y-113.82
X180.08Y-117.6
X180.08Y-125.22
X181.32Y-70.0
X181.32Y-77.62
X182.62Y-106.2
X182.62Y-113.82
X182.62Y-117.6
X182.62Y-125.22
X183.51Y-129.2
X183.86Y-70.0
X183.86Y-77.62
X183.96Y-52.2
X183.96Y-58.2
X185.16Y-106.2
X185.16Y-113.82
X185.16Y-117.6
X185.16Y-125.22
X186.4Y-70.0
X186.4Y-77.62
X186.5Y-52.2
X186.5Y-58.2
X187.7Y-106.2
X187.7Y-113.82
X187.7Y-117.6
X187.7Y-125.22
X188.94Y-70.0
X188.94Y-77.62
X189.04Y-52.2
X189.04Y-58.2
X190.24Y-106.2
X190.24Y-113.82
X190.24Y-117.6
X190.24Y-125.22
X198.8Y-114.72
X198.8Y-117.26
X198.8Y-119.8
T4
X120.1Y-83.0
X120.1Y-85.5
X120.1Y-88.0
X148.6Y-53.2
X151.1Y-53.2
X153.6Y-53.2
X156.1Y-53.2
X157.6Y-136.9
X158.6Y-53.2
X160.1Y-136.9
X162.6Y-136.9
X164.7Y-53.2
X167.2Y-53.2
X169.7Y-53.2
X172.2Y-53.2
X174.7Y-53.2
X177.2Y-53.2
X177.7Y-136.9
X180.2Y-136.9
X182.7Y-136.9
X185.2Y-136.9
X187.7Y-136.9
X190.2Y-136.9
X198.7Y-77.2
X198.7Y-79.7
X198.7Y-82.2
X198.7Y-84.7
X198.7Y-87.2
X198.7Y-89.7
T5
X131.2Y-136.9
X133.7Y-136.9
X140.1Y-136.9
X142.6Y-136.9
X147.86Y-62.2
X148.9Y-136.9
X150.4Y-62.2
X151.4Y-136.9
X152.94Y-62.2
X155.48Y-62.2
X158.02Y-62.2
X160.56Y-62.2
X163.1Y-62.2
X165.64Y-62.2
X168.7Y-136.9
X171.2Y-136.9
X198.5Y-126.6
X198.5Y-129.1
T6
X165.35Y-71.65
X165.35Y-76.15
X171.85Y-71.65
X171.85Y-76.15
X193.05Y-59.95
X193.05Y-64.45
X199.55Y-59.95
X199.55Y-64.45
T7
X121.2Y-93.26
X121.2Y-95.8
X121.2Y-100.16
X121.2Y-102.7
X121.2Y-106.86
X121.2Y-109.4
X121.2Y-113.56
X121.2Y-116.1
X121.2Y-120.6
X121.2Y-123.14
X121.2Y-127.86
X121.2Y-130.4
X121.282Y-75.3
X121.282Y-77.84
X128.76Y-54.2
X131.3Y-54.2
X138.56Y-54.2
X141.1Y-54.2
X197.4Y-100.96
X197.4Y-103.5
T8
X121.283Y-54.272
X121.3Y-135.7
X197.712Y-135.719
X197.728Y-54.283
M30
