%TF.GenerationSoftware,KiCad,Pcbnew,9.0.2*%
%TF.CreationDate,2026-05-01T16:20:40-04:00*%
%TF.ProjectId,Load-UI_MCU,4c6f6164-2d55-4495-9f4d-43552e6b6963,rev?*%
%TF.SameCoordinates,Original*%
%TF.FileFunction,Copper,L3,Inr*%
%TF.FilePolarity,Positive*%
%FSLAX46Y46*%
G04 Gerber Fmt 4.6, Leading zero omitted, Abs format (unit mm)*
G04 Created by KiCad (PCBNEW 9.0.2) date 2026-05-01 16:20:40*
%MOMM*%
%LPD*%
G01*
G04 APERTURE LIST*
G04 Aperture macros list*
%AMRoundRect*
0 Rectangle with rounded corners*
0 $1 Rounding radius*
0 $2 $3 $4 $5 $6 $7 $8 $9 X,Y pos of 4 corners*
0 Add a 4 corners polygon primitive as box body*
4,1,4,$2,$3,$4,$5,$6,$7,$8,$9,$2,$3,0*
0 Add four circle primitives for the rounded corners*
1,1,$1+$1,$2,$3*
1,1,$1+$1,$4,$5*
1,1,$1+$1,$6,$7*
1,1,$1+$1,$8,$9*
0 Add four rect primitives between the rounded corners*
20,1,$1+$1,$2,$3,$4,$5,0*
20,1,$1+$1,$4,$5,$6,$7,0*
20,1,$1+$1,$6,$7,$8,$9,0*
20,1,$1+$1,$8,$9,$2,$3,0*%
G04 Aperture macros list end*
%TA.AperFunction,ComponentPad*%
%ADD10RoundRect,0.250000X0.600000X0.725000X-0.600000X0.725000X-0.600000X-0.725000X0.600000X-0.725000X0*%
%TD*%
%TA.AperFunction,ComponentPad*%
%ADD11O,1.700000X1.950000*%
%TD*%
%TA.AperFunction,ComponentPad*%
%ADD12RoundRect,0.250000X-0.725000X0.600000X-0.725000X-0.600000X0.725000X-0.600000X0.725000X0.600000X0*%
%TD*%
%TA.AperFunction,ComponentPad*%
%ADD13O,1.950000X1.700000*%
%TD*%
%TA.AperFunction,ComponentPad*%
%ADD14RoundRect,0.250000X-0.750000X0.750000X-0.750000X-0.750000X0.750000X-0.750000X0.750000X0.750000X0*%
%TD*%
%TA.AperFunction,ComponentPad*%
%ADD15C,2.000000*%
%TD*%
%TA.AperFunction,ComponentPad*%
%ADD16C,1.600000*%
%TD*%
%TA.AperFunction,ComponentPad*%
%ADD17RoundRect,0.250000X0.750000X0.750000X-0.750000X0.750000X-0.750000X-0.750000X0.750000X-0.750000X0*%
%TD*%
%TA.AperFunction,ComponentPad*%
%ADD18C,1.440000*%
%TD*%
%TA.AperFunction,ComponentPad*%
%ADD19RoundRect,0.250000X-0.550000X0.550000X-0.550000X-0.550000X0.550000X-0.550000X0.550000X0.550000X0*%
%TD*%
%TA.AperFunction,ComponentPad*%
%ADD20RoundRect,0.250000X0.600000X0.750000X-0.600000X0.750000X-0.600000X-0.750000X0.600000X-0.750000X0*%
%TD*%
%TA.AperFunction,ComponentPad*%
%ADD21O,1.700000X2.000000*%
%TD*%
%TA.AperFunction,ComponentPad*%
%ADD22RoundRect,0.250000X0.750000X-0.750000X0.750000X0.750000X-0.750000X0.750000X-0.750000X-0.750000X0*%
%TD*%
%TA.AperFunction,ComponentPad*%
%ADD23C,3.100000*%
%TD*%
%TA.AperFunction,ComponentPad*%
%ADD24RoundRect,0.250000X0.725000X-0.600000X0.725000X0.600000X-0.725000X0.600000X-0.725000X-0.600000X0*%
%TD*%
%TA.AperFunction,ComponentPad*%
%ADD25RoundRect,0.250000X-0.600000X-0.725000X0.600000X-0.725000X0.600000X0.725000X-0.600000X0.725000X0*%
%TD*%
%TA.AperFunction,ComponentPad*%
%ADD26RoundRect,0.250000X-0.750000X0.600000X-0.750000X-0.600000X0.750000X-0.600000X0.750000X0.600000X0*%
%TD*%
%TA.AperFunction,ComponentPad*%
%ADD27O,2.000000X1.700000*%
%TD*%
%TA.AperFunction,ComponentPad*%
%ADD28R,1.700000X1.700000*%
%TD*%
%TA.AperFunction,ComponentPad*%
%ADD29C,1.700000*%
%TD*%
%TA.AperFunction,ComponentPad*%
%ADD30RoundRect,0.250000X0.550000X-0.550000X0.550000X0.550000X-0.550000X0.550000X-0.550000X-0.550000X0*%
%TD*%
%TA.AperFunction,ComponentPad*%
%ADD31R,1.500000X1.050000*%
%TD*%
%TA.AperFunction,ComponentPad*%
%ADD32O,1.500000X1.050000*%
%TD*%
%TA.AperFunction,ViaPad*%
%ADD33C,0.600000*%
%TD*%
G04 APERTURE END LIST*
D10*
%TO.N,Net-(J19-Pin_1)*%
%TO.C,J19*%
X162600000Y-136900000D03*
D11*
%TO.N,Net-(J19-Pin_2)*%
X160100000Y-136900000D03*
%TO.N,Net-(J19-Pin_3)*%
X157600000Y-136900000D03*
%TD*%
D12*
%TO.N,LCD_D7*%
%TO.C,J2*%
X198700000Y-77200000D03*
D13*
%TO.N,LCD_D6*%
X198700000Y-79700000D03*
%TO.N,LCD_D5*%
X198700000Y-82200000D03*
%TO.N,LCD_D4*%
X198700000Y-84700000D03*
%TO.N,LCD_E*%
X198700000Y-87200000D03*
%TO.N,LCD_RS*%
X198700000Y-89700000D03*
%TD*%
D14*
%TO.N,ConverterOUT_IN+*%
%TO.C,J3*%
X121200000Y-100160000D03*
D15*
X121200000Y-102700000D03*
%TD*%
D16*
%TO.N,Net-(J19-Pin_3)*%
%TO.C,R18*%
X157600000Y-128300000D03*
%TO.N,STOP*%
X157600000Y-120680000D03*
%TD*%
%TO.N,+5V*%
%TO.C,R1*%
X175890000Y-129200000D03*
%TO.N,Net-(J4-Pin_5)*%
X183510000Y-129200000D03*
%TD*%
%TO.N,Net-(J6-Pin_1)*%
%TO.C,R21*%
X162300000Y-128210000D03*
%TO.N,LoaduiMCU_OK*%
X162300000Y-120590000D03*
%TD*%
D14*
%TO.N,Rectifier_IN-*%
%TO.C,J14*%
X121200000Y-113560000D03*
D15*
X121200000Y-116100000D03*
%TD*%
D16*
%TO.N,+5V*%
%TO.C,R13*%
X177550000Y-98220000D03*
%TO.N,RelayIN_Signal*%
X177550000Y-90600000D03*
%TD*%
D17*
%TO.N,External_Power_Supply*%
%TO.C,J11*%
X141100000Y-54200000D03*
D15*
%TO.N,GND*%
X138560000Y-54200000D03*
%TD*%
D18*
%TO.N,GND*%
%TO.C,RV1*%
X198800000Y-119800000D03*
%TO.N,Net-(J4-Pin_2)*%
X198800000Y-117260000D03*
%TO.N,+5V*%
X198800000Y-114720000D03*
%TD*%
D19*
%TO.N,Net-(C16-Pad1)*%
%TO.C,U3*%
X190240000Y-106200000D03*
D16*
%TO.N,/UI/NOT_RECORD*%
X187700000Y-106200000D03*
%TO.N,Converter_Duty*%
X185160000Y-106200000D03*
%TO.N,Net-(IC3-INPUT)*%
X182620000Y-106200000D03*
%TO.N,+3.3V*%
X180080000Y-106200000D03*
%TO.N,unconnected-(U3-Pad6)*%
X177540000Y-106200000D03*
%TO.N,GND*%
X175000000Y-106200000D03*
%TO.N,RECORD*%
X175000000Y-113820000D03*
%TO.N,/UI/NOT_RECORD*%
X177540000Y-113820000D03*
%TO.N,unconnected-(U3-Pad10)*%
X180080000Y-113820000D03*
%TO.N,+3.3V*%
X182620000Y-113820000D03*
%TO.N,unconnected-(U3-Pad12)*%
X185160000Y-113820000D03*
%TO.N,+3.3V*%
X187700000Y-113820000D03*
X190240000Y-113820000D03*
%TD*%
D15*
%TO.N,NRST*%
%TO.C,SW1*%
X193050000Y-59950000D03*
X199550000Y-59950000D03*
%TO.N,GND*%
X193050000Y-64450000D03*
X199550000Y-64450000D03*
%TD*%
D20*
%TO.N,START{slash}STOP_BUTTON *%
%TO.C,J22*%
X171200000Y-136900000D03*
D21*
%TO.N,GND*%
X168700000Y-136900000D03*
%TD*%
D22*
%TO.N,GateDriver_OUT*%
%TO.C,J24*%
X197400000Y-103500000D03*
D15*
%TO.N,RelayIN_Signal*%
X197400000Y-100960000D03*
%TD*%
D23*
%TO.N,N/C*%
%TO.C,REF\u002A\u002A*%
X197711954Y-135718517D03*
%TD*%
D16*
%TO.N,Net-(J19-Pin_2)*%
%TO.C,R19*%
X152900000Y-128120000D03*
%TO.N,START*%
X152900000Y-120500000D03*
%TD*%
D24*
%TO.N,Net-(J9-Pin_1)*%
%TO.C,J9*%
X120100000Y-88000000D03*
D13*
%TO.N,Net-(J9-Pin_2)*%
X120100000Y-85500000D03*
%TO.N,Net-(J9-Pin_3)*%
X120100000Y-83000000D03*
%TD*%
D19*
%TO.N,Net-(C22-Pad1)*%
%TO.C,U4*%
X190240000Y-117600000D03*
D16*
%TO.N,/UI/NOT_RIGHT*%
X187700000Y-117600000D03*
%TO.N,Net-(C9-Pad1)*%
X185160000Y-117600000D03*
%TO.N,/UI/NOT_LEFT*%
X182620000Y-117600000D03*
%TO.N,Net-(C11-Pad1)*%
X180080000Y-117600000D03*
%TO.N,/UI/NOT_START{slash}STOP*%
X177540000Y-117600000D03*
%TO.N,GND*%
X175000000Y-117600000D03*
%TO.N,RIGHT*%
X175000000Y-125220000D03*
%TO.N,/UI/NOT_RIGHT*%
X177540000Y-125220000D03*
%TO.N,LEFT*%
X180080000Y-125220000D03*
%TO.N,/UI/NOT_LEFT*%
X182620000Y-125220000D03*
%TO.N,START{slash}STOP*%
X185160000Y-125220000D03*
%TO.N,/UI/NOT_START{slash}STOP*%
X187700000Y-125220000D03*
%TO.N,+3.3V*%
X190240000Y-125220000D03*
%TD*%
D17*
%TO.N,+5V*%
%TO.C,J10*%
X131300000Y-54200000D03*
D15*
%TO.N,GND*%
X128760000Y-54200000D03*
%TD*%
D25*
%TO.N,SD_MISO*%
%TO.C,J8*%
X164700000Y-53200000D03*
D11*
%TO.N,SD_SCK*%
X167200000Y-53200000D03*
%TO.N,SD_MOSI*%
X169700000Y-53200000D03*
%TO.N,SD_CS*%
X172200000Y-53200000D03*
%TO.N,GND*%
X174700000Y-53200000D03*
%TO.N,+3.3V*%
X177200000Y-53200000D03*
%TD*%
D20*
%TO.N,LEFT_BUTTON *%
%TO.C,J21*%
X151400000Y-136900000D03*
D21*
%TO.N,GND*%
X148900000Y-136900000D03*
%TD*%
D20*
%TO.N,RECORD_BUTTON*%
%TO.C,J23*%
X133700000Y-136900000D03*
D21*
%TO.N,GND*%
X131200000Y-136900000D03*
%TD*%
D15*
%TO.N,GND*%
%TO.C,SW2*%
X171850000Y-76150000D03*
X165350000Y-76150000D03*
%TO.N,Net-(IC1-PB22)*%
X171850000Y-71650000D03*
X165350000Y-71650000D03*
%TD*%
D25*
%TO.N,GND*%
%TO.C,J1*%
X148600000Y-53200000D03*
D11*
%TO.N,+5V*%
X151100000Y-53200000D03*
%TO.N,Critical_Condition*%
X153600000Y-53200000D03*
%TO.N,UART1_TX*%
X156100000Y-53200000D03*
%TO.N,UART1_RX*%
X158600000Y-53200000D03*
%TD*%
D14*
%TO.N,GND*%
%TO.C,J13*%
X121200000Y-127860000D03*
D15*
%TO.N,RECTIFIER_VBUS*%
X121200000Y-130400000D03*
%TD*%
D26*
%TO.N,Net-(J6-Pin_1)*%
%TO.C,J6*%
X198500000Y-126600000D03*
D27*
%TO.N,Net-(J6-Pin_2)*%
X198500000Y-129100000D03*
%TD*%
D14*
%TO.N,ConverterOUT_IN-*%
%TO.C,J16*%
X121200000Y-93260000D03*
D15*
X121200000Y-95800000D03*
%TD*%
D14*
%TO.N,GND*%
%TO.C,J7*%
X121282500Y-75300000D03*
D15*
X121282500Y-77840000D03*
%TD*%
D23*
%TO.N,N/C*%
%TO.C,REF\u002A\u002A*%
X121300000Y-135700000D03*
%TD*%
D28*
%TO.N,+3.3V*%
%TO.C,J15*%
X147860000Y-62200000D03*
D29*
%TO.N,GND*%
X150400000Y-62200000D03*
%TO.N,SWDIO*%
X152940000Y-62200000D03*
%TO.N,SWDCLK*%
X155480000Y-62200000D03*
%TO.N,UART0_RX_XDS*%
X158020000Y-62200000D03*
%TO.N,UART0_TX_XDS*%
X160560000Y-62200000D03*
%TO.N,NRST*%
X163100000Y-62200000D03*
%TO.N,+5V*%
X165640000Y-62200000D03*
%TD*%
D16*
%TO.N,Switch_Relay*%
%TO.C,R14*%
X148990000Y-73800000D03*
%TO.N,Net-(Q2-B)*%
X156610000Y-73800000D03*
%TD*%
D30*
%TO.N,Highest_Power_Supply*%
%TO.C,IC3*%
X181320000Y-77620000D03*
D16*
%TO.N,Net-(IC3-INPUT)*%
X183860000Y-77620000D03*
%TO.N,unconnected-(IC3-NC-Pad3)*%
X186400000Y-77620000D03*
%TO.N,GND*%
X188940000Y-77620000D03*
X188940000Y-70000000D03*
%TO.N,GateDriver_OUT*%
X186400000Y-70000000D03*
X183860000Y-70000000D03*
%TO.N,Highest_Power_Supply*%
X181320000Y-70000000D03*
%TD*%
D14*
%TO.N,Rectifier_IN+*%
%TO.C,J5*%
X121200000Y-120600000D03*
D15*
X121200000Y-123140000D03*
%TD*%
D23*
%TO.N,N/C*%
%TO.C,REF\u002A\u002A*%
X121283197Y-54271991D03*
%TD*%
D31*
%TO.N,GND*%
%TO.C,Q2*%
X184000000Y-89530000D03*
D32*
%TO.N,Net-(Q2-B)*%
X184000000Y-90800000D03*
%TO.N,RelayIN_Signal*%
X184000000Y-92070000D03*
%TD*%
D14*
%TO.N,ConverterOUT_VBUS*%
%TO.C,J12*%
X121200000Y-106860000D03*
D15*
%TO.N,GND*%
X121200000Y-109400000D03*
%TD*%
D23*
%TO.N,N/C*%
%TO.C,REF\u002A\u002A*%
X197728008Y-54283198D03*
%TD*%
D16*
%TO.N,Net-(J6-Pin_2)*%
%TO.C,R12*%
X167500000Y-128200000D03*
%TO.N,TurbineMCU_OK*%
X167500000Y-120580000D03*
%TD*%
D10*
%TO.N,GND*%
%TO.C,J4*%
X190200000Y-136900000D03*
D11*
%TO.N,Net-(J4-Pin_2)*%
X187700000Y-136900000D03*
%TO.N,GND*%
X185200000Y-136900000D03*
X182700000Y-136900000D03*
%TO.N,Net-(J4-Pin_5)*%
X180200000Y-136900000D03*
%TO.N,+5V*%
X177700000Y-136900000D03*
%TD*%
D16*
%TO.N,Net-(J19-Pin_1)*%
%TO.C,R20*%
X148100000Y-128200000D03*
%TO.N,RECORD*%
X148100000Y-120580000D03*
%TD*%
D20*
%TO.N,RIGHT_BUTTON *%
%TO.C,J20*%
X142600000Y-136900000D03*
D21*
%TO.N,GND*%
X140100000Y-136900000D03*
%TD*%
D33*
%TO.N,+3.3V*%
X175600000Y-90100000D03*
X136600000Y-77500000D03*
X175500000Y-85650000D03*
X154900000Y-95000000D03*
X138100000Y-82100000D03*
X146600000Y-106100000D03*
X155600000Y-85100000D03*
X147500000Y-100100000D03*
%TO.N,+5V*%
X133800000Y-51800000D03*
X171600000Y-66800000D03*
%TO.N,NRST*%
X157700000Y-86000000D03*
%TO.N,Net-(IC1-PA21_{slash}_A1_7_{slash}_VREF-)*%
X149300000Y-90250000D03*
X154150000Y-93150000D03*
%TO.N,SD_CS*%
X159300000Y-78800000D03*
X167000000Y-58500000D03*
%TO.N,UART1_RX*%
X162700000Y-82100000D03*
%TO.N,/Load/ConverterIN_MISO*%
X143300000Y-96600000D03*
X143000000Y-117000000D03*
X143200000Y-85800000D03*
%TO.N,/Load/ConverterIN_SCLK*%
X144000000Y-116400000D03*
X143900000Y-95800000D03*
X144500000Y-82912000D03*
%TO.N,UART0_RX_XDS*%
X153500000Y-76200000D03*
%TO.N,/Load/ConverterIN_MOSI*%
X142300000Y-97200000D03*
X143874265Y-84574265D03*
X140700000Y-118000000D03*
%TO.N,/Load/ConverterIN_CS*%
X145700000Y-84612000D03*
X140800000Y-119300000D03*
%TO.N,STOP*%
X159250000Y-89600000D03*
%TO.N,SWDIO*%
X151100000Y-85500000D03*
%TO.N,SWDCLK*%
X151850000Y-86750000D03*
%TO.N,UART0_TX_XDS*%
X156900000Y-75300000D03*
%TO.N,UART1_TX*%
X160900000Y-78900000D03*
%TO.N,RIGHT*%
X171350000Y-119450000D03*
X157200000Y-88850000D03*
%TO.N,TurbineMCU_OK*%
X147500000Y-122850000D03*
X153600000Y-87900000D03*
%TO.N,LEFT*%
X172350000Y-121150000D03*
X156700000Y-88200000D03*
%TO.N,LoaduiMCU_OK*%
X147100000Y-121900000D03*
X154800000Y-87850000D03*
%TO.N,START*%
X159700000Y-91550000D03*
%TO.N,Critical_Condition*%
X150745600Y-71639200D03*
X152200000Y-59600000D03*
%TO.N,START{slash}STOP*%
X164700000Y-119150000D03*
X160350000Y-93000000D03*
%TO.N,Converter_Duty*%
X150800000Y-102700000D03*
X148500000Y-78650000D03*
%TO.N,SD_MOSI*%
X160497471Y-76501000D03*
X165200000Y-58800000D03*
%TO.N,SD_SCK*%
X161200000Y-64800000D03*
X156200000Y-76100000D03*
%TO.N,/Load/ConverterIN_ALERT*%
X136400000Y-121100000D03*
X145500000Y-89250000D03*
%TO.N,SD_MISO*%
X160600000Y-74200000D03*
X161700000Y-60000000D03*
%TO.N,Net-(IC1-PB22)*%
X163450000Y-77750000D03*
X157900000Y-82000000D03*
%TO.N,/Load/ConverterOUT_CS*%
X141350000Y-99000000D03*
X141300000Y-103350000D03*
%TO.N,RECORD*%
X158999265Y-93250735D03*
%TO.N,GateDriver_OUT*%
X187550000Y-74000000D03*
%TO.N,GND*%
X121100000Y-68100000D03*
X180100000Y-134800000D03*
X154400000Y-104100000D03*
X143800000Y-129000000D03*
X142200000Y-130800000D03*
X178200000Y-79700000D03*
X148900000Y-138800000D03*
X127650000Y-82250000D03*
X187200000Y-65600000D03*
X186600000Y-131200000D03*
X141600000Y-79250000D03*
X140700000Y-90400000D03*
X175500000Y-115950000D03*
X163200000Y-106200000D03*
X169800000Y-111500000D03*
X140250000Y-111200000D03*
X125500000Y-65500000D03*
X179000000Y-67700000D03*
X138350000Y-136800000D03*
X189000000Y-123100000D03*
X176050000Y-104750000D03*
X125700000Y-51900000D03*
X196000000Y-72600000D03*
X169800000Y-106200000D03*
X201000000Y-121300000D03*
X190500000Y-65700000D03*
X126300000Y-80300000D03*
X177600000Y-94500000D03*
X148950000Y-135050000D03*
X181900000Y-59000000D03*
X198600000Y-96300000D03*
X123850000Y-70400000D03*
X200000000Y-109200000D03*
X192450000Y-51300000D03*
X139600000Y-91300000D03*
X132800000Y-109650000D03*
X137400000Y-87300000D03*
X139400000Y-127000000D03*
X149200000Y-55400000D03*
X145700000Y-64900000D03*
X185100000Y-129500000D03*
X194350000Y-66350000D03*
X128800000Y-109800000D03*
X136800000Y-96500000D03*
X127400000Y-89600000D03*
X132600000Y-116200000D03*
X143300000Y-74100000D03*
X128000000Y-74500000D03*
X190300000Y-71600000D03*
X138850000Y-109250000D03*
X127900000Y-65700000D03*
X136300000Y-129100000D03*
X168000000Y-122400000D03*
X131100000Y-134950000D03*
X141250000Y-93000000D03*
X199900000Y-122800000D03*
X162700000Y-126200000D03*
X125350000Y-66350000D03*
X130900000Y-79600000D03*
X122000000Y-58900000D03*
X168000000Y-91000000D03*
X198300000Y-69800000D03*
X140050000Y-135000000D03*
X176150000Y-55000000D03*
X196600000Y-76100000D03*
X149900000Y-65900000D03*
X131100000Y-138800000D03*
X119050000Y-127850000D03*
X187850000Y-76400000D03*
X122550000Y-110550000D03*
X182200000Y-95900000D03*
X182700000Y-134950000D03*
X173500000Y-130000000D03*
X171800000Y-90950000D03*
X171200000Y-129300000D03*
X137400000Y-85400000D03*
X166950000Y-136950000D03*
X178500000Y-88800000D03*
X193200000Y-110500000D03*
X163100000Y-111600000D03*
X188000000Y-71800000D03*
X190300000Y-79250000D03*
X130600000Y-87400000D03*
X121200000Y-126500000D03*
X140700000Y-82200000D03*
X190000000Y-95200000D03*
X129300000Y-136900000D03*
X122900000Y-71150000D03*
X177700000Y-103000000D03*
X178600000Y-108300000D03*
X172850000Y-78150000D03*
X149300000Y-104100000D03*
X146400000Y-69600000D03*
X188200000Y-88700000D03*
X134050000Y-109650000D03*
X153800000Y-125700000D03*
X185200000Y-135000000D03*
X125350000Y-69050000D03*
X196400000Y-126100000D03*
X188000000Y-85800000D03*
X140050000Y-138800000D03*
X137400000Y-68200000D03*
X161200000Y-96500000D03*
X139300000Y-56200000D03*
X119800000Y-110600000D03*
X190500000Y-98000000D03*
X133600000Y-74400000D03*
X138300000Y-61050000D03*
X188700000Y-131300000D03*
X165200000Y-78300000D03*
X149400000Y-69800000D03*
X194100000Y-116300000D03*
X193500000Y-93200000D03*
X137300000Y-55500000D03*
X126600000Y-136800000D03*
X170800000Y-79200000D03*
X191900000Y-136750000D03*
X123800000Y-76900000D03*
X168650000Y-138700000D03*
X177950000Y-72550000D03*
X143300000Y-61400000D03*
X150600000Y-106000000D03*
X139650000Y-62550000D03*
X146700000Y-53500000D03*
X147400000Y-91150000D03*
X133300000Y-66200000D03*
X190150000Y-135150000D03*
X136300000Y-94850000D03*
X135317670Y-116811651D03*
X129400000Y-106800000D03*
X125500000Y-82250000D03*
X167100000Y-98900000D03*
X176700000Y-120900000D03*
X127500000Y-55550000D03*
X195500000Y-115200000D03*
X168650000Y-134950000D03*
X138700000Y-113000000D03*
X157500000Y-130700000D03*
X182400000Y-89500000D03*
X137500000Y-121600000D03*
X118600000Y-61000000D03*
X163000000Y-130600000D03*
X144500000Y-80100000D03*
X173150000Y-89150000D03*
X136700000Y-71500000D03*
X147150000Y-136800000D03*
X128350000Y-66400000D03*
X133875000Y-94800000D03*
X140000000Y-68100000D03*
X176100000Y-70900000D03*
X134800000Y-93300000D03*
X181500000Y-129500000D03*
X176050000Y-119350000D03*
X146500000Y-92900000D03*
X143200000Y-78600000D03*
X139350000Y-87300000D03*
X126850000Y-70350000D03*
X124200000Y-69300000D03*
X187500000Y-110700000D03*
X129900000Y-56150000D03*
X188800000Y-55400000D03*
X122900000Y-70050000D03*
X133400000Y-130000000D03*
X189900000Y-90200000D03*
X129700000Y-90200000D03*
X176300000Y-78100000D03*
X193700000Y-68600000D03*
X146400000Y-67300000D03*
X122750000Y-66400000D03*
X157800000Y-59100000D03*
X197100000Y-90900000D03*
X173600000Y-55300000D03*
%TO.N,LEFT_BUTTON *%
X160700000Y-114450000D03*
%TO.N,START{slash}STOP_BUTTON *%
X167000000Y-114500000D03*
%TO.N,Net-(Q2-B)*%
X173800000Y-68300000D03*
%TO.N,External_Power_Supply*%
X133200000Y-63700000D03*
X130100000Y-75700000D03*
%TO.N,Net-(IC4-OV1)*%
X145700000Y-72600000D03*
X138500000Y-72600000D03*
%TO.N,SELECT_CONVERTER*%
X186500000Y-55600000D03*
X175600000Y-67900000D03*
%TO.N,RECTIFIER_VBUS*%
X133600000Y-119900000D03*
X130700000Y-128300000D03*
%TD*%
M02*
