M48
; DRILL file {KiCad 9.0.2} date 2026-05-21T07:54:46-0400
; FORMAT={-:-/ absolute / metric / decimal}
; #@! TF.CreationDate,2026-05-21T07:54:46-04:00
; #@! TF.GenerationSoftware,Kicad,Pcbnew,9.0.2
; #@! TF.FileFunction,Plated,1,4,PTH
FMAT,2
METRIC
; #@! TA.AperFunction,Plated,PTH,ViaDrill
T1C0.300
; #@! TA.AperFunction,Plated,PTH,ComponentDrill
T2C0.750
; #@! TA.AperFunction,Plated,PTH,ComponentDrill
T3C0.800
; #@! TA.AperFunction,Plated,PTH,ComponentDrill
T4C0.950
; #@! TA.AperFunction,Plated,PTH,ComponentDrill
T5C1.000
; #@! TA.AperFunction,Plated,PTH,ComponentDrill
T6C1.100
; #@! TA.AperFunction,Plated,PTH,ComponentDrill
T7C1.200
; #@! TA.AperFunction,Plated,PTH,ComponentDrill
T8C2.700
%
G90
G05
T1
X118.25Y-65.9
X118.3Y-83.15
X118.5Y-57.8
X118.7Y-72.3
X119.0Y-90.05
X119.05Y-127.85
X119.15Y-81.1
X119.3Y-75.3
X119.5Y-76.6
X119.7Y-60.55
X119.8Y-110.6
X119.9Y-69.3
X119.9Y-79.1
X121.2Y-126.5
X121.75Y-72.2
X122.05Y-81.85
X122.05Y-89.25
X122.55Y-110.55
X123.1Y-75.3
X123.4Y-67.3
X123.8Y-76.9
X124.8Y-70.5
X125.5Y-82.25
X126.3Y-80.3
X126.6Y-136.8
X127.35Y-66.4
X127.4Y-89.6
X127.65Y-82.25
X127.75Y-55.45
X128.0Y-59.45
X128.8Y-109.8
X129.1Y-65.35
X129.1Y-67.85
X129.3Y-136.9
X129.4Y-91.45
X129.4Y-106.8
X129.45Y-80.55
X129.9Y-56.15
X130.1Y-89.3
X130.3Y-68.3
X130.35Y-78.25
X130.6Y-87.4
X130.7Y-128.3
X131.1Y-69.2
X131.1Y-134.95
X131.1Y-138.8
X131.55Y-65.95
X131.55Y-74.85
X131.85Y-68.3
X132.5Y-80.35
X132.8Y-109.65
X132.9Y-89.45
X133.012Y-69.025
X133.012Y-70.025
X133.4Y-130.0
X133.6Y-119.9
X133.65Y-77.95
X133.7Y-82.75
X133.875Y-94.8
X133.9Y-111.2
X134.162Y-66.075
X134.162Y-67.375
X134.162Y-68.775
X134.312Y-65.225
X134.8Y-93.3
X135.318Y-116.812
X135.55Y-54.35
X135.662Y-70.075
X136.3Y-129.1
X136.4Y-51.3
X136.4Y-121.1
X136.5Y-94.9
X136.713Y-65.425
X136.8Y-74.0
X136.8Y-96.5
X137.162Y-66.125
X137.3Y-55.5
X137.4Y-87.3
X137.5Y-121.6
X137.65Y-85.85
X137.75Y-81.7
X138.1Y-93.05
X138.35Y-136.8
X138.65Y-65.2
X138.7Y-109.7
X138.7Y-113.0
X139.3Y-56.2
X139.35Y-87.3
X139.4Y-127.0
X139.6Y-58.8
X139.6Y-91.5
X139.85Y-77.95
X139.9Y-80.45
X140.05Y-135.0
X140.05Y-138.8
X140.25Y-111.2
X140.7Y-118.0
X140.8Y-93.0
X140.8Y-119.3
X141.15Y-79.2
X141.3Y-103.35
X141.35Y-99.0
X141.45Y-94.2
X142.0Y-74.4
X142.2Y-130.8
X142.45Y-79.05
X143.0Y-66.3
X143.0Y-117.0
X143.05Y-64.3
X143.2Y-85.8
X143.55Y-70.2
X143.8Y-129.0
X143.874Y-84.574
X144.0Y-116.4
X144.4Y-82.5
X145.5Y-89.25
X145.7Y-84.612
X146.35Y-66.6
X146.4Y-64.5
X146.5Y-92.9
X146.6Y-106.1
X146.7Y-53.5
X146.85Y-85.7
X147.1Y-121.9
X147.15Y-136.8
X147.162Y-82.012
X147.4Y-91.15
X147.5Y-100.1
X147.5Y-122.85
X147.9Y-71.5
X148.15Y-126.35
X148.6Y-54.95
X148.9Y-138.8
X148.95Y-135.05
X149.3Y-104.1
X149.7Y-90.25
X150.15Y-76.45
X150.6Y-106.0
X150.8Y-102.7
X151.1Y-81.85
X151.1Y-83.0
X151.1Y-84.1
X151.1Y-85.5
X151.1Y-88.5
X151.2Y-87.012
X152.2Y-59.6
X152.5Y-118.35
X153.6Y-87.9
X153.8Y-125.7
X154.15Y-93.15
X154.4Y-104.1
X154.65Y-85.55
X154.65Y-86.75
X154.8Y-87.85
X154.9Y-95.0
X155.55Y-86.8
X155.6Y-73.7
X156.0Y-88.0
X156.2Y-76.1
X156.9Y-86.75
X157.1Y-73.1
X157.475Y-85.925
X157.5Y-82.3
X157.5Y-130.7
X157.65Y-83.6
X157.8Y-59.1
X157.8Y-87.9
X158.2Y-84.2
X158.2Y-88.7
X158.55Y-112.0
X159.25Y-89.6
X159.3Y-78.8
X159.7Y-91.55
X160.3Y-118.3
X160.35Y-93.0
X160.497Y-76.501
X160.6Y-74.2
X160.7Y-114.45
X160.9Y-78.9
X160.9Y-95.1
X161.0Y-64.7
X161.2Y-98.4
X161.7Y-60.0
X162.7Y-82.1
X162.7Y-126.2
X163.0Y-97.1
X163.0Y-130.6
X163.1Y-111.6
X163.2Y-106.2
X163.45Y-77.75
X164.7Y-119.15
X165.2Y-58.8
X165.2Y-78.3
X166.8Y-99.1
X166.95Y-136.95
X167.0Y-58.5
X167.0Y-114.5
X167.2Y-97.9
X168.0Y-91.0
X168.0Y-122.4
X168.5Y-105.4
X168.65Y-134.95
X168.65Y-138.7
X168.7Y-84.7
X169.8Y-103.9
X169.8Y-111.5
X170.6Y-77.8
X171.2Y-129.3
X171.6Y-64.7
X172.1Y-127.0
X172.2Y-91.0
X172.9Y-74.5
X173.15Y-89.15
X173.5Y-130.0
X173.6Y-55.3
X173.8Y-104.9
X173.9Y-64.2
X173.9Y-66.8
X173.9Y-107.5
X174.0Y-122.3
X174.7Y-96.6
X175.5Y-85.65
X175.6Y-67.9
X175.6Y-90.1
X176.0Y-104.8
X176.1Y-70.9
X176.15Y-55.0
X176.2Y-94.0
X176.2Y-107.4
X176.2Y-125.6
X176.3Y-116.7
X176.8Y-77.7
X177.2Y-79.3
X177.4Y-85.9
X177.95Y-72.55
X178.2Y-79.7
X178.3Y-122.6
X178.6Y-84.6
X178.6Y-108.3
X178.8Y-89.6
X179.0Y-67.7
X179.4Y-110.2
X180.1Y-134.8
X181.0Y-125.5
X181.2Y-116.8
X181.5Y-129.5
X181.8Y-62.7
X182.0Y-58.4
X182.2Y-95.9
X182.7Y-135.2
X183.8Y-84.7
X183.8Y-89.2
X185.1Y-129.5
X185.2Y-135.0
X186.0Y-123.1
X186.5Y-55.6
X186.5Y-66.6
X186.6Y-116.7
X186.6Y-131.0
X186.7Y-125.7
X187.2Y-65.6
X187.4Y-67.7
X187.5Y-110.7
X187.55Y-74.0
X187.6Y-79.8
X187.85Y-76.4
X188.0Y-71.8
X188.0Y-85.8
X188.2Y-88.7
X188.7Y-131.3
X188.8Y-55.4
X188.8Y-103.4
X189.9Y-90.2
X190.0Y-95.2
X190.1Y-78.7
X190.15Y-135.15
X190.3Y-71.6
X190.3Y-125.8
X190.4Y-122.8
X190.5Y-65.7
X190.5Y-116.7
X191.7Y-110.1
X191.9Y-136.75
X192.45Y-51.3
X193.1Y-57.4
X193.4Y-96.6
X193.5Y-93.2
X193.7Y-68.6
X194.1Y-116.3
X194.3Y-56.2
X194.35Y-66.35
X195.5Y-115.2
X196.0Y-72.6
X196.0Y-107.6
X196.4Y-126.1
X196.6Y-76.1
X197.1Y-90.9
X197.7Y-109.0
X198.3Y-69.8
X198.6Y-96.3
X199.9Y-122.8
X201.0Y-121.3
T2
X184.0Y-91.16
X184.0Y-92.43
X184.0Y-93.7
T3
X148.1Y-120.58
X148.1Y-128.2
X152.9Y-120.5
X152.9Y-128.12
X157.6Y-120.68
X157.6Y-128.3
X162.3Y-120.59
X162.3Y-128.21
X167.5Y-120.58
X167.5Y-128.2
X175.0Y-106.2
X175.0Y-113.82
X175.89Y-129.2
X177.54Y-106.2
X177.54Y-113.82
X180.08Y-106.2
X180.08Y-113.82
X181.32Y-70.0
X181.32Y-77.62
X182.62Y-106.2
X182.62Y-113.82
X183.51Y-129.2
X183.86Y-70.0
X183.86Y-77.62
X183.96Y-52.1
X183.96Y-58.1
X185.16Y-106.2
X185.16Y-113.82
X186.4Y-70.0
X186.4Y-77.62
X186.5Y-52.1
X186.5Y-58.1
X187.7Y-106.2
X187.7Y-113.82
X188.94Y-70.0
X188.94Y-77.62
X189.04Y-52.1
X189.04Y-58.1
X190.24Y-106.2
X190.24Y-113.82
X198.8Y-114.72
X198.8Y-117.26
X198.8Y-119.8
T4
X120.1Y-83.0
X120.1Y-85.5
X120.1Y-88.0
X148.6Y-53.2
X151.1Y-53.2
X153.6Y-53.2
X156.1Y-53.2
X157.6Y-136.9
X158.6Y-53.2
X160.1Y-136.9
X162.6Y-136.9
X164.7Y-53.2
X167.2Y-53.2
X169.7Y-53.2
X172.2Y-53.2
X174.7Y-53.2
X177.2Y-53.2
X177.7Y-136.9
X180.2Y-136.9
X182.7Y-136.9
X185.2Y-136.9
X187.7Y-136.9
X190.2Y-136.9
X198.7Y-77.2
X198.7Y-79.7
X198.7Y-82.2
X198.7Y-84.7
X198.7Y-87.2
X198.7Y-89.7
T5
X131.2Y-136.9
X133.7Y-136.9
X140.1Y-136.9
X142.6Y-136.9
X147.86Y-62.2
X148.9Y-136.9
X150.4Y-62.2
X151.4Y-136.9
X152.94Y-62.2
X155.48Y-62.2
X158.02Y-62.2
X160.56Y-62.2
X163.1Y-62.2
X165.64Y-62.2
X168.7Y-136.9
X171.2Y-136.9
X198.5Y-126.6
X198.5Y-129.1
T6
X165.35Y-71.65
X165.35Y-76.15
X171.85Y-71.65
X171.85Y-76.15
X193.05Y-59.95
X193.05Y-64.45
X199.55Y-59.95
X199.55Y-64.45
T7
X121.2Y-93.26
X121.2Y-95.8
X121.2Y-100.16
X121.2Y-102.7
X121.2Y-106.86
X121.2Y-109.4
X121.2Y-113.56
X121.2Y-116.1
X121.2Y-120.6
X121.2Y-123.14
X121.2Y-127.86
X121.2Y-130.4
X121.282Y-75.3
X121.282Y-77.84
X128.76Y-54.2
X131.3Y-54.2
X138.56Y-54.2
X141.1Y-54.2
X197.4Y-100.96
X197.4Y-103.5
T8
X121.283Y-54.272
X121.3Y-135.7
X197.712Y-135.719
X197.728Y-54.283
M30
